<svg width="600" height="800" viewBox="0 0 600 800" fill="none" xmlns="http://www.w3.org/2000/svg">
<g clip-path="url(#clip0_2113_10070)">
<path d="M437.038 181.736L403.169 193.94L408.152 207.77L442.021 195.566L437.038 181.736Z" fill="#FDE3BE"/>
<path d="M438.2 189.5C438.4 194.2 443.6 198.8 448.1 197.4C452.6 196 454.8 189.9 452.3 186" fill="#FDE3BE"/>
<path d="M451.7 183C454.1 181.6 456.1 179.6 457.6 177.3C458.8 175.3 459.7 173.1 459.6 170.7C459.5 169.3 458.9 167.5 457.9 166.5C456.8 165.4 453.9 164.9 453.9 165.1C456.6 163.6 459.7 161.6 458.9 157C458.3 153.5 455.7 152.6 453.3 152.9C454.4 150.6 453.4 147.5 451.5 145.7C449.6 144 446.6 143.7 444.3 145" fill="#FDE3BE"/>
<path d="M314.2 183.9C308.3 165.9 300.3 148.4 291.3 131.6C283.5 117.1 269.9 106.5 248.1 106.6C230.6 106.7 216 116.1 209.6 132.1C198.2 160.9 192.2 180.9 189.8 190.7C188.6 195.5 189.4 200.8 191.8 205.2C195.7 212.3 203 214.9 211.2 214.5C219.4 214.1 226.1 211.4 231.7 210.9L274.6 211.1C284 211.7 294 211.8 302.9 208.4C307.8 206.6 312.4 203.2 314.4 198.4C316.4 193.9 315.8 188.6 314.2 183.9Z" fill="#2D2D2B"/>
<path d="M209.6 217.5C200.3 217.5 193.1 213.7 189.2 206.6C186.4 201.5 185.6 195.4 187 189.9C188.3 184.6 193.7 164.6 206.9 131C213.5 114.1 229.3 103.6 248.1 103.6C248.2 103.6 248.3 103.6 248.4 103.6C268.9 103.6 284.6 112.8 294 130.2C304 148.9 311.6 166.2 317.1 183C319.2 189.4 319.3 194.9 317.3 199.6C315.2 204.7 310.4 208.9 304.1 211.2C294.4 214.8 283.8 214.6 274.6 214L231.9 213.8C229.7 214 227.2 214.6 224.6 215.2C220.7 216.1 216.4 217.1 211.4 217.4C210.8 217.5 210.2 217.5 209.6 217.5ZM248.4 109.6C248.3 109.6 248.2 109.6 248.2 109.6C231.7 109.7 218.3 118.5 212.5 133.2C199.4 166.5 194.1 186.2 192.8 191.4C191.8 195.4 192.4 200 194.5 203.7C198.3 210.6 205.6 211.7 211.1 211.4C215.5 211.2 219.4 210.3 223.2 209.4C226.1 208.7 228.9 208.1 231.5 207.9C231.6 207.9 231.7 207.9 231.8 207.9L274.7 208.1C274.8 208.1 274.8 208.1 274.9 208.1C283.4 208.7 293.3 208.8 302 205.6C306.7 203.9 310.2 200.8 311.7 197.3C313.1 194 312.9 189.8 311.3 184.9C305.9 168.4 298.5 151.5 288.6 133.1C280.3 117.5 266.8 109.6 248.4 109.6Z" fill="#2D2D2B"/>
<g opacity="0.6">
<path d="M297.9 415.3C265.1 415.3 232 415.4 199.7 409.6C196.7 409.1 193.7 408.4 191.1 407C171.8 502.1 153.5 600.4 134.1 695.7C145.7 707 160.7 712.8 175.2 720C200.6 645.8 221.2 570 238.3 489.2C238 566.2 236.1 642.8 235.8 719.8C250.3 718.9 264.7 717.4 279.2 716.6C280.7 710.6 282.1 704.6 283.5 698.5C304.2 608.5 313.9 506.1 312.3 413.7C307.8 415.1 302.6 415.3 297.9 415.3Z" fill="#2D2D2B"/>
<path d="M175.1 722.9C174.6 722.9 174.2 722.8 173.8 722.6C171.1 721.2 168.3 719.9 165.6 718.6C153.9 713 141.7 707.2 132 697.8C131.3 697.1 130.9 696.1 131.2 695.1C140.9 647.5 150.4 598.4 159.7 550.8C169 503.2 178.5 454 188.2 406.4C188.4 405.5 189 404.7 189.9 404.3C190.8 403.9 191.8 403.9 192.6 404.4C194.9 405.6 197.8 406.2 200.3 406.7C232.5 412.5 265.8 412.4 298 412.4C302.3 412.4 307.3 412.2 311.3 410.9C312.2 410.6 313.2 410.8 314 411.3C314.8 411.9 315.2 412.7 315.3 413.7C317 509.6 306.8 611 286.5 699.2C285 705.9 283.5 711.8 282.2 717.3C281.9 718.6 280.8 719.5 279.5 719.6C272.2 720 264.7 720.6 257.5 721.2C250.5 721.8 243.2 722.4 236.1 722.8C235.3 722.9 234.5 722.6 233.9 722C233.3 721.4 233 720.6 233 719.8C233.2 681.3 233.7 642.2 234.2 604.5C234.6 576.1 235 547 235.3 517.9C219.2 589.2 200.5 655.9 178.2 721C177.9 721.8 177.3 722.5 176.5 722.8C175.9 722.9 175.5 722.9 175.1 722.9ZM238.2 486.2C238.3 486.2 238.4 486.2 238.5 486.2C240 486.4 241.2 487.7 241.2 489.2C241 527.7 240.5 566.8 240 604.5C239.5 641.2 238.9 679.1 238.8 716.6C244.8 716.2 250.9 715.7 256.9 715.2C263.4 714.7 270.1 714.1 276.8 713.7C278 708.8 279.2 703.6 280.6 697.8C300.5 611.2 310.7 511.8 309.3 417.5C305.5 418.2 301.5 418.3 298 418.3C265.5 418.3 231.9 418.4 199.2 412.5C197.3 412.2 195.3 411.8 193.3 411.1C183.9 457.6 174.6 505.5 165.5 551.9C156.4 598.9 146.9 647.5 137.4 694.6C146.2 702.7 156.9 707.8 168.2 713.2C169.9 714 171.7 714.9 173.4 715.7C198 643.4 218.2 569 235.3 488.5C235.6 487.1 236.8 486.2 238.2 486.2Z" fill="#2D2D2B"/>
</g>
<path d="M229.6 191.3L234.1 222.1C237.8 226 245.5 231.3 250.8 232.9C257 234.6 261 234 265.6 232.1C268.5 230.9 273.4 227.3 274.2 223.5C274.2 223.4 274.2 223.3 274.2 223.2L272.5 204.3C273.5 203.5 277.1 201.4 278 200.7C287.4 193.7 291.5 184.4 290.8 172.6C290.3 164.2 285.1 148.4 282.5 140.3C282.5 140.3 276.8 142.1 275.9 142.2C257.8 144.9 246 145.3 228.1 145.7C228.3 148 227.8 156.2 228 158.5C222.5 156.8 216.6 159.9 214.5 163.8C212.4 167.7 213.6 172.7 215.3 176.6C218.2 182.9 223.4 188.1 229.6 191.3Z" fill="#FDE3BE"/>
<path d="M251.5 704.4C250 704.4 248.7 703.3 248.5 701.8C248.3 700.2 249.5 698.7 251.1 698.5C255.2 698 261.3 697.5 267.2 697C273 696.5 279 696 283 695.5C284.8 695.3 286.4 696.7 286.4 698.5C286.4 700.1 285.2 701.4 283.7 701.5C279.6 702 273.6 702.5 267.7 703C261.9 703.5 255.9 704 251.9 704.5C251.8 704.4 251.7 704.4 251.5 704.4Z" fill="#2D2D2B"/>
<path d="M177.4 705.9C176.9 705.9 176.5 705.8 176.1 705.6C172.1 703.6 167.4 701.5 162.8 699.5C158.1 697.4 153.1 695.3 148.9 693.1C147.4 692.4 146.8 690.6 147.6 689.1C148.3 687.6 150.1 687 151.6 687.8C155.7 689.9 160.6 692 165.2 694C169.8 696 174.6 698.1 178.8 700.2C180.3 700.9 180.9 702.7 180.1 704.2C179.6 705.3 178.5 705.9 177.4 705.9Z" fill="#2D2D2B"/>
<path d="M302.3 464.5C300.9 464.5 299.6 463.5 299.3 462C297.4 451.3 296.4 440.5 296.2 429.8C296.2 428.1 297.5 426.8 299.1 426.7C299.1 426.7 299.1 426.7 299.2 426.7C300.8 426.7 302.2 428 302.2 429.6C302.4 440 303.4 450.5 305.3 460.9C305.6 462.5 304.5 464.1 302.9 464.4C302.6 464.5 302.4 464.5 302.3 464.5Z" fill="#2D2D2B"/>
<path d="M191.5 455.3C191 455.3 190.5 455.2 190 454.9C188.6 454.1 188.1 452.2 188.9 450.8C194.4 441.2 198.5 430.8 200.9 419.9C201.3 418.3 202.9 417.3 204.5 417.6C206.1 418 207.1 419.6 206.8 421.2C204.2 432.7 199.9 443.6 194.1 453.8C193.5 454.7 192.5 455.3 191.5 455.3Z" fill="#2D2D2B"/>
<path d="M230.9 772.1C230.8 772.1 230.7 772.1 230.5 772.1C228.9 771.9 227.7 770.4 227.9 768.8C229.6 754.7 233.7 732.2 237.6 719C238.1 717.4 239.7 716.5 241.3 717C242.9 717.5 243.8 719.1 243.3 720.7C239.5 733.6 235.5 755.7 233.8 769.5C233.7 771 232.4 772.1 230.9 772.1Z" fill="#2D2D2B"/>
<path d="M393.8 772.1H89.5C87.8 772.1 86.5 770.8 86.5 769.1C86.5 767.4 87.8 766.1 89.5 766.1H393.8C395.5 766.1 396.8 767.4 396.8 769.1C396.8 770.8 395.4 772.1 393.8 772.1Z" fill="#2D2D2B"/>
<path d="M312.4 766.4C311.5 766.4 310.6 766 310 765.3C305.4 759.5 298.1 756.2 291 752.9C289.9 752.4 288.7 751.9 287.6 751.3C280 747.7 269.4 741.7 266 731.1C265.5 729.5 266.4 727.8 267.9 727.3C269.5 726.8 271.2 727.7 271.7 729.2C274.4 737.5 283.5 742.6 290.1 745.8C291.2 746.3 292.3 746.8 293.4 747.3C301.1 750.8 309.1 754.5 314.6 761.4C315.6 762.7 315.4 764.6 314.1 765.6C313.7 766.2 313 766.4 312.4 766.4Z" fill="#2D2D2B"/>
<path d="M140.8 772.1C140.3 772.1 139.8 772 139.4 771.7C131.4 767.4 111.7 755.6 103.6 749.2C95.6 743.9 91.4 739.8 88.3 736.4C86.9 734.8 86.3 732.7 86.6 730.6C86.9 728.6 88.2 726.8 90 725.8C96.6 722.2 106 722.1 113.6 722.1C115.1 722.1 116.6 722.1 117.9 722C125.2 721.8 135.6 720.7 141.4 714.2C142.5 713 144.4 712.8 145.6 713.9C146.8 715 147 716.9 145.9 718.1C138.6 726.4 126.5 727.7 118.1 728C116.7 728 115.2 728.1 113.7 728.1C106.8 728.2 98.1 728.2 92.9 731.1C92.7 731.2 92.6 731.4 92.6 731.6C92.6 731.7 92.6 732 92.8 732.3C95.6 735.4 99.5 739.3 107 744.2C107.1 744.2 107.1 744.3 107.2 744.4C114.4 750.1 133.4 761.6 142.2 766.4C143.7 767.2 144.2 769 143.4 770.5C142.9 771.5 141.9 772.1 140.8 772.1Z" fill="#2D2D2B"/>
<path d="M158.3 772.1C158 772.1 157.7 772.1 157.4 771.9C155.8 771.4 155 769.7 155.5 768.1C159.4 756.5 163.5 740.6 166 727.8C166.3 726.2 167.9 725.1 169.5 725.4C171.1 725.7 172.2 727.3 171.9 728.9C169.4 742 165.2 758.1 161.2 769.9C160.7 771.3 159.6 772.1 158.3 772.1Z" fill="#2D2D2B"/>
<path d="M266.4 184.2C265.7 184.2 265 184.1 264.3 184C260.9 183.3 257.9 181.2 256.3 178.2C255.5 176.7 256 174.9 257.5 174.1C259 173.3 260.8 173.8 261.6 175.3C262.4 176.7 263.9 177.8 265.5 178.1C267.1 178.4 268.9 177.9 270.1 176.9C271.4 175.8 273.3 176 274.3 177.3C275.4 178.6 275.2 180.5 273.9 181.5C271.8 183.2 269.1 184.2 266.4 184.2Z" fill="#2D2D2B"/>
<path d="M243 749C240.9 749 238.8 748.9 236.7 748.7C235.1 748.5 233.9 747 234 745.4C234.2 743.8 235.7 742.6 237.3 742.7C244.1 743.4 251.1 742.8 257.7 741C260.4 740.2 261.2 739.4 261.4 738.9C261.5 738.6 261.5 738.2 261.6 737.7C261.7 737 261.8 736.3 262 735.4C262.5 733.8 263.6 732.5 265 731.8C266.2 731.2 267.5 731.2 268.7 731.7C270.2 732.3 271 734.1 270.3 735.6C269.8 736.7 268.8 737.4 267.6 737.4C267.6 737.6 267.5 737.9 267.5 738.2C267.4 738.9 267.3 739.8 267 740.8C265.7 744.5 262 745.9 259.3 746.7C254.1 748.3 248.5 749 243 749Z" fill="#2D2D2B"/>
<path d="M282.6 756.7C282.4 756.7 282.3 756.7 282.1 756.7C280.5 756.4 279.4 754.9 279.6 753.2C280 750.6 281.9 748.9 283.3 747.5L283.6 747.2C285.1 745.8 285 745.2 285 745.2C285 745.1 284.5 744.7 283.9 744.5C283.2 744.4 281.1 744.9 280 745.6C277.3 747.2 275.1 749.7 273.8 752.6C273.1 754.1 271.3 754.7 269.8 754C268.3 753.3 267.7 751.5 268.4 750C270.2 746.1 273.3 742.7 277 740.4C278.7 739.4 282.4 738.1 285.1 738.5C288.2 739 290.7 741.4 291.2 744.2C291.8 747.9 288.9 750.6 288 751.5L287.7 751.8C286.9 752.6 285.9 753.5 285.8 754.1C285.3 755.6 284.1 756.7 282.6 756.7Z" fill="#2D2D2B"/>
<path d="M138.6 737.9C137.7 737.9 136.9 737.5 136.3 736.8C133.4 733.2 130.1 729.8 126.6 726.8C127.1 728.8 127.7 730.8 128.3 732.8C128.8 734.4 127.9 736.1 126.3 736.5C124.7 737 123 736.1 122.6 734.5C121.8 731.8 121 729.1 120.3 726.4C120.1 725.5 119.6 723.6 120.6 721.8C121.7 719.9 124 719 126.3 719.6C127.9 720 129.1 721 129.8 721.6C133.8 725.1 137.6 728.9 141 733C142 734.3 141.9 736.2 140.6 737.2C139.9 737.7 139.2 737.9 138.6 737.9Z" fill="#2D2D2B"/>
<path d="M163.3 749.9C162.8 749.9 162.4 749.8 162 749.6C158.6 747.9 154.8 746 151.6 743.1C147.8 739.6 145.6 735.3 145.5 731C145.5 730.5 145.5 730 145.5 729.5C145.5 728.6 145.6 727.8 145.4 727.3C145.2 726.8 144.3 726.3 143.4 726.3C142.1 726.2 140.5 726.6 139 727C137.4 727.4 135.8 726.5 135.3 724.9C134.9 723.3 135.8 721.7 137.4 721.2C139.2 720.7 141.5 720.1 143.9 720.4C147 720.7 149.7 722.5 150.8 725C151.6 726.7 151.5 728.4 151.4 729.8C151.4 730.2 151.4 730.6 151.4 730.9C151.5 733.5 153 736.4 155.5 738.7C158.1 741 161.4 742.7 164.6 744.3C166.1 745 166.7 746.8 165.9 748.3C165.4 749.3 164.4 749.9 163.3 749.9Z" fill="#2D2D2B"/>
<path d="M289.5 418.3C259.6 418.3 229 417.9 199.1 412.5C194.4 411.7 189.6 410.5 186 407C180 401 180.4 391.7 180.6 384.2V384C180.7 380.3 180.9 376.8 181.1 373.5C181.6 362.4 182.1 352.8 181.4 340.3C180.9 330.2 179.9 321.4 178.9 312.2C178.2 306.2 177.6 300.1 177 293.4C175.7 278.3 177 265.6 180.9 254.6C185 243.1 189.6 235.7 202.1 229.9C213.5 224.6 223.7 221.2 232.6 219.8C233.4 219.7 234.2 219.9 234.9 220.3C239.2 223.5 243.7 226.8 248.6 228.7C253.7 230.7 258.9 230.7 262.7 228.9C270.2 225.3 272 222.8 272.4 221.7C272.8 220.5 274 219.7 275.3 219.7C292.6 220.2 306.1 227.9 317.1 235.4C327.8 242.7 337.3 251.7 346 260.3C347.2 261.5 347.2 263.4 346 264.5C344.8 265.7 342.9 265.7 341.8 264.5C333.3 256.1 324.1 247.3 313.8 240.3C304 233.6 291.9 226.7 277.1 225.7C274.6 229.5 269.3 232.3 265.4 234.3C260 236.9 253.3 236.9 246.5 234.3C241.2 232.3 236.7 229.1 232.4 225.9C224.4 227.3 215.1 230.5 204.7 235.3C193.9 240.3 190.3 246.2 186.6 256.6C183 266.8 181.8 278.7 183 292.9C183.6 299.5 184.2 305.6 184.9 311.5C185.9 320.9 186.9 329.7 187.4 340C188.1 352.8 187.6 362.5 187.1 373.8C186.9 377.1 186.8 380.5 186.6 384.2V384.4C186.3 391 186.1 398.6 190.2 402.7C192.5 405 196.4 405.9 200.1 406.6C232.3 412.4 265.6 412.3 297.8 412.3C306 412.3 314.1 411.6 317.9 406.3C320.3 403.1 320.7 398.5 320.9 393.8C322.4 362.5 321 338.2 315.7 304.2C315.4 302.6 316.6 301 318.2 300.8C319.8 300.5 321.4 301.7 321.6 303.3C327 337.7 328.4 362.3 326.8 394.1C326.5 399.6 326 405.3 322.7 409.9C317.3 417.4 307.5 418.4 297.7 418.4C295.2 418.3 292.3 418.3 289.5 418.3Z" fill="#2D2D2B"/>
<path d="M336.4 313.5C335.8 313.5 335.2 313.3 334.7 313C330 309.9 320 302.7 315.3 298C314.1 296.8 314.1 294.9 315.3 293.8C316.5 292.6 318.4 292.6 319.5 293.8C323.8 298.2 333.5 305.1 338 308.1C339.4 309 339.7 310.9 338.8 312.3C338.3 313 337.4 313.5 336.4 313.5Z" fill="#2D2D2B"/>
<path d="M260.2 272C259.7 272 259.1 271.9 258.6 271.5L231 254.4C229.6 253.5 229.2 251.7 230 250.3C230.9 248.9 232.7 248.5 234.1 249.3L261.7 266.4C263.1 267.3 263.5 269.1 262.7 270.5C262.2 271.5 261.2 272 260.2 272Z" fill="#2D2D2B"/>
<path d="M249.9 315.6C249.6 315.6 249.2 315.5 248.9 315.4C244.8 313.9 239.7 312.1 234.8 310.4C229.8 308.7 224.7 306.9 220.6 305.3C219 304.7 218.3 303 218.8 301.4C219.4 299.8 221.1 299.1 222.7 299.6C226.8 301.1 231.9 302.9 236.8 304.6C241.8 306.3 246.9 308.1 251 309.7C252.6 310.3 253.3 312 252.8 313.6C252.2 314.9 251.1 315.6 249.9 315.6Z" fill="#2D2D2B"/>
<path d="M222.7 308.8C221.4 308.8 220.2 307.9 219.8 306.6C219.3 305 220.3 303.4 221.8 302.9C222.3 302.8 223.1 302.6 224.5 302.3C225.3 302.2 226.4 301.9 226.7 301.8C228.3 301.3 230 302.3 230.4 303.9C230.9 305.5 229.9 307.1 228.4 307.6C227.9 307.7 227.1 307.9 225.7 308.2C224.9 308.3 223.8 308.6 223.5 308.7C223.3 308.7 223 308.8 222.7 308.8Z" fill="#2D2D2B"/>
<path d="M236.3 148.2C232 148.2 227.8 148.1 223.5 147.8C221.8 147.7 220.6 146.3 220.7 144.6C220.8 142.9 222.2 141.7 223.9 141.8C245.1 143 266.3 141.1 286.9 136.1C288.5 135.7 290.1 136.7 290.5 138.3C290.9 139.9 289.9 141.5 288.3 141.9C271.2 146.1 253.8 148.2 236.3 148.2Z" fill="#2D2D2B"/>
<path d="M227.6 178.4C226.1 178.4 224.8 177.2 224.6 175.7C223.8 166.6 224.2 157.4 224.6 148.6C224.7 145.7 224.8 142.8 224.9 139.9C224.9 138.2 226.3 137 228 137C229.7 137 231 138.4 230.9 140.1C230.8 143 230.7 145.9 230.6 148.9C230.2 157.6 229.8 166.5 230.6 175.2C230.7 176.9 229.5 178.3 227.9 178.5C227.8 178.4 227.7 178.4 227.6 178.4Z" fill="#2D2D2B"/>
<path d="M265.1 277.3C274 281.2 278.9 284 287.4 288.8C297.4 266.8 303.1 242.5 313.5 220.8C324 199 340.3 179.9 361.6 168.6C363.4 167.6 365.7 167 367.6 167.7C370.7 168.9 371.3 173.2 369.8 176.1C368.3 179 365.3 180.8 362.6 182.7C359.9 184.6 354.7 188.9 354.7 188.9C356.9 197.6 358.2 206.5 358.6 215.5C358.7 218.6 358.7 221.8 357.4 224.6C356.1 227.4 353.2 229.7 350.2 229.3C347.7 234.1 341.5 238.9 336.2 239.1C332.1 266.3 325.1 292.8 313.6 317.8C311.1 323.3 307.9 329.2 302.2 331.4C297.3 333.3 291.8 332 286.8 330.3C274.4 326.1 261.5 319.3 251 311.4C255 298.4 259.1 289 265.1 277.3Z" fill="#FDE3BE"/>
<path d="M356.1 196.3C358.9 196 361.8 198.3 362.2 201.1C362.6 203.9 360.6 206.9 357.9 207.5" fill="#FDE3BE"/>
<path d="M356.3 218.7C356 218.7 355.8 218.7 355.5 218.6C352.6 217.8 349.6 217.6 346.7 217.9C345 218.1 343.6 216.9 343.4 215.2C343.2 213.6 344.4 212.1 346.1 211.9C349.8 211.5 353.5 211.8 357.1 212.8C358.7 213.2 359.6 214.9 359.2 216.5C358.8 217.9 357.6 218.7 356.3 218.7Z" fill="#2D2D2B"/>
<path d="M355.8 209.1C355.5 209.1 355.1 209 354.8 208.9C351.3 207.7 347.5 207.4 343.9 208C342.3 208.3 340.7 207.2 340.4 205.6C340.1 204 341.2 202.4 342.8 202.1C347.5 201.3 352.3 201.7 356.8 203.2C358.4 203.7 359.2 205.5 358.6 207C358.2 208.3 357.1 209.1 355.8 209.1Z" fill="#2D2D2B"/>
<path d="M339.9 199.6C338.7 199.6 337.6 198.9 337.1 197.7C336.5 196.2 337.3 194.4 338.8 193.8C343.5 192 348.7 191.5 353.7 192.3C355.3 192.6 356.4 194.1 356.2 195.8C355.9 197.4 354.4 198.5 352.7 198.3C348.7 197.6 344.7 198 340.9 199.5C340.6 199.5 340.3 199.6 339.9 199.6Z" fill="#2D2D2B"/>
<path d="M249.9 315.6C249.7 315.6 249.4 315.6 249.2 315.5C247.6 315.1 246.6 313.5 247 311.9C250.4 298.3 256 285.5 263.8 273.8C264.7 272.4 266.6 272 268 273C269.4 273.9 269.8 275.8 268.8 277.2C261.4 288.3 256 300.5 252.8 313.4C252.4 314.7 251.2 315.6 249.9 315.6Z" fill="#2D2D2B"/>
<path d="M397.6 111.5L426.5 105.3C431.3 104.3 436 107.3 437 112.1L451.1 177.4C452.1 182.2 449.1 186.9 444.3 187.9L415.4 194.1C410.6 195.1 405.9 192.1 404.9 187.3L390.8 122C389.8 117.2 392.8 112.5 397.6 111.5Z" fill="white"/>
<path d="M413.6 197.2C408.1 197.2 403.2 193.4 402 187.9L387.9 122.6C386.5 116.2 390.6 109.9 397 108.5L425.9 102.3C432.3 100.9 438.6 105 440 111.4L454.1 176.7C455.5 183.1 451.4 189.4 445 190.8L416.1 197C415.2 197.1 414.4 197.2 413.6 197.2ZM398.2 114.4C395 115.1 393 118.2 393.7 121.4L407.8 186.7C408.5 189.9 411.6 191.9 414.8 191.2L443.7 185C446.9 184.3 448.9 181.2 448.2 178L434.1 112.7C433.4 109.5 430.3 107.5 427.1 108.2L398.2 114.4Z" fill="#2D2D2B"/>
<path d="M470.1 85.7997L476 77.7997C477 76.4997 476.7 74.6997 475.4 73.6997L467.4 67.7997L468.5 57.9997C468.7 56.3997 467.5 54.8997 465.9 54.7997L456.1 53.6997L452.1 44.5997C451.5 43.0997 449.7 42.3997 448.2 43.0997L439.1 47.0997L431.1 41.1997C429.8 40.1997 428 40.4997 427 41.7997L421.1 49.7997L411.3 48.6997C409.7 48.4997 408.2 49.6997 408.1 51.2997L407 61.0997L397.9 65.0997C396.4 65.6997 395.7 67.4997 396.4 68.9997L400.4 78.0997L394.5 86.0997C393.5 87.3997 393.8 89.1997 395.1 90.1997L403.1 96.0997L402 105.9C401.8 107.5 403 109 404.6 109.1L414.4 110.2L418.4 119.3C419 120.8 420.8 121.5 422.3 120.8L431.4 116.8L439.4 122.7C440.7 123.7 442.5 123.4 443.5 122.1L449.4 114.1L459.2 115.2C460.8 115.4 462.3 114.2 462.4 112.6L463.5 102.8L472.6 98.7997C474.1 98.1997 474.8 96.3997 474.1 94.8997L470.1 85.7997Z" fill="#2D2D2B"/>
<path d="M441 126.2C439.8 126.2 438.5 125.8 437.5 125L430.9 120.1L423.4 123.4C420.4 124.7 416.9 123.3 415.6 120.3L412.3 112.8L404.2 111.9C400.9 111.5 398.6 108.6 399 105.3L399.9 97.1999L393.3 92.2999C390.7 90.3999 390.1 86.5999 392 83.9999L396.8 77.3999L393.5 69.8999C392.9 68.3999 392.8 66.7999 393.4 65.3999C394 63.8999 395.1 62.7999 396.6 62.0999L404.1 58.7999L405 50.6999C405.4 47.3999 408.3 45.0999 411.6 45.4999L419.7 46.3999L424.5 39.7999C425.4 38.4999 426.8 37.6999 428.4 37.4999C430 37.2999 431.5 37.5999 432.8 38.5999L439.4 43.4999L446.9 40.1999C448.4 39.5999 450 39.4999 451.4 40.0999C452.9 40.6999 454 41.7999 454.7 43.2999L458 50.7999L466.1 51.6999C469.4 52.0999 471.7 54.9999 471.3 58.2999L470.4 66.3999L477 71.2999C478.3 72.1999 479.1 73.5999 479.3 75.1999C479.5 76.7999 479.1 78.2999 478.2 79.5999L473.4 86.1999L476.7 93.6999C477.3 95.1999 477.4 96.7999 476.8 98.1999C476.2 99.6999 475.1 100.8 473.6 101.5L466.1 104.8L465.2 112.9C464.8 116.2 461.9 118.5 458.6 118.1L450.5 117.2L445.7 123.8C444.6 125.4 442.8 126.2 441 126.2ZM431.3 113.7C431.9 113.7 432.6 113.9 433.1 114.3L441.1 120.2L446.9 112.2C447.5 111.3 448.6 110.9 449.6 111L459.4 112.1L460.4 102.3C460.5 101.2 461.2 100.3 462.2 99.8999L471.3 95.8999L467.3 86.8999C466.9 85.8999 467 84.7999 467.6 83.8999L473.5 75.8999L465.5 70.0999C464.6 69.4999 464.2 68.3999 464.3 67.3999L465.4 57.5999L455.6 56.5999C454.5 56.4999 453.6 55.7999 453.2 54.7999L449.2 45.6999L440.2 49.6999C439.2 50.0999 438.1 49.9999 437.2 49.3999L429.2 43.4999L423.4 51.4999C422.8 52.3999 421.7 52.7999 420.7 52.6999L410.9 51.5999L409.9 61.3999C409.8 62.4999 409.1 63.3999 408.1 63.7999L399 67.7999L403 76.7999C403.4 77.7999 403.3 78.8999 402.7 79.7999L396.8 87.7999L404.8 93.5999C405.7 94.1999 406.1 95.2999 406 96.2999L404.9 106.1L414.7 107.1C415.8 107.2 416.7 107.9 417.1 108.9L421.1 118L430.1 114C430.5 113.8 430.9 113.7 431.3 113.7Z" fill="#2D2D2B"/>
<path d="M423.25 76.8487L417.918 80.7388L428.704 95.5215L434.036 91.6315L423.25 76.8487Z" fill="white"/>
<path d="M428.7 97.4997C428.6 97.4997 428.5 97.4997 428.4 97.4997C427.9 97.3997 427.4 97.0997 427.1 96.6997L416.3 81.8997C416 81.4997 415.9 80.8997 415.9 80.3997C416 79.8997 416.3 79.3997 416.7 79.0997L422 75.1997C422.9 74.4997 424.1 74.6997 424.8 75.5997L435.6 90.3997C436.3 91.2997 436.1 92.4997 435.2 93.1997L429.9 97.0997C429.6 97.3997 429.2 97.4997 428.7 97.4997ZM420.8 81.1997L429.2 92.6997L431.3 91.1997L422.9 79.6997L420.8 81.1997Z" fill="white"/>
<path d="M451.177 70.916L425.65 89.541L429.54 94.8725L455.067 76.2475L451.177 70.916Z" fill="white"/>
<path d="M429.5 96.8998C428.9 96.8998 428.3 96.5998 427.9 96.0998L424 90.7998C423.7 90.3998 423.6 89.7998 423.6 89.2998C423.7 88.7998 424 88.2998 424.4 87.9998L450 69.2998C450.9 68.5998 452.1 68.7998 452.8 69.6998L456.7 74.9998C457 75.3998 457.1 75.9998 457.1 76.4998C457 76.9998 456.7 77.4998 456.3 77.7998L430.8 96.3998C430.4 96.7998 430 96.8998 429.5 96.8998ZM428.4 89.9998L429.9 92.0998L452.2 75.7998L450.7 73.6998L428.4 89.9998Z" fill="white"/>
<path d="M410.8 204.9L409.7 201.8C408.4 198 408.4 193.9 409.9 190.2C411.1 187.4 412.4 184.5 413.9 182.7C415.8 180.5 416.6 177.6 416.2 174.7C416 173.5 415.5 172.4 414.6 171.6C412.7 169.9 410.6 170.7 408.8 171.6C397.9 177.3 392.8 188.1 389.9 199.4C382.6 227.4 374.9 254.9 367.5 282.9C362.1 279.3 356.7 275.7 351.2 272C344 283.2 339.2 296.9 337.2 310.1C343.6 318.3 352.5 324.9 362.7 327.2C372.9 329.5 384.4 326.9 391.7 319.4C397.9 313 400.4 304 402.7 295.4C410.1 267.9 413.5 241.3 420.9 213.8C428.1 213.2 441.3 204.1 441.6 194.4L410.8 204.9Z" fill="#FDE3BE"/>
<path d="M336.4 313.5H336.3C334.6 313.4 333.4 312 333.4 310.4C334.1 295.5 339.8 281 349.5 269.7C350.6 268.4 352.5 268.3 353.7 269.4C355 270.5 355.1 272.4 354 273.6C345.1 283.9 339.9 297.1 339.3 310.7C339.4 312.2 338 313.5 336.4 313.5Z" fill="#2D2D2B"/>
<path d="M364.7 94.2998C363.4 94.2998 362.1 93.3998 361.8 91.9998C361.4 90.3998 362.4 88.7998 364 88.3998L369.8 86.9998C371.4 86.5998 373 87.5998 373.4 89.1998C373.8 90.7998 372.8 92.3998 371.2 92.7998L365.4 94.1998C365.2 94.2998 364.9 94.2998 364.7 94.2998Z" fill="#EBEAEE"/>
<path d="M377.3 46.0999C376.8 46.0999 376.4 45.9999 376 45.7999L372.7 44.0999C371.2 43.3999 370.6 41.5999 371.4 40.0999C372.1 38.5999 373.9 37.9999 375.4 38.7999L378.7 40.4999C380.2 41.1999 380.8 42.9999 380 44.4999C379.4 45.4999 378.4 46.0999 377.3 46.0999Z" fill="#EBEAEE"/>
<path d="M503.1 53.7001C501.8 53.7001 500.7 52.9 500.3 51.6C499.8 50 500.6 48.3 502.2 47.8L506.2 46.5001C507.8 46.0001 509.5 46.8001 510 48.4001C510.5 50.0001 509.7 51.7001 508.1 52.2001L504.1 53.5001C503.7 53.6001 503.4 53.7001 503.1 53.7001Z" fill="#EBEAEE"/>
<path d="M511.9 98.8C511.8 98.8 511.6 98.8 511.5 98.8L507.1 98.1C505.5 97.9 504.3 96.3 504.6 94.7C504.8 93.1 506.4 91.9 508 92.2L512.4 92.9C514 93.1 515.2 94.7 514.9 96.3C514.7 97.8 513.4 98.8 511.9 98.8Z" fill="#EBEAEE"/>
<path d="M490.3 138.1C489.3 138.1 488.4 137.6 487.8 136.8L485.4 133.3C484.5 131.9 484.8 130.1 486.2 129.1C487.6 128.2 489.4 128.5 490.4 129.9L492.8 133.4C493.7 134.8 493.4 136.6 492 137.6C491.5 138 490.9 138.1 490.3 138.1Z" fill="#EBEAEE"/>
<path d="M429.3 161.4L419.2 163.5C413.8 164.6 408.5 161.2 407.3 155.8L404.9 144.7C403.8 139.3 407.2 134 412.6 132.8L422.7 130.7C428.1 129.6 433.4 133 434.6 138.4L437 149.5C438.1 154.9 434.6 160.2 429.3 161.4Z" fill="#2D2D2B"/>
<path d="M428.767 148.696C431.135 148.151 432.674 146.052 432.203 144.006C431.733 141.961 429.432 140.744 427.063 141.289C424.695 141.833 423.156 143.933 423.627 145.978C424.097 148.024 426.398 149.24 428.767 148.696Z" fill="white"/>
<path fill-rule="evenodd" clip-rule="evenodd" d="M431.2 147.5C429.1 149.6 426.1 150 424.4 148.3C422.7 146.6 423.1 143.6 425.2 141.5C427.3 139.4 430.3 139 432 140.7C433.6 142.4 433.3 145.4 431.2 147.5ZM429.7 144.7C429.7 145.1 429.8 145.3 430.2 145.2C430.6 145.1 430.9 144.8 430.9 144.4C430.9 144 430.8 143.8 430.3 143.9C430 144 429.7 144.3 429.7 144.7ZM432 144.2C431.9 145.2 431 146 430.1 146.2C429.2 146.4 428.5 146 428.6 145C428.7 144 429.6 143.2 430.5 143C431.4 142.8 432.1 143.2 432 144.2ZM427.9 145.9C428.3 145.3 428.4 144.7 428.5 144.1L426.4 144.6L426.3 145.5L427.2 145.3C427.1 145.8 426.7 146.2 426.3 146.3C425.6 146.5 425.3 145.9 425.4 145.2C425.5 144.5 425.9 143.7 426.6 143.6C427 143.5 427.3 143.7 427.4 144.1L428.5 143.4C428.2 142.7 427.7 142.4 426.8 142.6C425.5 142.9 424.5 144 424.3 145.5C424.1 146.9 424.9 147.6 426.2 147.3C426.8 147 427.4 146.5 427.9 145.9Z" fill="#2D2D2B"/>
<path fill-rule="evenodd" clip-rule="evenodd" d="M413.9 146.4C414.3 146.3 414.6 146 414.6 145.7C414.6 145.4 414.4 145.2 414 145.3C413.6 145.4 413.3 145.7 413.3 146C413.3 146.3 413.6 146.5 413.9 146.4ZM412.9 150.1L414 149.8L414.4 146.8L413.3 147.1L412.9 150.1ZM420.8 147.5C420.3 147.6 420.1 147.4 420.1 147C420.1 146.6 420.4 146.3 420.9 146.2C421.4 146.1 421.6 146.3 421.6 146.7C421.5 147 421.2 147.4 420.8 147.5ZM420.4 149.8C421.6 149.5 422.3 148.9 422.5 147.6L422.8 144.9L421.7 145.2V145.5C421.5 145.3 421.2 145.2 420.8 145.3C419.8 145.5 419.1 146.4 419 147.3C418.9 148.2 419.5 148.7 420.4 148.5C420.8 148.4 421.1 148.2 421.5 147.9V148C421.4 148.5 421.3 148.9 420.7 149C420.6 149 420.5 149 420.4 149C420.3 149 420.2 148.9 420.2 148.8L418.9 149.1C418.8 149.8 419.7 150 420.4 149.8ZM411.1 150.5L412.6 150.1L411.3 148.7C412 148.4 412.4 147.8 412.5 147.2C412.6 146.3 412 146 411 146.2L409.2 146.6L408.7 151L409.9 150.7L410.1 149L411.1 150.5ZM410.3 148.3H410.2L410.3 147.2H410.4C410.8 147.1 411.2 147.1 411.2 147.6C411.2 148.1 410.7 148.2 410.3 148.3ZM416.3 146.8V146.4L415.2 146.7L414.8 149.7L415.9 149.4L416.1 147.9C416.1 147.5 416.3 147.2 416.8 147.1C417.3 147 417.3 147.4 417.2 147.7C417.2 147.7 417.2 147.7 417.2 147.8L417 149.2L418.1 148.9L418.3 147.1C418.4 146.4 418.1 145.9 417.2 146.1C416.9 146.2 416.6 146.4 416.3 146.8Z" fill="#2D2D2B"/>
</g>
<defs>
<clipPath id="clip0_2113_10070">
<rect width="600" height="800" fill="white"/>
</clipPath>
</defs>
</svg>
