<svg width="180" height="180" viewBox="0 0 180 180" fill="none" xmlns="http://www.w3.org/2000/svg">
<path fill-rule="evenodd" clip-rule="evenodd" d="M2.49075 7.42677C0 11.3516 0 16.741 0 27.52V152.48C0 163.259 0 168.648 2.49075 172.573C3.75274 174.562 5.43819 176.247 7.42677 177.509C11.3516 180 16.741 180 27.52 180H152.48C163.259 180 168.648 180 172.573 177.509C174.562 176.247 176.247 174.562 177.509 172.573C180 168.648 180 163.259 180 152.48V27.52C180 16.741 180 11.3516 177.509 7.42677C176.247 5.43819 174.562 3.75274 172.573 2.49075C168.648 0 163.259 0 152.48 0H27.52C16.741 0 11.3516 0 7.42677 2.49075C5.43819 3.75274 3.75274 5.43819 2.49075 7.42677ZM50 38C56.6274 38 62 43.4118 62 50.0876V75H78V50.0876C78 43.4118 83.3726 38 90 38C96.6274 38 102 43.4118 102 50.0876V75H118V50.0876C118 43.4118 123.373 38 130 38C136.627 38 142 43.4118 142 50.0876V129.912C142 136.588 136.627 142 130 142C123.373 142 118 136.588 118 129.912V107H102V129.912C102 136.588 96.6274 142 90 142C83.3726 142 78 136.588 78 129.912V107H62V129.912C62 136.588 56.6274 142 50 142C43.3726 142 38 136.588 38 129.912V50.0876C38 43.4118 43.3726 38 50 38Z" fill="#2D2D2B"/>
</svg>
