<svg width="786" height="401" viewBox="0 0 786 401" fill="none" xmlns="http://www.w3.org/2000/svg">
<rect width="786" height="401" rx="16" fill="#F6D4F1"/>
<g clip-path="url(#clip0_625_2123)">
<rect x="221" y="176" width="343" height="48" rx="8" fill="#872878"/>
<path d="M339.25 209.75L339.255 200.752L348.25 200.752C348.388 200.752 348.5 200.64 348.5 200.502L348.5 199.502C348.5 199.364 348.388 199.252 348.25 199.252L339.255 199.252L339.25 190.25C339.25 190.112 339.138 190 339 190L338 190C337.862 190 337.75 190.112 337.75 190.25L337.755 199.252L328.75 199.252C328.612 199.252 328.5 199.364 328.5 199.502L328.5 200.502C328.5 200.64 328.612 200.752 328.75 200.752L337.755 200.752L337.75 209.75C337.75 209.888 337.862 210 338 210L339 210C339.138 210 339.25 209.888 339.25 209.75Z" fill="white"/>
<path d="M369.873 198.148H368.1C368.032 197.769 367.905 197.436 367.719 197.148C367.534 196.86 367.307 196.616 367.038 196.415C366.769 196.214 366.468 196.062 366.134 195.96C365.805 195.858 365.454 195.807 365.083 195.807C364.413 195.807 363.812 195.975 363.282 196.312C362.755 196.65 362.339 197.144 362.032 197.795C361.729 198.447 361.577 199.242 361.577 200.182C361.577 201.129 361.729 201.928 362.032 202.58C362.339 203.231 362.757 203.723 363.288 204.057C363.818 204.39 364.415 204.557 365.077 204.557C365.445 204.557 365.793 204.508 366.123 204.409C366.456 204.307 366.757 204.157 367.026 203.96C367.295 203.763 367.522 203.523 367.708 203.239C367.897 202.951 368.028 202.621 368.1 202.25L369.873 202.256C369.778 202.828 369.594 203.354 369.322 203.835C369.053 204.312 368.706 204.725 368.282 205.074C367.862 205.419 367.38 205.686 366.839 205.875C366.297 206.064 365.706 206.159 365.066 206.159C364.058 206.159 363.161 205.92 362.373 205.443C361.585 204.962 360.964 204.275 360.509 203.381C360.058 202.487 359.833 201.42 359.833 200.182C359.833 198.939 360.06 197.873 360.515 196.983C360.969 196.089 361.591 195.403 362.379 194.926C363.166 194.445 364.062 194.205 365.066 194.205C365.683 194.205 366.259 194.294 366.793 194.472C367.331 194.646 367.814 194.903 368.242 195.244C368.67 195.581 369.024 195.994 369.305 196.483C369.585 196.968 369.774 197.523 369.873 198.148ZM374.377 206.193C373.824 206.193 373.324 206.091 372.877 205.886C372.43 205.678 372.076 205.377 371.815 204.983C371.557 204.589 371.428 204.106 371.428 203.534C371.428 203.042 371.523 202.636 371.712 202.318C371.902 202 372.157 201.748 372.479 201.562C372.801 201.377 373.161 201.237 373.559 201.142C373.957 201.047 374.362 200.975 374.775 200.926C375.298 200.866 375.722 200.816 376.048 200.778C376.373 200.737 376.61 200.67 376.758 200.58C376.906 200.489 376.979 200.341 376.979 200.136V200.097C376.979 199.6 376.839 199.216 376.559 198.943C376.282 198.67 375.87 198.534 375.32 198.534C374.748 198.534 374.298 198.661 373.968 198.915C373.642 199.165 373.417 199.443 373.292 199.75L371.695 199.386C371.885 198.856 372.161 198.428 372.525 198.102C372.892 197.773 373.315 197.534 373.792 197.386C374.269 197.235 374.771 197.159 375.298 197.159C375.646 197.159 376.015 197.201 376.406 197.284C376.799 197.364 377.167 197.511 377.508 197.727C377.853 197.943 378.135 198.252 378.354 198.653C378.574 199.051 378.684 199.568 378.684 200.205V206H377.025V204.807H376.957C376.847 205.027 376.682 205.242 376.462 205.455C376.243 205.667 375.96 205.843 375.616 205.983C375.271 206.123 374.858 206.193 374.377 206.193ZM374.746 204.83C375.216 204.83 375.618 204.737 375.951 204.551C376.288 204.366 376.544 204.123 376.718 203.824C376.896 203.521 376.985 203.197 376.985 202.852V201.727C376.924 201.788 376.807 201.845 376.633 201.898C376.462 201.947 376.267 201.991 376.048 202.028C375.828 202.062 375.614 202.095 375.406 202.125C375.197 202.152 375.023 202.174 374.883 202.193C374.553 202.235 374.252 202.305 373.979 202.403C373.71 202.502 373.495 202.644 373.332 202.83C373.173 203.011 373.093 203.254 373.093 203.557C373.093 203.977 373.248 204.295 373.559 204.511C373.87 204.723 374.265 204.83 374.746 204.83ZM382.646 194.364V206H380.947V194.364H382.646ZM386.63 194.364V206H384.931V194.364H386.63ZM397.224 197.273V198.636H392.457V197.273H397.224ZM393.735 195.182H395.434V203.438C395.434 203.767 395.483 204.015 395.582 204.182C395.68 204.345 395.807 204.456 395.962 204.517C396.121 204.574 396.294 204.602 396.479 204.602C396.616 204.602 396.735 204.593 396.837 204.574C396.94 204.555 397.019 204.54 397.076 204.528L397.383 205.932C397.284 205.97 397.144 206.008 396.962 206.045C396.781 206.087 396.553 206.11 396.281 206.114C395.834 206.121 395.417 206.042 395.031 205.875C394.644 205.708 394.332 205.451 394.093 205.102C393.854 204.754 393.735 204.316 393.735 203.79V195.182ZM402.685 206.176C401.867 206.176 401.153 205.989 400.543 205.614C399.933 205.239 399.46 204.714 399.123 204.04C398.786 203.366 398.617 202.578 398.617 201.676C398.617 200.771 398.786 199.979 399.123 199.301C399.46 198.623 399.933 198.097 400.543 197.722C401.153 197.347 401.867 197.159 402.685 197.159C403.504 197.159 404.218 197.347 404.827 197.722C405.437 198.097 405.911 198.623 406.248 199.301C406.585 199.979 406.754 200.771 406.754 201.676C406.754 202.578 406.585 203.366 406.248 204.04C405.911 204.714 405.437 205.239 404.827 205.614C404.218 205.989 403.504 206.176 402.685 206.176ZM402.691 204.75C403.221 204.75 403.661 204.61 404.009 204.33C404.358 204.049 404.615 203.676 404.782 203.21C404.952 202.744 405.038 202.231 405.038 201.67C405.038 201.114 404.952 200.602 404.782 200.136C404.615 199.667 404.358 199.29 404.009 199.006C403.661 198.722 403.221 198.58 402.691 198.58C402.157 198.58 401.714 198.722 401.362 199.006C401.013 199.29 400.754 199.667 400.583 200.136C400.416 200.602 400.333 201.114 400.333 201.67C400.333 202.231 400.416 202.744 400.583 203.21C400.754 203.676 401.013 204.049 401.362 204.33C401.714 204.61 402.157 204.75 402.691 204.75ZM415.424 206.193C414.871 206.193 414.371 206.091 413.924 205.886C413.477 205.678 413.123 205.377 412.862 204.983C412.604 204.589 412.475 204.106 412.475 203.534C412.475 203.042 412.57 202.636 412.759 202.318C412.949 202 413.204 201.748 413.526 201.562C413.848 201.377 414.208 201.237 414.606 201.142C415.004 201.047 415.409 200.975 415.822 200.926C416.344 200.866 416.769 200.816 417.094 200.778C417.42 200.737 417.657 200.67 417.805 200.58C417.952 200.489 418.026 200.341 418.026 200.136V200.097C418.026 199.6 417.886 199.216 417.606 198.943C417.329 198.67 416.916 198.534 416.367 198.534C415.795 198.534 415.344 198.661 415.015 198.915C414.689 199.165 414.464 199.443 414.339 199.75L412.742 199.386C412.932 198.856 413.208 198.428 413.572 198.102C413.939 197.773 414.362 197.534 414.839 197.386C415.316 197.235 415.818 197.159 416.344 197.159C416.693 197.159 417.062 197.201 417.452 197.284C417.846 197.364 418.214 197.511 418.555 197.727C418.899 197.943 419.182 198.252 419.401 198.653C419.621 199.051 419.731 199.568 419.731 200.205V206H418.072V204.807H418.004C417.894 205.027 417.729 205.242 417.509 205.455C417.29 205.667 417.007 205.843 416.663 205.983C416.318 206.123 415.905 206.193 415.424 206.193ZM415.793 204.83C416.263 204.83 416.665 204.737 416.998 204.551C417.335 204.366 417.591 204.123 417.765 203.824C417.943 203.521 418.032 203.197 418.032 202.852V201.727C417.971 201.788 417.854 201.845 417.68 201.898C417.509 201.947 417.314 201.991 417.094 202.028C416.875 202.062 416.661 202.095 416.452 202.125C416.244 202.152 416.07 202.174 415.93 202.193C415.6 202.235 415.299 202.305 415.026 202.403C414.757 202.502 414.541 202.644 414.379 202.83C414.219 203.011 414.14 203.254 414.14 203.557C414.14 203.977 414.295 204.295 414.606 204.511C414.916 204.723 415.312 204.83 415.793 204.83ZM425.67 206.176C424.825 206.176 424.098 205.985 423.488 205.602C422.882 205.216 422.416 204.684 422.09 204.006C421.764 203.328 421.602 202.551 421.602 201.676C421.602 200.79 421.768 200.008 422.102 199.33C422.435 198.648 422.905 198.116 423.511 197.733C424.117 197.35 424.831 197.159 425.653 197.159C426.316 197.159 426.906 197.282 427.425 197.528C427.944 197.771 428.363 198.112 428.681 198.551C429.003 198.991 429.194 199.504 429.255 200.091H427.602C427.511 199.682 427.302 199.33 426.977 199.034C426.655 198.739 426.223 198.591 425.681 198.591C425.208 198.591 424.793 198.716 424.437 198.966C424.085 199.212 423.81 199.564 423.613 200.023C423.416 200.477 423.317 201.015 423.317 201.636C423.317 202.273 423.414 202.822 423.607 203.284C423.8 203.746 424.073 204.104 424.425 204.358C424.781 204.612 425.2 204.739 425.681 204.739C426.003 204.739 426.295 204.68 426.556 204.562C426.821 204.441 427.043 204.269 427.221 204.045C427.403 203.822 427.53 203.553 427.602 203.239H429.255C429.194 203.803 429.011 204.307 428.704 204.75C428.397 205.193 427.986 205.542 427.471 205.795C426.96 206.049 426.359 206.176 425.67 206.176ZM435.146 197.273V198.636H430.379V197.273H435.146ZM431.657 195.182H433.356V203.438C433.356 203.767 433.405 204.015 433.504 204.182C433.602 204.345 433.729 204.456 433.884 204.517C434.043 204.574 434.216 204.602 434.401 204.602C434.538 204.602 434.657 204.593 434.759 204.574C434.862 204.555 434.941 204.54 434.998 204.528L435.305 205.932C435.206 205.97 435.066 206.008 434.884 206.045C434.702 206.087 434.475 206.11 434.202 206.114C433.755 206.121 433.339 206.042 432.952 205.875C432.566 205.708 432.254 205.451 432.015 205.102C431.776 204.754 431.657 204.316 431.657 203.79V195.182ZM437.025 206V197.273H438.724V206H437.025ZM437.883 195.926C437.587 195.926 437.334 195.828 437.121 195.631C436.913 195.43 436.809 195.191 436.809 194.915C436.809 194.634 436.913 194.396 437.121 194.199C437.334 193.998 437.587 193.898 437.883 193.898C438.178 193.898 438.43 193.998 438.638 194.199C438.851 194.396 438.957 194.634 438.957 194.915C438.957 195.191 438.851 195.43 438.638 195.631C438.43 195.828 438.178 195.926 437.883 195.926ZM444.685 206.176C443.867 206.176 443.153 205.989 442.543 205.614C441.933 205.239 441.46 204.714 441.123 204.04C440.786 203.366 440.617 202.578 440.617 201.676C440.617 200.771 440.786 199.979 441.123 199.301C441.46 198.623 441.933 198.097 442.543 197.722C443.153 197.347 443.867 197.159 444.685 197.159C445.504 197.159 446.218 197.347 446.827 197.722C447.437 198.097 447.911 198.623 448.248 199.301C448.585 199.979 448.754 200.771 448.754 201.676C448.754 202.578 448.585 203.366 448.248 204.04C447.911 204.714 447.437 205.239 446.827 205.614C446.218 205.989 445.504 206.176 444.685 206.176ZM444.691 204.75C445.221 204.75 445.661 204.61 446.009 204.33C446.358 204.049 446.615 203.676 446.782 203.21C446.952 202.744 447.038 202.231 447.038 201.67C447.038 201.114 446.952 200.602 446.782 200.136C446.615 199.667 446.358 199.29 446.009 199.006C445.661 198.722 445.221 198.58 444.691 198.58C444.157 198.58 443.714 198.722 443.362 199.006C443.013 199.29 442.754 199.667 442.583 200.136C442.416 200.602 442.333 201.114 442.333 201.67C442.333 202.231 442.416 202.744 442.583 203.21C442.754 203.676 443.013 204.049 443.362 204.33C443.714 204.61 444.157 204.75 444.691 204.75ZM452.349 200.818V206H450.65V197.273H452.281V198.693H452.388C452.589 198.231 452.904 197.86 453.332 197.58C453.763 197.299 454.307 197.159 454.962 197.159C455.557 197.159 456.078 197.284 456.525 197.534C456.972 197.78 457.318 198.148 457.565 198.636C457.811 199.125 457.934 199.729 457.934 200.449V206H456.235V200.653C456.235 200.021 456.07 199.527 455.741 199.17C455.411 198.811 454.959 198.631 454.383 198.631C453.989 198.631 453.638 198.716 453.332 198.886C453.029 199.057 452.788 199.307 452.61 199.636C452.436 199.962 452.349 200.356 452.349 200.818Z" fill="white"/>
</g>
<defs>
<clipPath id="clip0_625_2123">
<path d="M221 184C221 179.582 224.582 176 229 176H556C560.418 176 564 179.582 564 184V216C564 220.418 560.418 224 556 224H229C224.582 224 221 220.418 221 216V184Z" fill="white"/>
</clipPath>
</defs>
</svg>
