<svg width="1000" height="800" viewBox="0 0 1000 800" fill="none" xmlns="http://www.w3.org/2000/svg">
<g clip-path="url(#clip0_2113_9912)">
<path d="M167.9 444.3C166.3 444.3 164.9 443 164.9 441.3C164.8 429.2 163.8 417.1 161.8 404.1C161.7 403.2 161.9 402.3 162.5 401.7C163.1 401 163.9 400.7 164.8 400.7C172.8 400.8 181.1 400.8 189 400.9C197 400.9 205.3 401 213.4 401.1C215 401.1 216.3 402.4 216.4 404.1C216.5 415.6 217.9 426.8 220.4 437.3C220.8 438.9 219.8 440.5 218.2 440.9C216.6 441.3 215 440.3 214.6 438.7C212.1 428.6 210.8 418 210.5 407.1C203.4 407 196.1 407 189.1 406.9C182.3 406.9 175.3 406.8 168.4 406.7C170.1 418.6 170.9 430 171 441.2C170.9 442.9 169.6 444.3 167.9 444.3Z" fill="#EBEAEE"/>
<path d="M203 421.8H202.9C199.1 421.6 195.3 421.5 191.5 421.4C187.7 421.3 183.9 421.1 180.1 421C178.4 420.9 177.2 419.5 177.2 417.9C177.3 416.2 178.7 415 180.3 415C184.1 415.2 187.9 415.3 191.7 415.4C195.5 415.5 199.3 415.7 203.1 415.8C204.8 415.9 206 417.3 206 418.9C205.9 420.5 204.6 421.8 203 421.8Z" fill="#EBEAEE"/>
<path d="M196.2 428.7H187C185.3 428.7 184 427.4 184 425.7C184 424 185.3 422.7 187 422.7H196.2C197.9 422.7 199.2 424 199.2 425.7C199.2 427.4 197.9 428.7 196.2 428.7Z" fill="#EBEAEE"/>
<path d="M162 439.5C160.6 439.5 159.3 438.5 159.1 437C157.2 426.7 156.2 415.9 156 404.9C156 403.2 157.3 401.9 158.9 401.8C160.6 401.7 161.9 403.1 162 404.7C162.2 415.4 163.2 425.8 165.1 435.8C165.4 437.4 164.3 439 162.7 439.3C162.4 439.5 162.2 439.5 162 439.5Z" fill="#EBEAEE"/>
<path d="M149.5 443.1C149.3 443.1 149 443.1 148.8 443C147.2 442.6 146.2 441 146.6 439.4C147.3 436.4 148 433.4 148.8 430.4C149.5 427.4 150.2 424.4 150.9 421.4C151.3 419.8 152.9 418.8 154.5 419.2C156.1 419.6 157.1 421.2 156.7 422.8C156 425.8 155.3 428.8 154.5 431.8C153.8 434.8 153.1 437.8 152.4 440.8C152.1 442.2 150.9 443.1 149.5 443.1Z" fill="#EBEAEE"/>
<path d="M105.4 440C103.9 440 102.6 438.9 102.4 437.4C97.9999 403 98.1999 368.1 103 333.7C103.2 332.2 104.4 331.1 105.9 331.1L169.3 329.9C170.7 329.8 172 330.9 172.3 332.3C177 357.4 179.1 378.2 179 397.7C179 399.3 177.6 400.7 176 400.7C174.3 400.7 173 399.3 173 397.7C173.2 379.3 171.2 359.6 166.9 336L108.6 337.1C104.2 370.1 104.1 403.6 108.4 436.7C108.6 438.3 107.5 439.8 105.8 440.1C105.7 440 105.5 440 105.4 440Z" fill="#EBEAEE"/>
<path d="M150.2 403.2H150.1C148.4 403.1 147.2 401.7 147.2 400.1C148.3 373.2 143.2 346.2 138.3 320.1C134.6 299.9 130.4 277 119.8 257.1C106.3 231.8 82.8001 212.7 62.1001 195.9C60.8001 194.9 60.6001 193 61.7001 191.7C62.7001 190.4 64.6001 190.2 65.9001 191.3C87.1001 208.5 111.1 227.9 125.2 254.3C136.3 275.1 140.5 298.4 144.3 319.1C149.2 345.5 154.4 372.9 153.2 400.5C153.1 401.9 151.8 403.2 150.2 403.2Z" fill="#EBEAEE"/>
<path d="M150.8 323.9C150.6 323.9 150.3 323.9 150.1 323.8C148.5 323.4 147.5 321.8 147.9 320.2C151.5 305.9 158.6 292.4 168.5 281.1C169.6 279.9 171.5 279.7 172.7 280.8C173.9 281.9 174.1 283.8 173 285C163.8 295.5 157.1 308.1 153.8 321.5C153.4 323 152.1 323.9 150.8 323.9Z" fill="#EBEAEE"/>
<path d="M147.8 303C147.6 303 147.4 303 147.2 302.9C145.6 302.6 144.5 301 144.8 299.4C148.5 280.9 160.6 264.5 177.1 255.5C178.6 254.7 180.4 255.3 181.2 256.7C182 258.2 181.4 260 180 260.8C165 268.9 154.1 283.8 150.7 300.6C150.5 302 149.2 303 147.8 303Z" fill="#EBEAEE"/>
<path d="M150.8 341.5C149.9 341.5 149 341.1 148.5 340.4C147.5 339.1 147.7 337.2 149 336.2C153.9 332.3 157.3 326.4 158.4 320.1C158.6 319 159.4 318 160.5 317.7C163.2 316.9 165.5 314.8 166.8 311.9C168.1 309 168.2 306 167.1 303.5C166.7 302.7 166.7 301.7 167.1 300.9C167.5 300.1 168.3 299.5 169.2 299.3C176.6 297.7 183.6 294 189.1 288.9C190.5 287.6 191.4 286.5 191.4 285.6C191.4 284.3 189.9 283 188.4 282.8C186.3 282.4 184 283 181.5 283.7L181.1 283.8C179.5 284.3 177.9 283.3 177.4 281.8C176.9 280.2 177.8 278.6 179.4 278.1C185 276.4 190.1 273.1 194 268.8C195.6 267.1 196.3 265.2 195.9 264.4C195.8 264.2 195.2 263.5 192.5 263.4C187.2 263.2 181.7 265.2 177.5 268.9C176.3 270 174.4 269.9 173.3 268.6C172.2 267.4 172.3 265.5 173.6 264.4C178.9 259.8 185.9 257.2 192.8 257.5C196.9 257.7 199.7 259 201.1 261.5C203 264.7 202.1 269 198.5 272.9C196.8 274.8 194.8 276.6 192.7 278.1C195.6 279.7 197.6 282.7 197.5 285.9C197.3 289.6 194.7 292.1 193.3 293.4C187.8 298.5 181 302.3 173.8 304.4C174.4 307.6 174 311.1 172.5 314.4C170.7 318.3 167.7 321.3 164.1 322.8C162.5 329.8 158.4 336.3 152.9 340.8C152.1 341.3 151.5 341.5 150.8 341.5Z" fill="#EBEAEE"/>
<path d="M136.7 393.4C136 393.4 135.4 393.2 134.8 392.7C127.7 386.9 121.8 379.5 118 371.2C116.8 368.6 115.4 365.2 115.9 361.4C116.2 359.3 117.3 357.1 118.9 355.5C113.3 350.1 108.4 344.1 108 336.3C107.9 335 108 333.8 108.1 332.6C108.2 331.4 108.3 330.3 108.2 329.3C107.8 324.7 104.1 320.8 100.2 316.8C99.2999 315.8 98.2999 314.9 97.3999 313.9C94.7999 310.9 91.9999 307.3 91.5999 302.7C91.1999 297.9 94.1999 292.2 99.7999 291.4C103.7 290.9 107 293.1 109.1 294.8C115.4 299.8 120.4 306.1 123.8 313.3C125.4 312.9 127.1 313.1 128.5 314C131.2 315.7 132 318.7 132.5 320.4C134.7 328.3 136.1 336.7 136.8 345.3C142.4 349.2 145.4 356.6 144 363.4C143.6 365 142.1 366 140.4 365.7C138.8 365.3 137.8 363.8 138.1 362.1C139.1 357.4 136.7 352 132.5 349.7C131.6 349.2 131 348.3 131 347.3C130.4 338.5 129 330.1 126.8 322.1C126.5 321 126.2 319.9 125.6 319.4C125.3 320.4 124.4 321.2 123.4 321.4C121.9 321.7 120.5 320.9 120 319.5C117.1 311.7 112.1 304.8 105.5 299.6C103.5 298 102 297.3 100.7 297.4C98.8999 297.7 97.5999 300.2 97.6999 302.3C97.8999 305.1 99.9999 307.7 102 310C102.8 310.9 103.7 311.8 104.6 312.8C108.8 317.2 113.7 322.2 114.2 329C114.3 330.5 114.2 331.9 114.1 333.3C114 334.3 113.9 335.3 114 336.2C114.3 343.2 120.2 349 126.2 354.3C127.1 355.1 127.5 356.4 127 357.6C126.6 358.8 125.4 359.5 124.2 359.5C123.1 359.5 122 360.9 121.8 362.4C121.5 364.6 122.5 366.9 123.3 368.8C126.8 376.3 132 383 138.5 388.2C139.8 389.2 140 391.1 138.9 392.4C138.4 393 137.6 393.4 136.7 393.4Z" fill="#EBEAEE"/>
<path d="M157.3 388.3C156.9 388.3 156.6 388.2 156.2 388.1C154.7 387.5 153.9 385.8 154.5 384.2C157.2 377 158.8 369.5 159.3 361.9C159.5 360.2 159.5 358 158.8 356.5C158.3 355.5 157.2 354.7 156.6 354.9C155 355.3 153.4 354.4 152.9 352.8C152.5 351.2 153.4 349.6 155 349.1C159 348.1 162.7 350.8 164.2 353.9C165.6 356.8 165.5 359.9 165.3 362.3C164.8 370.5 163 378.6 160.1 386.3C159.7 387.6 158.5 388.3 157.3 388.3Z" fill="#EBEAEE"/>
<path d="M140.2 433.5C138.6 433.5 137.2 432.2 137.2 430.6C136.8 412.2 136.3 393.5 135.8 375.4C135.8 373.7 137.1 372.4 138.7 372.3C140.4 372.3 141.7 373.6 141.8 375.2C142.3 393.3 142.8 412 143.2 430.4C143.2 432.1 141.9 433.5 140.2 433.5Z" fill="#EBEAEE"/>
<path d="M129.8 417.9C128.1 417.9 126.8 416.6 126.8 414.9V398.1C126.8 396.4 128.1 395.1 129.8 395.1C131.5 395.1 132.8 396.4 132.8 398.1V414.9C132.8 416.6 131.5 417.9 129.8 417.9Z" fill="#EBEAEE"/>
<path d="M127.6 352.4C126.5 352.4 125.4 351.8 124.9 350.7C119.8 339.9 114.5 328.7 109.1 317.6C108.4 316.1 109 314.3 110.5 313.6C112 312.9 113.8 313.5 114.5 315C119.9 326.1 125.2 337.3 130.3 348.1C131 349.6 130.4 351.4 128.9 352.1C128.5 352.3 128 352.4 127.6 352.4Z" fill="#EBEAEE"/>
<path d="M106.8 287.7C105.9 287.7 105 287.3 104.4 286.5C92.3 270.1 77.7 255.7 61.2 243.6C59.9 242.6 59.6 240.7 60.5 239.4C61.5 238.1 63.4 237.8 64.7 238.7C81.7 251.1 96.6 266 109.1 282.8C110.1 284.1 109.8 286 108.5 287C108 287.5 107.4 287.7 106.8 287.7Z" fill="#EBEAEE"/>
<path d="M64.6 211.6C63.5 211.6 62.4 211 61.9 209.9C61.2 208.4 61.8 206.6 63.2 205.9L64 205.5C65.5 204.8 67.3 205.4 68 206.8C68.7 208.3 68.1 210.1 66.7 210.8L65.9 211.2C65.5 211.5 65.1 211.6 64.6 211.6Z" fill="#EBEAEE"/>
<path d="M82.2 223.5H81.8C80.1 223.5 78.8 222.2 78.8 220.5C78.8 218.8 80.1 217.5 81.8 217.5H82.2C83.9 217.5 85.2 218.8 85.2 220.5C85.2 222.2 83.9 223.5 82.2 223.5Z" fill="#EBEAEE"/>
<path d="M97.4 237.9C97.1 237.9 96.8 237.9 96.5 237.7L95.3 237.3C93.7 236.8 92.9 235.1 93.4 233.5C93.9 231.9 95.5999 231.1 97.1999 231.6L98.4 232C100 232.5 100.8 234.2 100.3 235.8C99.8 237.1 98.7 237.9 97.4 237.9Z" fill="#EBEAEE"/>
<path d="M107.4 251.1H106.6C104.9 251.1 103.6 249.8 103.6 248.1C103.6 246.4 104.9 245.1 106.6 245.1H107.4C109.1 245.1 110.4 246.4 110.4 248.1C110.4 249.8 109.1 251.1 107.4 251.1Z" fill="#EBEAEE"/>
<path d="M117.4 266.2C116.4 266.2 115.5 265.7 114.9 264.9L114.1 263.7C113.2 262.3 113.6 260.5 114.9 259.5C116.3 258.6 118.1 259 119.1 260.3L119.9 261.5C120.8 262.9 120.4 264.7 119.1 265.7C118.6 266 118 266.2 117.4 266.2Z" fill="#EBEAEE"/>
<path d="M121.4 278.4C121 278.4 120.7 278.3 120.4 278.2C118.9 277.7 117.9 276.1 118.2 274.5C118.5 272.9 119.8 271.7 121.4 271.7C121.7 271.7 122 271.8 122.3 271.8C123.1 271.9 123.8 272.4 124.3 273.1C125.1 274.3 125 275.9 124.2 277C123.5 277.9 122.4 278.4 121.4 278.4Z" fill="#EBEAEE"/>
<path d="M93.5001 211C92.4001 211 91.3001 210.4 90.8001 209.3L90.0001 207.7C89.3001 206.2 89.9001 204.4 91.3001 203.7C92.8001 203 94.6001 203.6 95.3001 205L96.1001 206.6C96.8001 208.1 96.2001 209.9 94.8001 210.6C94.4001 210.9 94.0001 211 93.5001 211Z" fill="#EBEAEE"/>
<path d="M104.2 221.5C102.5 221.5 101.2 220.2 101.2 218.5V218.1C101.2 216.4 102.5 215.1 104.2 215.1C105.9 215.1 107.2 216.4 107.2 218.1V218.5C107.2 220.2 105.9 221.5 104.2 221.5Z" fill="#EBEAEE"/>
<path d="M113.4 235.1C111.7 235.1 110.4 233.8 110.4 232.1V231.7C110.4 230 111.7 228.7 113.4 228.7C115.1 228.7 116.4 230 116.4 231.7V232.1C116.4 233.8 115.1 235.1 113.4 235.1Z" fill="#EBEAEE"/>
<path d="M123 249.1C121.3 249.1 120 247.8 120 246.1V244.9C120 243.2 121.3 241.9 123 241.9C124.7 241.9 126 243.2 126 244.9V246.1C126 247.8 124.7 249.1 123 249.1Z" fill="#EBEAEE"/>
<path d="M131.4 264.3C129.7 264.3 128.4 263 128.4 261.3V260.5C128.4 258.8 129.7 257.5 131.4 257.5C133.1 257.5 134.4 258.8 134.4 260.5V261.3C134.4 263 133.1 264.3 131.4 264.3Z" fill="#EBEAEE"/>
<path d="M137.4 281.5C135.7 281.5 134.4 280.2 134.4 278.5V277.3C134.4 275.6 135.7 274.3 137.4 274.3C139.1 274.3 140.4 275.6 140.4 277.3V278.5C140.4 280.2 139.1 281.5 137.4 281.5Z" fill="#EBEAEE"/>
<path d="M141.4 295.1C139.7 295.1 138.4 293.8 138.4 292.1V290.5C138.4 288.8 139.7 287.5 141.4 287.5C143.1 287.5 144.4 288.8 144.4 290.5V292.1C144.4 293.8 143.1 295.1 141.4 295.1Z" fill="#EBEAEE"/>
<path d="M127.8 299.9C126.1 299.9 124.8 298.6 124.8 296.9V296.5C124.8 294.8 126.1 293.5 127.8 293.5C129.5 293.5 130.8 294.8 130.8 296.5V296.9C130.8 298.6 129.5 299.9 127.8 299.9Z" fill="#EBEAEE"/>
<path d="M133 315.1C131.3 315.1 130 313.8 130 312.1V311.3C130 309.6 131.3 308.3 133 308.3C134.7 308.3 136 309.6 136 311.3V312.1C136 313.8 134.7 315.1 133 315.1Z" fill="#EBEAEE"/>
<path d="M72.2 264.7C70.5 264.7 69.2 263.4 69.2 261.7V261.3C69.2 259.6 70.5 258.3 72.2 258.3C73.9 258.3 75.2 259.6 75.2 261.3V261.7C75.2 263.4 73.9 264.7 72.2 264.7Z" fill="#EBEAEE"/>
<path d="M89.8 258.7C88.1 258.7 86.8 257.4 86.8 255.7V254.9C86.8 253.2 88.1 251.9 89.8 251.9C91.5 251.9 92.8 253.2 92.8 254.9V255.7C92.8 257.4 91.5 258.7 89.8 258.7Z" fill="#EBEAEE"/>
<path d="M74.6001 246.3C72.9001 246.3 71.6001 245 71.6001 243.3V242.5C71.6001 240.8 72.9001 239.5 74.6001 239.5C76.3001 239.5 77.6001 240.8 77.6001 242.5V243.3C77.6001 245 76.3001 246.3 74.6001 246.3Z" fill="#EBEAEE"/>
<path d="M85.3999 275.5C85.1999 275.5 84.9999 275.5 84.7999 275.4C84.4999 275.3 84.0999 275.2 83.7999 275.2C83.5999 275.1 83.3999 275.1 83.1999 275C81.5999 274.7 80.4999 273.1 80.7999 271.5C81.0999 269.9 82.6999 268.8 84.2999 269.1C84.5999 269.2 84.9999 269.3 85.2999 269.3C85.4999 269.4 85.6999 269.4 85.8999 269.5C87.4999 269.8 88.5999 271.4 88.2999 273C88.0999 274.5 86.7999 275.5 85.3999 275.5Z" fill="#EBEAEE"/>
<path d="M101.4 270.7H101C99.3 270.7 98 269.4 98 267.7C98 266 99.3 264.7 101 264.7H101.4C103.1 264.7 104.4 266 104.4 267.7C104.4 269.4 103.1 270.7 101.4 270.7Z" fill="#EBEAEE"/>
<path d="M97 289.1C95.3 289.1 94 287.8 94 286.1V285.3C94 283.6 95.3 282.3 97 282.3C98.7 282.3 100 283.6 100 285.3V286.1C100 287.8 98.7 289.1 97 289.1Z" fill="#EBEAEE"/>
<path d="M113.8 284.3C112.1 284.3 110.8 283 110.8 281.3V280.9C110.8 279.2 112.1 277.9 113.8 277.9C115.5 277.9 116.8 279.2 116.8 280.9V281.3C116.8 283 115.5 284.3 113.8 284.3Z" fill="#EBEAEE"/>
<path d="M248.4 445.3H73.2C71.5 445.3 70.2 444 70.2 442.3C70.2 440.6 71.5 439.3 73.2 439.3H248.4C250.1 439.3 251.4 440.6 251.4 442.3C251.4 444 250.1 445.3 248.4 445.3Z" fill="#2D2D2B"/>
<path d="M320.3 613.8V623.5C320.3 627.3 317.2 630.5 313.3 630.5H283.9C284.1 668.9 292.6 710 301.4 745.6L325.6 751.2C329.1 706.8 330 659.1 328.4 613.9C325.7 613.8 323 613.8 320.3 613.8Z" fill="#E2BEAA"/>
<path d="M335.9 613.8C335.5 659.1 339 707.8 347.9 751.2L373.1 747.5C379 703.8 382.2 655.1 383.3 610.1C367.5 612.3 351.6 613.5 335.9 613.8Z" fill="#E2BEAA"/>
<path d="M392.2 484L393.1 483.6C387.5 479.1 383.6 472.5 381.4 465.5C378.6 456.8 378.2 447.6 377.8 438.5C373.6 436.6 368 433.5 363.4 433.7C359.3 433.9 355.5 435.7 351.4 436.7C347.4 437.6 342.9 438.2 340.3 435.1C338.7 446.2 335.7 457 330.4 467C323 481 302.7 485.6 286.8 483C286.1 486.6 285.4 490.2 284.6 493.8C282.8 493.5 281 493.1 279.2 492.7C278.4 494.4 277.5 496.1 276.8 497.9C275.6 501.2 275.3 505 275.4 508.7C275.5 509 275.6 509.2 275.6 509.5C276.5 514.5 278.1 520.1 276.7 525.2C275.7 528.9 273.3 531.4 270.3 533.1C269.1 536 269 539.4 268.5 542.5C283.4 542.3 298.4 542.3 313.3 542.4C317.1 542.4 320.2 545.6 320.2 549.4V613.9C342.4 614.4 365.2 613 387.6 609.5C390 609.1 391.9 607.1 392.1 604.7C395.8 564.4 395.8 524.1 392.2 484Z" fill="#2D2D2B"/>
<path d="M329.1 616.8C326.2 616.8 323.2 616.8 320.2 616.7C318.5 616.7 317.2 615.3 317.3 613.6C317.3 611.9 318.7 610.6 320.4 610.7C343 611.2 365.5 609.7 387.3 606.3C388.4 606.2 389.2 605.3 389.3 604.2C392.9 564.4 392.9 524 389.3 484.2C389.2 482.5 390.4 481.1 392 480.9C393.6 480.8 395.1 482 395.3 483.6C398.9 523.8 398.9 564.5 395.3 604.6C395 608.5 392 611.6 388.2 612.1C368.9 615.3 349 616.8 329.1 616.8Z" fill="#2D2D2B"/>
<path d="M377.8 441.4C377.4 441.4 377 441.3 376.6 441.1C375.9 440.8 375.2 440.4 374.4 440.1C370.9 438.5 366.7 436.5 363.5 436.6C361.2 436.7 358.8 437.5 356.3 438.3C355 438.7 353.6 439.2 352.1 439.5C349.1 440.2 342.1 442 337.9 436.9C336.9 435.6 337.1 433.7 338.3 432.7C339.6 431.7 341.5 431.8 342.5 433.1C343.7 434.6 346.1 434.8 350.5 433.7C351.7 433.4 353 433 354.3 432.6C357.1 431.7 360 430.8 363.1 430.6C367.7 430.4 372.8 432.8 376.8 434.7C377.5 435 378.2 435.4 378.9 435.7C380.4 436.4 381.1 438.2 380.4 439.7C380 440.7 378.9 441.4 377.8 441.4Z" fill="#2D2D2B"/>
<path d="M341.3 398.2C339 357.2 329.8 316.7 314.3 278.7C312.7 274.8 308.2 273.2 304.5 275.2C286 285.2 266.8 297.5 258.5 316.3C252.1 330.6 252.5 346.9 252.6 362.6C252.6 400.5 249.7 438.3 243.7 475.7C250.2 480.5 257.9 484.8 265.9 488.1C272.1 490.6 278.5 492.6 284.7 493.6C285.4 490 286.2 486.4 286.9 482.8C302.9 485.4 323.1 480.8 330.5 466.8C335.8 456.9 338.8 446.1 340.4 434.9C342 422.9 342 410.4 341.3 398.2Z" fill="#EBE7DF"/>
<path d="M284.7 496.6C284.5 496.6 284.4 496.6 284.2 496.6C278.3 495.6 271.7 493.7 264.8 490.9C256.5 487.5 248.6 483.1 241.9 478.1C241 477.4 240.5 476.3 240.7 475.2C246.6 438.5 249.6 400.7 249.6 362.6V360.7C249.5 345.3 249.4 329.4 255.8 315.1C264.4 295.5 283.6 283.1 303.1 272.6C305.6 271.2 308.6 271 311.2 272C313.9 272.9 316 275 317.1 277.6C332.8 316.2 342 356.7 344.3 398.1C345.1 412.4 344.8 424.6 343.4 435.4C341.6 448.1 338.2 458.8 333.2 468.3C325.6 482.7 305.9 488 289.3 486.2C289.1 487.1 288.9 488 288.7 488.9C288.3 490.7 288 492.5 287.6 494.3C287.4 495.6 286.1 496.6 284.7 496.6ZM247 474.3C253 478.5 259.9 482.3 267.1 485.3C272.5 487.5 277.7 489.1 282.4 490.1C282.6 489.3 282.7 488.4 282.9 487.6C283.3 485.8 283.6 484 284 482.2C284.3 480.6 285.8 479.6 287.4 479.8C302.4 482.2 321.2 478.1 327.9 465.4C332.6 456.5 335.8 446.4 337.5 434.5C338.9 424.1 339.2 412.3 338.4 398.4C336.1 357.7 327.1 317.8 311.6 279.9C311.2 278.8 310.3 278 309.3 277.6C308.2 277.2 307.1 277.3 306 277.9C287.5 287.9 269.2 299.7 261.3 317.6C255.4 330.7 255.5 346 255.6 360.7V362.7C255.6 400.4 252.7 438 247 474.3Z" fill="#EBE7DF"/>
<path d="M451.5 413.3C437.1 412 424.5 410.9 410.3 411.7C410.3 411.7 408.3 397.5 407.1 390.4C404 371.8 400.2 353.5 395.5 335.3C393.8 328.7 391.4 321.9 388 316C383.2 307.9 375.3 302.2 367.6 296.7L360.6 292.2L364.5 312.6C371.6 353.7 376.1 395.2 378 436.9C378 437.5 378.1 438 378.1 438.6C378.5 447.7 378.9 456.9 381.7 465.6C383.9 472.5 387.8 479.1 393.4 483.7C395.3 485.2 397.3 486.5 399.5 487.5C402.2 472.3 403 456.9 402.4 441.6H446C447 432 448.6 422.4 451.5 413.3Z" fill="#EBE7DF"/>
<path d="M399.5 490.5C399.1 490.5 398.7 490.4 398.3 490.2C396 489.2 393.8 487.8 391.6 486C384.3 480 380.7 472.1 378.9 466.5C376 457.4 375.6 447.9 375.2 438.8C375.2 438.8 375.2 438.7 375.2 438.6C375.2 438.4 375.2 438.2 375.2 438C375.2 437.7 375.1 437.3 375.1 437C373.2 395.6 368.7 353.9 361.6 313.1L357.7 292.8C357.5 291.6 358 290.4 359 289.8C360 289.1 361.3 289.1 362.3 289.8L369.3 294.3L369.4 294.4C376.9 299.8 385.5 305.9 390.6 314.6C393.8 320.1 396.4 326.9 398.4 334.7C403 352.5 406.8 370.6 410.1 390.1C411 395.3 412.3 404.3 412.9 408.8C426.5 408.3 438.8 409.4 451.8 410.5C452.7 410.6 453.5 411.1 454 411.8C454.5 412.6 454.6 413.5 454.4 414.4C451.9 422.3 450.2 431.1 449 442.1C448.8 443.6 447.6 444.8 446 444.8H405.5C405.9 460 404.9 474.6 402.5 488.2C402.3 489.1 401.8 489.9 400.9 490.3C400.5 490.4 400 490.5 399.5 490.5ZM381.1 438.5C381.5 447.3 381.9 456.4 384.6 464.7C386.8 471.6 390.6 477.5 395.3 481.4C395.9 481.9 396.6 482.4 397.2 482.8C399.2 469.8 399.9 456 399.4 441.7C399.4 440.9 399.7 440.1 400.2 439.5C400.8 438.9 401.5 438.6 402.4 438.6H443.3C444.3 430 445.7 422.7 447.6 416C435.3 414.9 423.4 414 410.5 414.7C409 414.8 407.6 413.7 407.4 412.1C407.4 412 405.4 397.9 404.2 390.9C401 371.7 397.2 353.7 392.7 336C390.8 328.7 388.4 322.5 385.5 317.4C381 309.8 373.4 304.3 366 299.1L364.9 298.4L367.5 311.9C374.6 353 379.1 394.9 381.1 436.6V436.7C381.1 436.9 381.1 437.1 381.1 437.3C381.1 437.8 381.1 438.2 381.1 438.5Z" fill="#EBE7DF"/>
<g opacity="0.8">
<path d="M674 436.7C673.4 421.8 664.6 388 661.4 376.2C660.7 373.5 659.2 371 657.1 369C650.5 362.9 632.6 346.3 619.5 338.4C609.1 370.4 602 404.6 591.6 436.6C583.8 398.8 573.4 364.2 557.2 329.2C542 332.8 527.1 337 512.7 342.4C508.9 343.8 505 345.3 502.1 348.2C499.9 350.4 498.4 353.3 497 356.1C488.6 373.6 482.3 392 478.1 410.9L471.4 442.3H674V436.7Z" fill="#2D2D2B"/>
<path d="M674 445.3H471.4C470.5 445.3 469.6 444.9 469.1 444.2C468.5 443.5 468.3 442.6 468.5 441.7L475.2 410.3C479.5 391 485.9 372.3 494.3 354.8C495.6 352.2 497.3 348.7 500 346.1C503.5 342.6 508 341 511.7 339.6C524.8 334.7 539.4 330.3 556.5 326.3C557.9 326 559.3 326.7 559.9 328C573.7 357.7 584 388.8 592.1 424.9C595.9 412.3 599.3 399.4 602.6 386.8C606.9 370.5 611.4 353.6 616.6 337.5C616.9 336.6 617.5 335.9 618.4 335.6C619.3 335.3 620.2 335.4 621 335.8C634.2 343.8 652.1 360.3 658.8 366.5L659 366.7C661.6 369.1 663.3 372.1 664.2 375.3C667 385.7 676.3 420.8 676.9 436.4V436.5V442.1C677 444 675.7 445.3 674 445.3ZM592.9 439.3H671V436.8C670.4 421.8 661.3 387.3 658.5 377C657.9 374.8 656.7 372.8 655 371.2L654.8 371C648.7 365.4 633.4 351.2 621.2 343C616.5 357.8 612.4 373.3 608.5 388.2C604.2 404.5 599.7 421.4 594.5 437.5C594.2 438.3 593.6 439 592.9 439.3ZM475.1 439.3H590.3C589.5 438.9 588.9 438.1 588.7 437.2C580.5 397.6 570 364.4 555.5 332.7C539.7 336.5 526 340.6 513.8 345.2C509.8 346.7 506.6 348 504.3 350.3C502.5 352.1 501.2 354.6 499.8 357.4C491.6 374.5 485.3 392.7 481.1 411.5L475.1 439.3Z" fill="#2D2D2B"/>
</g>
<path d="M292.1 488.2C292 488.2 291.8 488.2 291.7 488.2C290.1 488 288.9 486.4 289.2 484.8C289.3 484.4 289.3 484.1 289.4 483.8L289.5 482.8C297.1 432.8 299.5 390.7 297.3 350.3C297.2 348.6 298.5 347.2 300.1 347.1C301.8 347 303.2 348.3 303.3 349.9C305.6 390.7 303.1 433.2 295.5 483.6C295.5 483.9 295.4 484.3 295.3 484.6C295.3 484.9 295.2 485.2 295.2 485.6C294.9 487.1 293.6 488.2 292.1 488.2Z" fill="#2D2D2B"/>
<path d="M405.2 445.3C403.6 445.3 402.3 444 402.2 442.4C400.9 407.6 392.4 372.4 385 341.3C384.6 339.7 385.6 338.1 387.2 337.7C388.8 337.3 390.4 338.3 390.8 339.9C398.3 371.3 406.8 406.8 408.2 442.2C408.3 443.9 407 445.2 405.3 445.3H405.2Z" fill="#2D2D2B"/>
<path d="M348.9 303.2C348.5 303.2 348.1 303.1 347.8 303C347 302.7 346.4 302 346.1 301.3L338.4 280.3C337.8 278.7 338.6 277 340.2 276.5C341.8 275.9 343.5 276.7 344 278.3L350.4 295.8C351.8 294.6 353 293.1 353.8 291.4C354.5 289.9 356.3 289.3 357.8 290C359.3 290.7 359.9 292.5 359.2 294C357.3 298 354.1 301.2 350.2 303.1C349.8 303.1 349.3 303.2 348.9 303.2Z" fill="#2D2D2B"/>
<path d="M686.5 445.2C685.6 445.2 684.7 444.8 684.1 444C683.5 443.2 683.4 442.2 683.6 441.3C692.6 411.8 703.3 381.8 715.3 352.1C716.9 348.3 720.6 345.8 724.7 345.8H844.5C847.1 345.8 849.8 346.9 851.6 348.8C854.1 351.2 856.6 353.7 859.1 356.2C861.7 358.8 862.7 362.6 861.7 366.1C855.5 388.2 841 439.4 840.2 442.2C839.8 443.5 838.7 444.4 837.3 444.4L686.5 445.2ZM724.7 351.8C723.1 351.8 721.5 352.8 720.9 354.4C709.5 382.6 699.3 411.1 690.6 439.2L835.1 438.4C838.1 428 850.4 384.4 856 364.5C856.4 363.1 856 361.5 855 360.4C852.6 358 850 355.4 847.5 353C846.7 352.2 845.6 351.7 844.6 351.7H724.7V351.8Z" fill="#2D2D2B"/>
<path d="M565.2 295.9C546.6 272.5 544.3 237.4 559.7 211.8C558.7 209.2 561.6 206.8 563.7 204.9C565.8 203 568.5 202.2 571.2 201.5C579.6 199.4 588.3 198.9 597 198.7C606.6 198.5 616.5 198.6 625.7 201.4C634.9 204.2 643.7 209.9 648.1 218.5C652.5 227.1 651.8 238.6 644.8 245.3L634.5 252.8L576.2 292.3L565.2 295.9Z" fill="#2D2D2B"/>
<path d="M565.2 298.9C564.3 298.9 563.4 298.5 562.9 297.8C543.9 273.9 541.3 237.7 556.6 211.3C556.2 207.7 559.4 204.8 561.4 203L561.7 202.7C564.3 200.4 567.4 199.4 570.5 198.6C579.4 196.4 588.5 195.9 597 195.7C606.6 195.5 616.9 195.6 626.6 198.5C637.6 201.9 646.5 208.6 650.8 217.1C656.1 227.4 654.5 240.2 646.9 247.4C646.8 247.5 646.7 247.6 646.6 247.7L636.3 255.2C636.3 255.2 636.2 255.2 636.2 255.3L577.9 294.8C577.7 295 577.4 295.1 577.2 295.2L566.2 298.8C565.8 298.9 565.5 298.9 565.2 298.9ZM602.6 201.6C600.7 201.6 598.9 201.6 597.1 201.7C588.9 201.9 580.2 202.3 572 204.4C569.6 205 567.4 205.7 565.8 207.1L565.4 207.4C564.6 208.2 562.6 210 562.5 210.7C562.8 211.6 562.7 212.5 562.3 213.3C548 237.1 549.7 270 566.3 292.3L574.9 289.5L632.8 250.3L642.9 243C648.5 237.5 649.5 227.8 645.5 219.9C641.9 212.9 634.4 207.2 624.9 204.3C617.7 202.1 610 201.6 602.6 201.6Z" fill="#2D2D2B"/>
<path d="M565.5 315.6C565 306.3 565.3 296.9 566.3 287.7C562 280.6 557.7 272.6 556.7 264.3C556.4 261.6 556.5 258.5 558.4 256.4C560.5 254.1 564.2 253.9 567.1 255C570 256.2 572.3 258.4 574.5 260.6C574.5 257 578.1 254.2 581.4 252.8C584.7 251.4 588.5 250.7 591.4 248.6C594.5 246.3 596.3 242.7 597.1 238.9C597.9 235.1 597.8 231.3 597.6 227.5C606.3 228.2 614.9 228.5 623.4 230.4C631.9 232.3 643.7 245.2 643.7 245.2C643.7 245.2 641.4 275.3 639.8 290.5C639.2 296.4 638.4 302.7 634.9 307.5C630.9 313 624 315.5 618.1 318.9C614.4 321 610.8 324.1 608.7 327.7L594.1 334.8C594.1 334.9 577.9 324.1 565.5 315.6Z" fill="#FCDCC2"/>
<path d="M517.4 419.4C513.6 416.2 509.2 413.7 504.3 412.6C491.3 409.7 477.9 417.7 464.8 415.6C460.8 423.3 458.1 431.7 456.8 440.2L532.6 441.4C529.6 432.9 524.4 425.2 517.4 419.4Z" fill="#E2BEAA"/>
<g opacity="0.8">
<path d="M394.4 189.3C398.4 179.5 397 170.6 392.2 163.7C387.4 156.8 379.8 151.9 371.7 149.1C348.1 141 314 147.9 300.8 168.4C287.6 188.9 298.5 222.8 313.6 242.1" fill="#2D2D2B"/>
<path d="M313.6 245.1C312.7 245.1 311.8 244.7 311.2 243.9C294.3 222.3 284.8 187.5 298.2 166.7C312.5 144.5 348.9 138.1 372.6 146.2C382 149.4 389.8 155 394.6 161.9C400.3 170.2 401.2 180.3 397.1 190.3C396.5 191.8 394.7 192.6 393.2 191.9C391.7 191.3 390.9 189.5 391.6 188C395 179.7 394.3 171.9 389.7 165.2C385.6 159.3 378.9 154.6 370.7 151.7C343.8 142.5 313.6 153.8 303.3 169.8C291.5 188.1 300.7 220.5 315.9 240C316.9 241.3 316.7 243.2 315.4 244.2C314.9 244.9 314.2 245.1 313.6 245.1Z" fill="#2D2D2B"/>
<path d="M310 157.4C314.4 151.5 312.6 142.3 306.6 137.8C300.6 133.3 291.8 133.3 285.3 137C278.8 140.7 274.7 147.7 273.6 155C272.7 161.2 274 167.9 278.4 172.5C282.8 177.1 290.8 178.5 295.9 174.8" fill="#2D2D2B"/>
<path d="M288.9 179.9C284.3 179.9 279.6 178.1 276.2 174.5C271.5 169.6 269.5 162.3 270.6 154.5C271.9 145.8 276.8 138.3 283.8 134.3C291.6 129.9 301.7 130.3 308.4 135.3C315.8 140.9 317.7 152 312.4 159.1C311.4 160.4 309.5 160.7 308.2 159.7C306.9 158.7 306.6 156.8 307.6 155.5C310.9 151 309.6 143.7 304.8 140.1C300 136.5 292.6 136.2 286.8 139.5C281.4 142.6 277.6 148.5 276.6 155.3C275.7 161.3 277.2 166.7 280.6 170.3C284.1 174 290.5 174.9 294.2 172.2C295.5 171.2 297.4 171.5 298.4 172.9C299.4 174.2 299.1 176.1 297.7 177.1C295.2 179 292.1 179.9 288.9 179.9Z" fill="#2D2D2B"/>
</g>
<path d="M279.7 513.3C279.5 511.4 279.1 509.5 278.8 507.7C278.4 505.2 277.9 502.9 277.8 500.6C277.7 499.3 276.8 498.2 275.5 497.9C267.4 495.9 259.3 493.2 251.6 489.9C250.8 489.6 249.9 489.6 249.2 489.9C248.4 490.3 247.8 490.9 247.6 491.7C246.8 494.4 245.7 497.3 244.3 500.7C243.8 501.9 243.3 503 242.8 504.2C240.9 508.6 238.9 513.2 238.2 518.3C237.6 523.5 238.7 528.6 241.3 532.3C245 537.6 250.3 537.7 255 537.7H255.5C256.2 537.7 256.9 537.7 257.7 537.7C263.7 537.7 269.6 537.1 274.1 533.1C278.8 529.1 280.7 522 279.7 513.3Z" fill="#E2BEAA"/>
<path d="M394.4 189.3C394.4 189.3 395 210.7 394.8 221.4C394.6 232.1 392.9 243.4 386 251.8C378 261.6 363.8 266.5 357.6 277.1C356.6 278.8 354.6 279.6 352.7 279.2C339.8 276.2 326.5 270.9 315.4 263.8C314.1 263 313.4 261.6 313.4 260.1C313.4 252 313.4 243.8 313.4 235.7C313.4 225.3 305.2 216.3 305.7 206.3C320.1 209.1 334.1 200.6 345.2 191.3C356.3 182 366.9 171.1 381 167.4C386.2 173.5 390.5 182.3 394.4 189.3Z" fill="#E2BEAA"/>
<path d="M269.6 182C268.7 182 267.8 181.6 267.2 180.8C266.2 179.5 266.4 177.6 267.7 176.6C269.6 175.1 271.6 173.5 273.4 172L274.4 171.2C275.7 170.2 277.6 170.3 278.6 171.6C279.6 172.9 279.5 174.8 278.2 175.8L277.2 176.6C275.3 178.2 273.3 179.8 271.4 181.3C270.9 181.8 270.2 182 269.6 182Z" fill="#2D2D2B"/>
<path d="M302.6 151.6C301.8 151.6 301 151.3 300.5 150.7C299.3 149.5 299.4 147.6 300.5 146.5C305.3 141.8 310 136.9 314.5 131.9C315.6 130.7 317.5 130.6 318.7 131.7C319.9 132.8 320 134.7 318.9 135.9C314.4 140.9 309.6 145.9 304.7 150.7C304.1 151.3 303.4 151.6 302.6 151.6Z" fill="#2D2D2B"/>
<path d="M373.4 239.8C370.9 239.8 368.5 239.2 366.4 237.9C362.7 235.7 360.2 231.8 359.6 227.5C359.4 225.9 360.6 224.4 362.2 224.2C363.8 224 365.3 225.2 365.5 226.8C365.8 229.3 367.3 231.5 369.3 232.8C371.4 234 374.2 234.2 376.4 233.2C377.9 232.6 379.7 233.3 380.3 234.8C380.9 236.3 380.2 238.1 378.7 238.7C377.1 239.5 375.3 239.8 373.4 239.8Z" fill="#2D2D2B"/>
<path d="M655.7 443.2C654.2 443.2 652.9 442.1 652.7 440.5C652.3 436.9 651.9 433.2 651.5 429.5C651.1 425.8 650.6 422.1 650.2 418.5C650 416.9 651.2 415.4 652.9 415.2C654.5 415 656 416.2 656.2 417.9C656.6 421.5 657 425.2 657.4 428.9C657.8 432.6 658.3 436.3 658.7 439.9C658.9 441.5 657.7 443 656 443.2C655.9 443.2 655.8 443.2 655.7 443.2Z" fill="#2D2D2B"/>
<path d="M627.1 392.3C633.5 391.7 640 391.9 646.4 392.9C646.4 396.1 646.4 399.2 646.4 402.4C639.8 402.7 633.3 403.1 626.7 403.4C626.7 400.2 627.1 395.5 627.1 392.3Z" fill="#EBE7DF"/>
<path d="M626.7 406.4C625.9 406.4 625.2 406.1 624.6 405.6C624 405 623.7 404.3 623.7 403.4C623.7 401.7 623.8 399.7 623.9 397.7C624 395.8 624.1 393.8 624.1 392.3C624.1 390.8 625.3 389.5 626.8 389.3C633.5 388.7 640.2 388.9 646.8 389.9C648.3 390.1 649.3 391.4 649.3 392.9V402.4C649.3 404 648 405.3 646.4 405.4C643.1 405.5 639.9 405.7 636.6 405.9C633.3 406.1 630 406.3 626.7 406.4ZM630 395.1C630 396.1 629.9 397 629.9 398C629.9 398.7 629.8 399.5 629.8 400.2C632 400.1 634.2 400 636.4 399.9C638.7 399.8 641 399.7 643.4 399.5V395.5C639 395 634.5 394.8 630 395.1Z" fill="#EBE7DF"/>
<path d="M584.1 359.6C583.3 359.6 582.4 359.2 581.9 358.6C574.8 350.8 568 340.8 562 332L560.3 329.6C559.8 328.9 559.6 327.9 559.9 327.1L562.8 316.8C563.1 315.9 563.8 315.1 564.7 314.8C565.6 314.5 566.6 314.6 567.4 315.2C578.1 322.8 586.7 328.2 595.8 332.8C600.6 330.7 605.5 327.4 610.1 323.1C610.8 322.4 611.8 322.2 612.7 322.3C613.6 322.5 614.4 323.1 614.9 323.9C616.6 327.5 618.7 332.6 619.3 336.2C619.4 337 619.2 337.8 618.7 338.5C616.2 341.8 613.8 345.2 611.4 348.5C609.2 351.7 606.8 354.9 604.5 358.1C603.8 359 602.7 359.5 601.5 359.2C600.4 359 599.5 358.1 599.2 357C598.2 353.3 596.5 347.9 595.1 343.7C592.6 348.5 589.1 354.8 586.5 358.3C586 359 585.1 359.5 584.2 359.5C584.2 359.6 584.1 359.6 584.1 359.6ZM566.1 327.4L567 328.7C572.2 336.3 577.9 344.7 583.9 351.8C586.7 347.3 590 341 591.8 337.5C583.9 333.4 576.4 328.8 567.6 322.6L566.1 327.4ZM599.4 337.8C600.4 340.6 601.9 345.3 603.3 349.7C604.4 348.2 605.5 346.7 606.5 345.2C608.6 342.2 610.8 339.1 613.1 336.1C612.7 334.4 612 332.3 611.1 330.3C607.3 333.4 603.4 335.9 599.4 337.8Z" fill="#2D2D2B"/>
<path d="M639.4 229.1C638.5 229.1 637.6 228.7 637 227.9C634 224 629.3 222.1 625.9 221.3C621.4 220.2 616.6 220.2 611.5 220.2C610.2 220.2 609 219.3 608.6 218.1C608.2 216.8 608.7 215.5 609.8 214.7C611.3 213.7 612.7 212.7 614.1 211.7C607.5 212 601 213.7 595 216.6C593.5 217.3 591.7 216.7 591 215.2C590.3 213.7 590.9 211.9 592.4 211.2C602.1 206.5 612.8 204.7 623.5 206C624.7 206.1 625.8 207 626.1 208.3C626.4 209.5 625.9 210.8 624.9 211.5C623.5 212.5 622.1 213.5 620.7 214.5C623 214.7 625.2 215 627.4 215.5C633.7 217 638.7 220.1 641.9 224.3C642.9 225.6 642.6 227.5 641.3 228.5C640.7 228.9 640 229.1 639.4 229.1Z" fill="white"/>
<path d="M620.6 296.9C618.5 296.9 616.4 296.5 614.5 295.4C612.2 294 610.4 291.7 609.4 288.9C608.8 287.2 608.7 285.4 608.6 283.8C608.5 283.1 608.5 282.4 608.4 281.8C608.3 280.8 608.6 279.8 609.4 279.1C610.2 278.4 611.2 278.2 612.2 278.5C618.2 280.2 624.5 281 631 280.9C632.7 280.9 634 282.2 634 283.9C634 285.6 632.7 286.9 631 286.9C630.4 286.9 629.7 286.9 629.1 286.9C629.1 287.6 629.1 288.2 629.1 288.9C629.1 290.4 629.1 292 629 293.4C629 294.8 628 296 626.6 296.2C624.7 296.5 622.6 296.9 620.6 296.9ZM614.7 285.2C614.8 285.8 614.9 286.4 615.1 286.9C615.6 288.4 616.5 289.5 617.6 290.2C619 291 621 291 623.1 290.6C623.1 289.9 623.1 289.3 623.1 288.6C623.1 287.9 623.1 287.2 623.1 286.4C620.3 286.2 617.4 285.8 614.7 285.2Z" fill="#2D2D2B"/>
<path d="M931.1 445.3H406.3C404.6 445.3 403.3 444 403.3 442.3C403.3 440.6 404.6 439.3 406.3 439.3H931.1C932.8 439.3 934.1 440.6 934.1 442.3C934.1 444 932.8 445.3 931.1 445.3Z" fill="#2D2D2B"/>
<path d="M857.5 365.9L835.9 365.5C834.2 365.5 832.9 364.1 833 362.4C833 360.8 834.4 359.5 836 359.5C836 359.5 836 359.5 836.1 359.5L857.6 359.9C859.3 359.9 860.6 361.3 860.5 363C860.5 364.6 859.1 365.9 857.5 365.9Z" fill="#2D2D2B"/>
<path d="M760.9 366.9C757.3 366.8 753.7 366.7 750 366.5C748.3 366.4 747.1 365 747.2 363.3C747.3 361.6 748.7 360.4 750.4 360.5C754 360.7 757.6 360.8 761.1 360.9L760.9 366.9Z" fill="#2D2D2B"/>
<path d="M706.3 443.7C705.9 443.7 705.5 443.6 705.2 443.5C703.7 442.9 702.9 441.1 703.6 439.6C714.4 413.5 723.9 387.3 731.8 361.8C732.3 360.2 734 359.3 735.6 359.8C737.2 360.3 738.1 362 737.6 363.6C729.6 389.3 720.1 415.7 709.2 442C708.6 443 707.5 443.7 706.3 443.7Z" fill="#2D2D2B"/>
<path d="M822.2 378.4C822.1 378.4 822 378.4 822 378.4C808.1 377.3 794.3 377.2 780.8 378.2C779.2 378.3 777.7 377.1 777.6 375.4C777.5 373.7 778.7 372.3 780.4 372.2C794.2 371.2 808.4 371.3 822.6 372.4C824.3 372.5 825.5 374 825.4 375.6C825.1 377.2 823.8 378.4 822.2 378.4Z" fill="#2D2D2B"/>
<path d="M820.3 385.8C820.2 385.8 820.1 385.8 820.1 385.8C806.2 384.7 792.4 384.6 778.9 385.6C777.2 385.7 775.8 384.5 775.7 382.8C775.6 381.1 776.8 379.7 778.5 379.6C792.3 378.6 806.5 378.7 820.7 379.8C822.4 379.9 823.6 381.4 823.5 383C823.2 384.6 821.9 385.8 820.3 385.8Z" fill="#2D2D2B"/>
<path d="M818.4 393.3C818.3 393.3 818.2 393.3 818.2 393.3C804.3 392.2 790.5 392.1 777 393.1C775.4 393.2 773.9 392 773.8 390.3C773.7 388.6 774.9 387.2 776.6 387.1C790.4 386.1 804.6 386.2 818.8 387.3C820.5 387.4 821.7 388.9 821.6 390.5C821.3 392.1 820 393.3 818.4 393.3Z" fill="#2D2D2B"/>
<path d="M917 435.4H868.6C866.9 435.4 865.6 434.1 865.6 432.4C865.6 430.7 866.9 429.4 868.6 429.4H917C918.7 429.4 920 430.7 920 432.4C920 434.1 918.7 435.4 917 435.4Z" fill="#EBEAEE"/>
<path d="M874.9 427.8C873.3 427.8 872 426.5 871.9 424.9C871.8 421.8 871.7 418.7 872.5 415.4C873.5 411.4 875.7 408.3 878.9 406.6C881.6 405.2 884.6 405.1 887.3 404.9L897.1 404.6C900.7 404.5 904.4 404.5 907.7 406.5C910.6 408.3 912.7 411.6 913.6 415.4C914.2 418.2 914.1 421 914 423.6V424.6C913.9 426.3 912.6 427.5 910.9 427.5C909.2 427.4 907.9 426.1 908 424.4V423.4C908.1 421 908.2 418.8 907.7 416.6C907.2 414.3 906.1 412.5 904.5 411.5C902.7 410.4 899.9 410.4 897.3 410.5L887.5 410.8C885.3 410.9 883.2 411 881.7 411.8C879.5 413 878.6 415.4 878.3 416.7C877.7 419.2 877.8 421.8 877.9 424.6C878 426.3 876.7 427.6 875 427.7C875 427.8 874.9 427.8 874.9 427.8Z" fill="#EBEAEE"/>
<path d="M892.9 408.3C889.4 408.3 886.6 405.5 886.6 402C886.6 398.5 889.4 395.7 892.9 395.7C896.4 395.7 899.2 398.5 899.2 402C899.2 405.5 896.4 408.3 892.9 408.3ZM892.9 401.7C892.7 401.7 892.6 401.8 892.6 402C892.6 402.2 892.7 402.3 892.9 402.3C893.1 402.3 893.2 402.2 893.2 402C893.2 401.8 893.1 401.7 892.9 401.7Z" fill="#EBEAEE"/>
<path d="M337.7 303.2C337.5 303.2 337.2 303.2 337 303.1C331 301.6 325.9 297.8 322 292.1C321.1 290.7 321.5 288.9 322.8 287.9C324.2 287 326 287.4 327 288.7C329.4 292.4 332.4 294.9 335.9 296.4C338 289.3 338.2 279.2 338.2 279.1C338.2 277.4 339.6 276.1 341.3 276.2C343 276.2 344.3 277.6 344.2 279.3C344.2 279.9 343.8 293.5 340.5 301.4C340 302.5 338.9 303.2 337.7 303.2Z" fill="#2D2D2B"/>
<path d="M301.8 361.8C301.4 361.8 301 361.7 300.5 361.5C299 360.8 298.3 359 299 357.5C299.4 356.6 299.8 355.8 300.2 355.1C300.4 354.6 300.7 354.2 300.9 353.7C301.6 352.2 303.4 351.6 304.9 352.4C306.4 353.2 307 354.9 306.2 356.4C306 356.9 305.7 357.4 305.4 357.9C305 358.6 304.6 359.3 304.3 360C304 361.2 302.9 361.8 301.8 361.8Z" fill="#2D2D2B"/>
<path d="M508.7 444.3C508.6 444.3 508.5 444.3 508.4 444.3C506.7 444.2 505.5 442.7 505.7 441.1C505.8 439.5 506 437.5 505.3 436.6C505.2 436.5 504.7 436 503.5 435.6C499.6 434.2 495.6 433.3 491.4 433C489.7 432.9 488.5 431.5 488.6 429.8C488.7 428.1 490.1 426.9 491.8 427C496.5 427.3 501.1 428.3 505.4 429.9C507.2 430.5 508.8 431.4 509.8 432.6C512.2 435.5 511.9 439.1 511.6 441.6C511.6 443.1 510.2 444.3 508.7 444.3Z" fill="#2D2D2B"/>
<path d="M525.5 444.5C524.3 444.5 523.2 443.8 522.7 442.7C520.9 438.6 519.2 434.6 516.7 431.2C514.1 427.7 510.7 425.4 507.4 424.8C505.8 424.5 504.7 423 505 421.3C505.3 419.7 506.9 418.6 508.5 418.9C513.4 419.8 518 422.8 521.6 427.5C524.6 431.5 526.5 435.9 528.4 440.2C529.1 441.7 528.3 443.5 526.8 444.1C526.3 444.4 525.9 444.5 525.5 444.5Z" fill="#2D2D2B"/>
<path d="M184.9 189.4C184.8 189.4 184.6 189.4 184.5 189.4C183.6 189.3 182.7 188.7 182.3 187.8C176.8 177.3 173 166.1 170.8 154.5C170.5 152.9 171.6 151.3 173.2 151C174.8 150.7 176.4 151.8 176.7 153.4C178.5 163.1 181.6 172.5 185.8 181.4C191.3 176.2 197.3 171.7 203.6 167.9C205 167.1 206.9 167.5 207.7 168.9C208.5 170.3 208.1 172.2 206.7 173C199.6 177.2 193 182.4 187.1 188.4C186.5 189.1 185.7 189.4 184.9 189.4Z" fill="#EBEAEE"/>
<path d="M225.4 208.8C224.9 208.8 224.3 208.7 223.8 208.3C222.4 207.4 222 205.6 222.8 204.2C232.9 187.8 231.1 164.4 218.6 149.8C205.9 135 183.6 129.8 165.5 137.3C156 141.3 146.3 150.6 147.4 161.5C147.6 163.1 146.4 164.6 144.7 164.8C143.1 165 141.6 163.8 141.4 162.1C140 148.1 151.7 136.6 163.1 131.7C183.5 123.2 208.7 129.1 223 145.8C237.4 162.6 239.4 188.4 227.8 207.2C227.4 208.3 226.4 208.8 225.4 208.8Z" fill="#EBEAEE"/>
<path d="M206.5 94.2C206.4 94.2 206.4 94.2 206.3 94.2C200.9 93.9 195.5 93.6 190.1 93.3C184.7 93 179.4 92.8 174 92.5C172.3 92.4 171.1 91 171.2 89.3C171.3 87.6 172.7 86.4 174.4 86.5C179.8 86.8 185.1 87.1 190.5 87.3C195.9 87.6 201.3 87.9 206.7 88.2C208.4 88.3 209.6 89.7 209.5 91.4C209.4 93 208.1 94.2 206.5 94.2Z" fill="#EBEAEE"/>
<path d="M425.2 92C421.5 91.9 417.9 91.8 414.3 91.7C410.8 91.6 407.2 91.6 403.6 91.5C401.9 91.5 400.6 90.1 400.7 88.4C400.7 86.7 402.1 85.4 403.8 85.5C407.3 85.6 410.9 85.7 414.4 85.7C418 85.8 421.7 85.9 425.3 86C427 86 428.3 87.4 428.2 89.1C428.2 90.7 426.8 92 425.2 92Z" fill="#EBEAEE"/>
<path d="M463.6 95.6001H451.4C449.7 95.6001 448.4 94.3001 448.4 92.6001C448.4 90.9001 449.7 89.6001 451.4 89.6001H463.6C465.3 89.6001 466.6 90.9001 466.6 92.6001C466.6 94.3001 465.3 95.6001 463.6 95.6001Z" fill="#EBEAEE"/>
<path d="M476.2 200.9C475.7 200.9 475.2 200.8 474.8 200.5C473.3 199.7 472.8 197.9 473.6 196.4C483 178.8 480.8 156.2 468.4 141.4C461.8 133.5 448.8 127 438.2 126.4C427.8 125.7 413.7 127.9 408.3 136.2C407.4 137.6 405.5 138 404.1 137.1C402.7 136.2 402.3 134.3 403.2 132.9C410 122.5 425.9 119.7 438.5 120.5C450.7 121.3 465.2 128.5 472.9 137.7C486.8 154.3 489.2 179.7 478.7 199.3C478.3 200.3 477.3 200.9 476.2 200.9Z" fill="#EBEAEE"/>
<path d="M435.1 175.3C433.9 175.3 432.7 174.5 432.3 173.3C428.2 161.9 426.2 149.9 426.5 137.6C426.5 135.9 427.9 134.6 429.6 134.7C431.3 134.7 432.6 136.1 432.5 137.8C432.2 149.3 434 160.6 437.9 171.3C438.5 172.9 437.7 174.6 436.1 175.1C435.8 175.2 435.4 175.3 435.1 175.3Z" fill="#EBEAEE"/>
<path d="M452.4 189.1C451.8 189.1 451.3 188.9 450.7 188.6C449.5 187.8 448.3 187 447.1 186.3C445.9 185.5 444.7 184.7 443.5 183.9C442.1 183 441.7 181.1 442.7 179.7C443.6 178.3 445.5 177.9 446.9 178.9C448.1 179.7 449.3 180.5 450.5 181.2C451.7 182 452.9 182.8 454.1 183.6C455.5 184.5 455.9 186.4 454.9 187.8C454.3 188.6 453.4 189.1 452.4 189.1Z" fill="#EBEAEE"/>
<path d="M699.4 194.7C699 194.7 698.7 194.6 698.3 194.5C696.8 193.9 696 192.2 696.6 190.6C701.9 176.7 699.6 159.9 690.6 147.9C681.7 135.9 666.3 128.9 651.3 130C636.5 131.1 622.3 140.4 615.1 153.6C614.3 155.1 612.5 155.6 611 154.8C609.5 154 609 152.2 609.8 150.7C617.9 135.7 634 125.2 650.8 123.9C667.8 122.6 685.2 130.6 695.3 144.2C705.5 157.9 708.1 176.9 702.1 192.7C701.7 194 700.6 194.7 699.4 194.7Z" fill="#EBEAEE"/>
<path d="M654.7 179.4C654.6 179.4 654.5 179.4 654.4 179.4C651.5 179.2 648.6 178.9 645.8 178.7C642.9 178.5 640 178.2 637.1 178C635.4 177.9 634.2 176.4 634.4 174.8C634.5 173.1 636 171.9 637.6 172.1C640.5 172.3 643.4 172.6 646.2 172.8C647.8 172.9 649.3 173 650.9 173.2C649.2 164.5 647.4 156.3 644.6 148.1C644.1 146.5 644.9 144.8 646.5 144.3C648.1 143.8 649.8 144.6 650.3 146.2C653.5 155.6 655.4 164.9 657.4 174.8L657.6 176C657.8 176.9 657.5 177.9 656.9 178.6C656.4 179 655.5 179.4 654.7 179.4Z" fill="#EBEAEE"/>
<path d="M669.3 96.2999C663.7 96.1999 658.2 96.1999 652.7 96.0999C647.3 95.9999 641.9 95.9999 636.5 95.8999C634.8 95.8999 633.5 94.4999 633.5 92.8999C633.5 91.2999 634.9 89.8999 636.5 89.8999C641.9 89.8999 647.3 89.9999 652.8 90.0999C658.3 90.1999 663.8 90.2999 669.3 90.2999C671 90.2999 672.3 91.6999 672.3 93.2999C672.3 94.9999 670.9 96.2999 669.3 96.2999Z" fill="#EBEAEE"/>
<path d="M757.4 516.7C659.1 516.7 560.4 515.5 462.8 513.2C461.1 513.2 459.8 511.8 459.9 510.1C459.9 508.4 461.3 507.1 463 507.2C606.4 510.6 751.8 511.5 895.3 509.9C896.9 509.9 898.3 511.2 898.3 512.9C898.3 514.6 897 515.9 895.3 515.9C849.4 516.4 803.4 516.7 757.4 516.7Z" fill="#EBEAEE"/>
<path d="M862.7 538.3C811.7 537.7 752.8 537.4 695.7 537.2C589.3 536.7 479.2 536.1 421.1 533.8C419.4 533.7 418.2 532.3 418.2 530.7C418.3 529 419.6 527.8 421.3 527.8C479.2 530.1 589.3 530.6 695.7 531.2C752.7 531.5 811.7 531.8 862.7 532.3C864.4 532.3 865.7 533.7 865.7 535.3C865.7 537 864.3 538.3 862.7 538.3Z" fill="#EBEAEE"/>
<path d="M194 519.1H71.7C70 519.1 68.7 517.8 68.7 516.1C68.7 514.4 70 513.1 71.7 513.1H194C195.7 513.1 197 514.4 197 516.1C197 517.8 195.7 519.1 194 519.1Z" fill="#EBEAEE"/>
<path d="M89.1001 538.4C87.5001 538.4 86.2001 537.2 86.1001 535.6C86.0001 533.9 87.2001 532.5 88.9001 532.4C117.5 530.5 146.5 530.2 175.1 531.5C176.8 531.6 178 533 178 534.6C177.9 536.3 176.5 537.5 174.9 537.5C146.5 536.2 117.7 536.5 89.3001 538.4C89.2001 538.4 89.2001 538.4 89.1001 538.4Z" fill="#EBEAEE"/>
<path d="M574.4 784H179.7C178 784 176.7 782.7 176.7 781C176.7 779.3 178 778 179.7 778H574.4C576.1 778 577.4 779.3 577.4 781C577.4 782.7 576.1 784 574.4 784Z" fill="#2D2D2B"/>
<path d="M769.4 68.9001L860 58.5001C866.9 57.7001 873.2 62.7001 874 69.6001L885.5 170C886.3 176.9 881.3 183.2 874.4 184L783.8 194.4C776.9 195.2 770.6 190.2 769.8 183.3L758.3 82.9001C757.5 76.0001 762.5 69.7001 769.4 68.9001Z" fill="#EBE7DF"/>
<path d="M782.3 197.5C778.8 197.5 775.4 196.3 772.6 194.1C769.3 191.5 767.3 187.8 766.8 183.7L755.3 83.1999C754.8 79.0999 756 74.9999 758.6 71.6999C761.2 68.3999 764.9 66.3999 769 65.8999L859.6 55.4999C863.7 54.9999 867.8 56.1999 871.1 58.7999C874.4 61.3999 876.4 65.0999 876.9 69.1999L888.4 169.6C889.4 178.2 883.2 185.9 874.7 186.9L784.1 197.3C783.5 197.5 782.9 197.5 782.3 197.5ZM769.7 71.8999C767.2 72.1999 764.9 73.4999 763.3 75.4999C761.7 77.4999 761 79.9999 761.3 82.5999L772.8 183C773.1 185.5 774.4 187.8 776.4 189.4C778.4 191 780.9 191.7 783.5 191.4L874.1 181C879.4 180.4 883.2 175.6 882.6 170.3L871 69.8999C870.7 67.3999 869.4 65.0999 867.4 63.4999C865.4 61.8999 862.9 61.1999 860.3 61.4999L769.7 71.8999Z" fill="#EBE7DF"/>
<path d="M812 161.4C810.5 161.4 809.2 160.3 809 158.7L805.7 129.7C805.7 129.5 805.6 129.4 805.6 129.2C805.6 129.1 805.6 129 805.6 128.9L801.5 93.4001C801.4 92.6001 801.6 91.8001 802.1 91.2001C802.6 90.6001 803.3 90.2001 804.1 90.1001C805.3 90.0001 806.6 89.8001 807.8 89.7001C817.3 88.5001 827.1 87.3001 834.9 91.4001C843.9 96.1001 847.7 107.5 843.5 117.5C841 123.6 835.1 128.3 828.2 129.8C824.1 130.7 816.3 131.4 811.9 131.8L814.9 158.1C815.1 159.7 813.9 161.2 812.3 161.4C812.2 161.4 812.1 161.4 812 161.4ZM807.8 95.7001L811.3 125.7C815.5 125.3 823.2 124.6 827 123.8C832 122.8 836.3 119.3 838 115.1C841 108.1 838.3 99.8001 832.2 96.6001C826.1 93.4001 817.6 94.5001 808.6 95.6001C808.3 95.7001 808.1 95.7001 807.8 95.7001Z" fill="white"/>
<path d="M879.4 199.1C895.416 199.1 908.4 186.116 908.4 170.1C908.4 154.084 895.416 141.1 879.4 141.1C863.384 141.1 850.4 154.084 850.4 170.1C850.4 186.116 863.384 199.1 879.4 199.1Z" fill="#2D2D2B"/>
<path d="M879.4 202.1C861.8 202.1 847.4 187.7 847.4 170.1C847.4 152.5 861.8 138.1 879.4 138.1C897 138.1 911.4 152.5 911.4 170.1C911.4 187.7 897 202.1 879.4 202.1ZM879.4 144.1C865.1 144.1 853.4 155.8 853.4 170.1C853.4 184.4 865.1 196.1 879.4 196.1C893.7 196.1 905.4 184.4 905.4 170.1C905.4 155.8 893.7 144.1 879.4 144.1Z" fill="#2D2D2B"/>
<path d="M875 182.5C874.2 182.5 873.5 182.2 873 181.7C871.6 180.4 870.1 179 868.7 177.7C867.2 176.4 865.8 175 864.3 173.7C863.1 172.6 863 170.7 864.1 169.5C865.2 168.3 867.1 168.2 868.3 169.3C869.7 170.6 871.2 172 872.6 173.3C873.3 174 874 174.6 874.8 175.3C877.2 172.7 879.7 170 882.2 167.5C885.3 164.3 888.4 160.9 891.5 157.6C892.6 156.4 894.5 156.3 895.7 157.4C896.9 158.5 897 160.4 895.9 161.6C892.8 165 889.6 168.4 886.5 171.6C883.4 174.9 880.2 178.2 877.2 181.6C876.7 182.2 875.9 182.5 875.1 182.6C875.1 182.5 875 182.5 875 182.5Z" fill="#EBE7DF"/>
<path d="M918.2 132.6C917.4 132.6 916.7 132.3 916.1 131.7C914.9 130.5 914.9 128.6 916.1 127.5L918.7 124.9C919.9 123.7 921.8 123.7 922.9 124.9C924.1 126.1 924.1 128 922.9 129.1L920.3 131.7C919.7 132.3 919 132.6 918.2 132.6Z" fill="#EBEAEE"/>
<path d="M935.8 180.3L931.6 180.2C929.9 180.2 928.6 178.8 928.7 177.1C928.7 175.4 930.1 174.1 931.8 174.2L935.9 174.3C937.6 174.3 938.9 175.7 938.8 177.4C938.8 179 937.4 180.3 935.8 180.3Z" fill="#EBEAEE"/>
<path d="M911.5 220.8C910.4 220.8 909.3 220.2 908.8 219.1L907.2 215.8C906.5 214.3 907.1 212.5 908.6 211.8C910.1 211.1 911.9 211.7 912.6 213.2L914.2 216.5C914.9 218 914.3 219.8 912.8 220.5C912.4 220.7 911.9 220.8 911.5 220.8Z" fill="#EBEAEE"/>
<path d="M866.5 228.9C866.4 228.9 866.3 228.9 866.2 228.9C864.5 228.8 863.3 227.3 863.5 225.7C863.5 225.1 863.6 224.6 863.6 224.1C863.6 223.5 863.7 222.9 863.7 222.2C863.8 220.5 865.3 219.3 866.9 219.5C868.6 219.6 869.8 221.1 869.6 222.7C869.6 223.3 869.5 223.8 869.5 224.3C869.5 224.9 869.4 225.5 869.4 226.2C869.4 227.7 868 228.9 866.5 228.9Z" fill="#EBEAEE"/>
<path d="M793 338.8C792.7 338.8 792.4 338.8 792.1 338.7C790.5 338.2 789.6 336.5 790.1 334.9C802.8 293.5 813.1 255.8 825.7 204.7C826.1 203.1 827.7 202.1 829.3 202.5C830.9 202.9 831.9 204.5 831.5 206.1C819 257.4 808.6 295.2 795.9 336.7C795.5 338 794.3 338.8 793 338.8Z" fill="#EBE7DF"/>
<path d="M268 775.1C267 775.1 266.1 774.6 265.5 773.8C264.6 772.4 264.9 770.6 266.3 769.6C276.9 762.3 286.2 754.6 294 746.7C294.9 743.8 297.8 741.5 301.4 741.2C304.3 741 306.8 741.9 309 742.8L309.3 742.9C311.1 743.6 312.7 744.3 314.4 745C316.1 745.7 317.8 746.4 319.6 747.1C321.1 747.7 321.9 749.5 321.2 751C320.5 752.5 318.8 753.3 317.3 752.6C315.6 751.9 313.9 751.2 312.2 750.6C310.5 749.9 308.8 749.2 307.1 748.5L306.9 748.4C305.1 747.7 303.5 747.1 302 747.2C300.9 747.3 299.9 747.9 299.8 748.6C299.7 749.2 299.4 749.8 299 750.3C290.8 758.7 281 766.8 269.9 774.6C269.2 774.9 268.6 775.1 268 775.1Z" fill="#2D2D2B"/>
<path d="M329.3 778.5C329.1 778.5 328.9 778.5 328.7 778.4C327.1 778 326.1 776.4 326.4 774.8C327.9 767.8 327.8 760.5 326.1 753.5H324.5C322.8 753.5 321.5 752.1 321.6 750.4C321.6 748.7 323 747.4 324.7 747.5L328.5 747.6C329.8 747.6 330.9 748.5 331.3 749.7C333.8 758.3 334.2 767.4 332.3 776.1C331.9 777.5 330.7 778.5 329.3 778.5Z" fill="#2D2D2B"/>
<path d="M304.2 761C303.6 761 303.1 760.8 302.6 760.5C299.4 758.5 296.1 757 292.6 756.2C291 755.8 290 754.2 290.4 752.6C290.8 751 292.4 750 294 750.4C298.2 751.4 302.2 753.1 306 755.5C307.4 756.4 307.8 758.3 306.9 759.6C306.1 760.5 305.2 761 304.2 761Z" fill="#2D2D2B"/>
<path d="M295.3 764.4C295 764.4 294.8 764.4 294.5 764.3C292.7 763.8 291 763.3 289.3 762.9C287.7 762.5 286.7 760.9 287 759.3C287.4 757.7 289 756.7 290.6 757C292.5 757.4 294.3 757.9 296.2 758.4C297.8 758.8 298.7 760.5 298.3 762.1C297.8 763.5 296.6 764.4 295.3 764.4Z" fill="#2D2D2B"/>
<path d="M300.1 783.3C300 783.3 299.8 783.3 299.7 783.3C298 783.3 296.7 781.9 296.8 780.3C296.8 778.7 298.2 777.3 299.8 777.3C299.8 777.3 299.8 777.3 299.9 777.3C305 777.4 310.2 775.2 313.7 771.5C314.3 770.9 315.1 770.5 316 770.5C316.9 770.5 317.7 770.9 318.2 771.6C318.9 772.4 319.5 773.2 320.2 774.1C320.8 774.9 321.5 775.7 322.1 776.5C323.1 777.8 323 779.7 321.7 780.7C320.4 781.7 318.5 781.5 317.5 780.3C316.9 779.5 316.2 778.7 315.6 777.9C311.1 781.4 305.6 783.3 300.1 783.3Z" fill="#2D2D2B"/>
<path d="M345.1 780.7C343.7 780.7 342.4 779.7 342.2 778.3C340.4 769.2 340.7 759.7 343.1 750.8C343.3 750 343.9 749.3 344.7 748.9C345.5 748.5 346.4 748.5 347.2 748.8C349.8 749.9 354.4 749.1 360.9 746.5C366.2 744.4 372.3 742.6 377.5 745.4C379 746.2 379.5 748 378.7 749.5C377.9 751 376.1 751.5 374.6 750.7C371.5 749 367.2 750.4 363 752C358.8 753.7 353 755.6 348.1 755.1C346.6 762.3 346.5 769.8 347.9 777C348.2 778.6 347.2 780.2 345.5 780.5C345.5 780.7 345.3 780.7 345.1 780.7Z" fill="#2D2D2B"/>
<path d="M376.4 759C375.6 759 374.7 758.7 374.1 758C373 756.7 373.1 754.9 374.4 753.8C377 751.5 380.1 749.9 383.5 749C385.1 748.6 386.7 749.5 387.2 751.1C387.6 752.7 386.7 754.3 385.1 754.8C382.6 755.5 380.3 756.7 378.4 758.4C377.8 758.8 377.1 759 376.4 759Z" fill="#2D2D2B"/>
<path d="M411.2 775.2C410.6 775.2 409.9 775 409.4 774.6L409.2 774.4C403.1 769.8 396.8 765 390.7 760.2C388.3 761 386.1 762.2 384.1 763.7C382.8 764.7 380.9 764.5 379.9 763.2C378.9 761.9 379.1 760 380.4 759C383.4 756.7 386.8 755 390.5 754C391.4 753.8 392.4 753.9 393.1 754.5C399.6 759.5 406.3 764.6 412.8 769.6L413 769.8C414.3 770.8 414.6 772.7 413.6 774C413 774.8 412.1 775.2 411.2 775.2Z" fill="#2D2D2B"/>
<path d="M380.3 780.8C380.2 780.8 380 780.8 379.9 780.8C375.3 780.1 371.1 779 367.3 777.2C367.3 777.4 367.2 777.6 367.2 777.8C367 779.4 365.5 780.6 363.9 780.4C362.3 780.2 361.1 778.7 361.3 777.1C361.6 774.8 362.6 772.6 364.1 771.1C365 770.2 366.5 769.9 367.7 770.6C371.6 772.7 375.9 774.1 380.9 774.9C382.5 775.1 383.7 776.7 383.4 778.3C383.1 779.7 381.8 780.8 380.3 780.8Z" fill="#2D2D2B"/>
<path d="M313.3 633.4H210.4C204.9 633.4 200.5 628.9 200.5 623.3V550.7C200.5 545.3 204.8 540.8 210.1 540.7C244.3 539.4 279 538.9 313.4 539.2C318.9 539.3 323.3 543.8 323.3 549.2V623.4C323.3 628.9 318.8 633.4 313.3 633.4ZM294.1 545.1C266.1 545.1 238 545.6 210.3 546.7C208.2 546.8 206.5 548.6 206.5 550.7V623.3C206.5 625.6 208.2 627.4 210.4 627.4H313.3C315.5 627.4 317.3 625.6 317.3 623.4V549.2C317.3 547.1 315.5 545.3 313.3 545.2C306.9 545.1 300.5 545.1 294.1 545.1Z" fill="#2D2D2B"/>
<path d="M291.3 596.5H281.5C279.8 596.5 278.5 595.2 278.5 593.5C278.5 591.8 279.8 590.5 281.5 590.5H291.3C296 590.5 300.2 587.5 301.8 583.1C306.7 569.2 312 553.5 312.5 551.1C312.8 549.5 314.4 548.4 316 548.8C317.6 549.1 318.7 550.7 318.3 552.3C317.6 555.6 310.9 575.2 307.4 585.1C305 591.9 298.5 596.5 291.3 596.5Z" fill="#2D2D2B"/>
<path d="M270.6 596.5H243.4C241.7 596.5 240.4 595.2 240.4 593.5C240.4 591.8 241.7 590.5 243.4 590.5H270.6C272.3 590.5 273.6 591.8 273.6 593.5C273.6 595.2 272.3 596.5 270.6 596.5Z" fill="#2D2D2B"/>
<path d="M231.5 596.5C223.9 596.5 217.1 591.3 215 583.9L206.5 552.4C206.1 550.8 207 549.2 208.6 548.7C210.2 548.3 211.8 549.2 212.3 550.8L220.8 582.3C222.1 587.1 226.5 590.5 231.5 590.5C233.2 590.5 234.5 591.8 234.5 593.5C234.5 595.2 233.2 596.5 231.5 596.5Z" fill="#2D2D2B"/>
<path d="M241.7 600.1C240 600.1 238.7 598.8 238.7 597.1V587.9C238.7 586.2 240 584.9 241.7 584.9C243.4 584.9 244.7 586.2 244.7 587.9V597.1C244.7 598.8 243.4 600.1 241.7 600.1Z" fill="#2D2D2B"/>
<path d="M279.7 600.1C278 600.1 276.7 598.8 276.7 597.1V587.9C276.7 586.2 278 584.9 279.7 584.9C281.4 584.9 282.7 586.2 282.7 587.9V597.1C282.7 598.8 281.4 600.1 279.7 600.1Z" fill="#2D2D2B"/>
<path d="M275.1 543C273.6 543 272.3 541.9 272.1 540.4C271.4 535.3 271.2 529.9 271.4 524.4C271.5 522.7 272.8 521.5 274.5 521.5C276.2 521.6 277.4 523 277.4 524.6C277.2 529.8 277.4 534.9 278.1 539.6C278.3 541.2 277.2 542.8 275.5 543C275.4 543 275.2 543 275.1 543Z" fill="#2D2D2B"/>
<path d="M242.2 543.9C240.5 543.9 239.2 542.6 239.2 540.9V535.1C239.2 533.4 240.5 532.1 242.2 532.1C243.9 532.1 245.2 533.4 245.2 535.1V540.9C245.2 542.6 243.9 543.9 242.2 543.9Z" fill="#2D2D2B"/>
<path d="M276.4 501.3C276.2 501.3 276 501.3 275.7 501.2C266 499 256.3 495.7 247.1 491.5C245.6 490.8 244.9 489 245.6 487.5C246.3 486 248.1 485.3 249.6 486C258.5 490 267.7 493.2 277 495.3C278.6 495.7 279.6 497.3 279.3 498.9C279 500.4 277.8 501.3 276.4 501.3Z" fill="#2D2D2B"/>
<path d="M454.4 443.9C454.3 443.9 454.2 443.9 454.2 443.9C452.5 443.8 451.3 442.3 451.5 440.7C452.2 431.7 455.1 422.8 459.7 415C460.5 413.6 462.4 413.1 463.8 414C465.2 414.8 465.7 416.7 464.8 418.1C460.6 425.1 458.1 433.1 457.4 441.2C457.3 442.7 455.9 443.9 454.4 443.9Z" fill="#2D2D2B"/>
<path d="M551.2 372.5C550.5 372.5 549.9 372.3 549.3 371.8C541.1 365 536.5 354.2 537.3 343.6C537.4 341.9 538.9 340.7 540.5 340.8C542.2 340.9 543.4 342.4 543.3 344C542.7 352.8 546.4 361.6 553.1 367.2C554.4 368.3 554.6 370.1 553.5 371.4C552.9 372.1 552.1 372.5 551.2 372.5Z" fill="#2D2D2B"/>
<path d="M587.3 434C586.4 434 585.6 433.6 585 432.9C575.6 421.5 567.3 410.6 559.5 399.6C555.8 394.4 552.2 388.7 552.2 382C552.2 380.3 553.5 379 555.2 379C556.9 379 558.2 380.3 558.2 382C558.2 387 561.1 391.6 564.4 396.2C572.1 407.1 580.4 417.9 589.7 429.1C590.8 430.4 590.6 432.3 589.3 433.3C588.6 433.8 588 434 587.3 434Z" fill="#2D2D2B"/>
<path d="M627.3 374.2C626.7 374.2 626 374 625.5 373.6C624.2 372.6 623.9 370.7 624.9 369.4C628.9 364.1 630.5 357 629.2 350.4C628.9 348.8 629.9 347.2 631.5 346.9C633.1 346.6 634.7 347.6 635 349.2C636.7 357.4 634.7 366.3 629.7 373C629.1 373.8 628.2 374.2 627.3 374.2Z" fill="#2D2D2B"/>
<path d="M603.8 429C603.1 429 602.5 428.8 601.9 428.3C600.6 427.3 600.4 425.4 601.4 424.1C610 413.4 616 399.9 618.8 385C619.1 383.4 620.7 382.3 622.3 382.6C623.9 382.9 625 384.5 624.7 386.1C621.7 401.9 615.3 416.3 606.1 427.8C605.5 428.6 604.7 429 603.8 429Z" fill="#2D2D2B"/>
<path d="M321.3 338.4C320.1 338.4 319 337.7 318.5 336.6C312.5 322.5 304.6 309 295 296.5C294 295.2 294.2 293.3 295.6 292.3C296.9 291.3 298.8 291.5 299.8 292.9C309.7 305.8 317.8 319.7 324.1 334.2C324.8 335.7 324 337.5 322.5 338.1C322.1 338.3 321.7 338.4 321.3 338.4Z" fill="#2D2D2B"/>
<path d="M373.4 367C371.7 367 370.4 365.6 370.4 364C370.5 355.7 370.5 347.4 370.5 339.1C370.5 330.8 370.6 322.5 370.6 314.2C370.6 312.5 372 311.2 373.6 311.2C375.3 311.2 376.6 312.6 376.6 314.2C376.5 322.5 376.5 330.8 376.5 339.1C376.5 347.4 376.4 355.7 376.4 364C376.4 365.7 375 367 373.4 367Z" fill="#2D2D2B"/>
</g>
<defs>
<clipPath id="clip0_2113_9912">
<rect width="1000" height="800" fill="white"/>
</clipPath>
</defs>
</svg>
