<svg width="1200" height="800" viewBox="0 0 1200 800" fill="none" xmlns="http://www.w3.org/2000/svg">
<g clip-path="url(#clip0_2113_10136)">
<path d="M808.9 370.6L810.5 514.8C810.5 518.2 813.3 520.9 816.7 520.9H974.5C977.8 520.9 980.5 518.3 980.7 515C982.3 468 983.9 419.4 979.1 372.6C978.8 369.5 976.2 367.1 973.1 367L815.2 364.3C811.7 364.3 808.8 367.2 808.9 370.6Z" fill="#EBEAEE"/>
<path d="M974.5 523.9H816.7C811.6 523.9 807.5 519.8 807.5 514.8L805.9 370.7C805.8 368.3 806.8 366 808.5 364.2C810.3 362.4 812.7 361.3 815.2 361.3L973.2 364C977.9 364.1 981.7 367.7 982.1 372.3C987 419.7 985.3 468.2 983.7 515.1C983.4 520.1 979.4 523.9 974.5 523.9ZM815.1 367.3C814.3 367.3 813.4 367.7 812.7 368.3C812.1 368.9 811.8 369.7 811.8 370.5C811.8 370.5 811.8 370.5 811.8 370.6L813.4 514.8C813.4 516.5 814.8 517.9 816.6 517.9H974.4C976.1 517.9 977.5 516.5 977.6 514.8C979.2 468.2 980.8 419.9 976 372.9C975.8 371.3 974.5 370 972.9 370L815.1 367.3Z" fill="#EBEAEE"/>
<path d="M892.5 401.7C890.1 401.7 888.5 399.9 887.5 398.7C886.2 398.4 883.1 398.3 881.8 398.4C881.4 398.6 881 398.7 880.6 398.7C878.9 398.7 877.6 397.4 877.6 395.7C877.6 390.6 877.6 385.5 877.5 380.4C877.5 375.3 877.5 370.3 877.5 365.3C877.5 364.5 877.8 363.7 878.4 363.1C879 362.5 879.8 362.2 880.6 362.3L916.3 363.6C917.9 363.7 919.1 364.9 919.2 366.5C919.4 371.3 919.6 376.2 919.7 380.9C919.8 385.6 920 390.4 920.2 395.2C920.2 396 919.9 396.8 919.4 397.4C918.9 398 918.1 398.3 917.2 398.3C915.5 398.3 914.2 397.8 913.1 397.4C912.5 397.2 912 397 911.6 397C911 397 910.5 397.2 909.6 397.5C908.6 397.9 907.4 398.4 905.9 398.5C904.5 398.6 903.3 398.1 902.3 397.8L901.8 397.6C900.3 397.2 898.4 397.7 897.3 398.9C897.1 399.1 897 399.2 896.9 399.3C896.2 400.1 894.9 401.4 893 401.6C893 401.7 892.7 401.7 892.5 401.7ZM883.8 392.4C886.8 392.4 890.5 392.9 891.8 394.5L892 394.8C892.2 395 892.4 395.2 892.5 395.5L892.6 395.4C892.8 395.2 892.9 395 893.1 394.9C895.7 392.2 899.8 391 903.5 392C903.8 392.1 904 392.1 904.2 392.2C904.8 392.4 905.3 392.6 905.8 392.6C906.3 392.6 906.8 392.3 907.4 392.1C908.5 391.6 910.1 391 912.1 391.1C912.8 391.1 913.5 391.3 914.1 391.5C914 388 913.9 384.6 913.8 381.2C913.7 377.4 913.6 373.5 913.4 369.6L883.6 368.5C883.6 372.5 883.6 376.5 883.6 380.5C883.7 384.4 883.7 388.4 883.8 392.4Z" fill="#2D2D2B"/>
<path d="M1007.9 525.9C996.7 525.8 991.8 526.2 980.4 525.9L834.6 526.5C831.1 526.5 828.2 529.1 827.9 532.6C825.5 557.6 824.6 582.7 825.1 607.8C825.2 611.4 828 614.3 831.5 614.4L973.6 621.2C973.8 621.2 973.9 621.2 974.1 621.2C980.9 622 995.4 623.4 1003.5 624.1C1006.8 624.4 1009.8 622 1010.2 618.7C1011 612.7 1013.2 532 1013.2 532C1013.8 528.8 1011.2 525.9 1007.9 525.9Z" fill="#EBE7DF"/>
<path d="M1004 627.1C1003.7 627.1 1003.5 627.1 1003.2 627.1C994.8 626.4 980.6 625 973.9 624.2H973.6H973.5L831.4 617.4C826.4 617.3 822.3 613.1 822.1 607.9C821.6 582.5 822.5 557 824.9 532.3C825.3 527.3 829.5 523.5 834.6 523.5L980.4 522.9C987 523.1 991.4 523 996 523C999.5 523 1003.1 522.9 1007.9 522.9C1010.4 522.9 1012.8 524 1014.4 525.9C1015.9 527.7 1016.5 530 1016.2 532.2C1016 537.7 1014 613 1013.2 619C1012.6 623.7 1008.6 627.1 1004 627.1ZM973.7 618.2H974.1C974.2 618.2 974.3 618.2 974.5 618.2C981 619 995.4 620.4 1003.8 621.1C1005.5 621.2 1007.1 620 1007.3 618.3C1007.9 613.5 1009.7 554.3 1010.3 531.9C1010.3 531.7 1010.3 531.6 1010.4 531.4C1010.5 530.6 1010.2 530 1009.9 529.7C1009.4 529.1 1008.7 528.9 1008 528.8C1003.3 528.8 999.7 528.8 996.2 528.9C991.5 529 987.1 529 980.4 528.8L834.7 529.4C832.7 529.4 831.1 530.8 831 532.8C828.6 557.3 827.7 582.5 828.2 607.7C828.3 609.7 829.8 611.3 831.7 611.4L973.7 618.2Z" fill="#EBE7DF"/>
<path d="M955.5 560.3C953.6 560.3 952 559.4 951 558.7L950.8 558.6C950.2 558.2 949.5 557.7 949.1 557.7C949 557.7 948.7 557.7 948.4 557.7C947.6 557.8 946.4 557.9 945.2 557.4C944.5 557.1 943.8 556.7 943.3 556.1C941.6 556.7 939.8 557 937.8 557.3C936.9 557.4 936 557.1 935.4 556.5C934.8 555.9 934.4 555 934.5 554.1C935.4 543.2 935.4 525.8 935.4 525.6C935.4 524.8 935.7 524 936.3 523.5C936.9 523 937.6 522.6 938.4 522.6L964.1 522.8C964.9 522.8 965.7 523.1 966.2 523.7C966.8 524.3 967.1 525.1 967 525.9L966.3 550.1V550.2C966.2 551.8 966 554.1 964.5 555.9C963.5 557.1 961.4 558.2 959.4 558.5C958.5 559.5 957.3 560.2 956 560.3C955.8 560.3 955.6 560.3 955.5 560.3ZM949 551.7C949.4 551.7 949.7 551.7 950.1 551.8C951.8 552.1 953 553 954.1 553.7L954.2 553.8C954.4 553.9 954.5 554 954.6 554.1C954.9 553.3 955.6 552.6 956.5 552.3C957.4 552 958.3 552.1 959 552.6C959.3 552.5 959.7 552.3 959.9 552.2C960.2 551.8 960.2 550.8 960.3 550L960.9 529L941.3 528.8C941.3 533.5 941.1 542.9 940.7 550.8C941.9 550.5 942.9 550 943.9 549.5C945.3 548.7 947.1 549.2 947.9 550.7C948.1 551.1 948.2 551.5 948.3 551.9C948.5 551.7 948.7 551.7 949 551.7Z" fill="#2D2D2B"/>
<path d="M887.8 608.6H887.7C886 608.5 884.7 607.2 884.8 605.5L887.4 528.3C887.5 526.6 888.8 525.4 890.5 525.4C892.2 525.5 893.5 526.8 893.4 528.5L890.8 605.7C890.7 607.3 889.4 608.6 887.8 608.6Z" fill="#2D2D2B"/>
<path d="M806.6 749.2C807.1 708.1 808.5 667.1 810.4 626C810.6 622.4 813.5 619.4 817.1 619.2C867.8 616.6 918.7 618.1 969.2 623.7C972.2 624 974.6 626.2 975.3 629.1C977.9 639.6 978.3 651 978 661.8C977.3 689.9 976.6 718 975.8 746.2C975.8 747.9 975.7 749.6 975.3 751.3C974.6 754.6 971.7 756.9 968.3 756.9L813.5 756.5C809.8 756.4 806.6 753.2 806.6 749.2Z" fill="#2D2D2B"/>
<path d="M968.3 759.9L813.5 759.5C808 759.4 803.6 754.7 803.6 749.2C804.1 711.7 805.3 671.4 807.4 625.9C807.7 620.8 811.9 616.5 816.9 616.2C867.7 613.6 919 615.1 969.5 620.7C973.7 621.1 977.2 624.2 978.2 628.4C980.5 637.6 981.4 648.2 981 661.9C980.3 689.5 979.6 718.1 978.8 746.3C978.8 748.5 978.6 750.3 978.2 752C977.2 756.6 973.2 759.9 968.3 759.9ZM809.6 749.2C809.6 751.5 811.4 753.4 813.6 753.5L968.3 753.9C970.3 753.9 972 752.6 972.4 750.7C972.7 749.4 972.8 748 972.8 746.2C973.6 717.9 974.3 689.4 975 661.7C975.4 648.6 974.5 638.4 972.4 629.8C972 628.1 970.6 626.8 968.9 626.7C918.7 621.1 867.7 619.6 817.3 622.2C815.3 622.3 813.6 624.1 813.4 626.2C811.3 671.6 810.1 711.8 809.6 749.2Z" fill="#2D2D2B"/>
<path d="M237.8 278.4H176.3C163.4 278.4 152.9 267.9 152.9 255V179.4C152.9 166.5 163.4 156 176.3 156H237.8C250.7 156 261.2 166.5 261.2 179.4V255C261.2 267.9 250.7 278.4 237.8 278.4ZM176.3 162C166.7 162 158.9 169.8 158.9 179.4V255C158.9 264.6 166.7 272.4 176.3 272.4H237.8C247.4 272.4 255.2 264.6 255.2 255V179.4C255.2 169.8 247.4 162 237.8 162H176.3Z" fill="#EBEAEE"/>
<path d="M206.8 479.7C205.1 479.7 203.8 478.4 203.8 476.7V275.5C203.8 273.8 205.1 272.5 206.8 272.5C208.5 272.5 209.8 273.8 209.8 275.5V476.7C209.8 478.4 208.5 479.7 206.8 479.7Z" fill="#EBEAEE"/>
<path d="M194 247.5C192.4 247.5 191 246.2 191 244.5C190.8 235.2 190.7 225.9 190.6 216.6C190.5 207.4 190.4 198.2 190.2 189.1C190.2 188.3 190.5 187.5 191.1 186.9C191.7 186.3 192.4 186 193.2 186H208.6C215.7 186 222.3 189.8 225.8 196C229.1 201.9 229 208.8 225.6 214.4C225.6 214.4 225.6 214.5 225.5 214.5C225.3 214.8 225.2 214.9 225.1 215.2C225 215.3 225 215.5 224.9 215.6C219.5 223.4 209.2 223.1 200.9 222.9C199.6 222.9 198.4 222.8 197.2 222.8C197 222.8 196.9 222.8 196.7 222.8C196.8 230 196.9 237.1 197 244.3C197 246.1 195.7 247.5 194 247.5ZM197.2 217C198.4 217 199.7 217 201 217.1C208.5 217.3 216.2 217.5 219.8 212.5C220 212.1 220.2 211.7 220.4 211.5C222.7 207.7 222.7 203.2 220.5 199.2C218.1 194.9 213.5 192.2 208.6 192.2H196.2C196.3 200.4 196.4 208.5 196.5 216.7C196.5 216.8 196.5 217 196.5 217.1C196.8 217 197 217 197.2 217Z" fill="#EBEAEE"/>
<path d="M611.2 704.5C604.4 704.5 597.6 704.1 591.1 703.4C589.8 703.3 588.8 702.3 588.5 701C577.5 648.5 575.5 585.1 573.7 529.3C573.5 523.8 573.3 518.4 573.2 513C571.9 474.3 571.3 440.9 570.8 407.1C570.8 405.4 572.1 404.1 573.8 404.1C575.4 404.1 576.8 405.4 576.8 407.1C577.3 440.8 577.9 474.3 579.2 512.9C579.4 518.2 579.6 523.7 579.7 529.2C581.5 584.1 583.5 646.2 594 697.8C606.5 699 620 698.9 632.5 697.4C632.7 666 634.5 633.6 636.2 602.2C638.7 557.1 641.3 510.5 639.1 466.4C639 464.7 640.3 463.3 641.9 463.3C643.6 463.2 645 464.5 645 466.1C647.2 510.5 644.6 557.3 642.1 602.5C640.3 634.7 638.5 668 638.4 700C638.4 701.5 637.3 702.8 635.8 703C627.9 703.9 619.5 704.5 611.2 704.5Z" fill="#2D2D2B"/>
<path d="M741.7 260.2C716.9 257 692.3 252.2 668.1 245.9C667.9 244.6 667.1 243.5 666 242.8C665 241.9 663.7 241.5 662 242.1C655.1 244.4 648 246.2 640.8 247.4C638.4 247.8 637.5 249.5 637.6 251.3C636.3 255.4 634.7 259.2 632.7 262.9C630.7 260.2 628.7 257.5 626.7 254.8C625.9 253.7 624.8 253 623.6 252.7C619.3 250.2 614.5 247.9 609.4 249C605.9 249.7 602.8 251.8 601.1 254.8C575.3 257.7 552 273.2 539.8 296.3C538.7 298.3 539.3 300.2 540.5 301.5C542.3 305.5 544.2 309.5 546 313.5C549.1 322.6 552.2 331.7 555.3 340.8C556.6 344.6 561.1 344.6 563.2 342.5C565.8 340.2 568.5 338 571.1 335.7C570 356.8 569.9 378 570.8 399.1C570.9 400.7 571.6 401.8 572.6 402.5C572.9 403.4 573.6 404.2 574.7 404.8C594.7 414.5 616.9 415.1 638.7 414.2C662.9 413.2 687 410.8 710.9 406.9C714 406.4 714.7 403.6 713.7 401.2C717.8 382.6 706.8 366 706.8 347.6C706.8 329.2 721.7 314.7 726 297.4C726.2 296.6 726.2 295.8 726 295.1C729.3 285.3 734.5 276.6 741.6 269.1C747.4 269.9 747.4 261 741.7 260.2Z" fill="#EBE7DF"/>
<path d="M801.1 766.2C800.3 766.2 799.5 765.9 799 765.3C798.4 764.7 798.1 764 798.1 763.2L801 361.9C801 353.8 797.9 346.1 792.2 340.4L777.4 325.6C776.2 324.4 776.2 322.5 777.4 321.4C778.6 320.2 780.5 320.2 781.6 321.4L796.4 336.2C803.2 343 807 352.2 807 361.9L804.1 760.2L966.8 759C968.4 759 969.8 760.3 969.8 762C969.8 763.7 968.5 765 966.8 765L801.1 766.2Z" fill="#2D2D2B"/>
<path d="M663.6 173.8C664.6 172 665.4 170.2 666.1 168.2C647.8 157.9 628.8 148.8 609.2 141.1C608.1 139.5 607 137.8 606 136.2C605.7 136.2 605.3 136.2 605 136.1C602.6 149.6 596.2 162 591.8 174.9C587.4 187.8 585 199.5 590.5 212C595.7 223.7 608.3 230.6 609.5 248.1C609.5 248.6 611.2 249.1 611.9 248.9C619.9 246.8 629.4 253 631.6 260.6C632.5 255.5 638.8 248.4 643.3 246C647.9 243.6 656.1 241.6 656.1 241.6C656.1 241.6 655.5 215.3 662.8 204.8C665.4 201.1 668.8 198.1 671.6 194.6C674.4 191.1 676.5 186.6 675.7 182.1C674.9 176.8 669 172.7 663.6 173.8Z" fill="#E2BEAA"/>
<path d="M631.6 263.6C630.3 263.6 629.1 262.7 628.7 261.4C626.9 255 618.8 250.2 612.6 251.8C611.1 252.2 609 251.7 607.8 250.8C607 250.2 606.4 249.2 606.4 248.2C605.7 238 600.8 231.8 595.7 225.3C592.7 221.6 589.7 217.7 587.7 213.1C582 200.1 584.1 188 588.9 173.8C590.4 169.5 592.1 165.1 593.8 160.9C597.1 152.7 600.5 144.1 602 135.4C602.2 134.5 602.7 133.8 603.4 133.3C604.1 132.9 604.9 132.8 605.7 133C605.8 133 605.9 133 605.9 133C606.9 133 607.9 133.5 608.4 134.4C609.3 135.9 610.2 137.2 611 138.4C630.1 145.9 649 155 667.4 165.3C668.7 166 669.2 167.5 668.8 168.9C668.6 169.5 668.4 170.1 668.1 170.7C669.8 171.1 671.5 171.8 673 172.9C676 175 678 178.1 678.5 181.4C679.3 186.1 677.7 191.4 673.8 196.2C672.5 197.8 671.2 199.2 669.9 200.6C668.2 202.5 666.5 204.2 665.1 206.2C659.6 214.1 658.8 234.2 658.9 241.2C658.9 242.6 658 243.8 656.6 244.2C656.5 244.2 648.7 246.1 644.5 248.3C640.7 250.3 635.1 256.7 634.4 260.8C634.2 262.2 633 263.2 631.6 263.3C631.7 263.6 631.7 263.6 631.6 263.6ZM615.1 245.5C621.2 245.5 627.5 248.8 631.4 253.7C634.2 249.4 638.4 245.2 641.9 243.3C645.3 241.5 650.2 240 653.1 239.2C653.1 232.3 653.8 212.3 660.3 203C661.9 200.7 663.8 198.7 665.6 196.7C666.9 195.3 668.1 194 669.2 192.6C670.8 190.6 673.4 186.6 672.7 182.5C672.4 180.7 671.3 179.1 669.7 177.9C668 176.7 666 176.2 664.2 176.6C663.1 176.8 661.9 176.4 661.2 175.4C660.5 174.5 660.4 173.2 661 172.2C661.5 171.3 662 170.4 662.4 169.4C644.7 159.6 626.5 150.9 608.1 143.7C607.5 143.5 607.1 143.1 606.7 142.6L606.6 142.5C604.7 149.6 602 156.5 599.4 163.1C597.8 167.2 596.1 171.5 594.6 175.7C590.1 188.9 588.3 199.4 593.2 210.6C594.9 214.5 597.6 217.9 600.5 221.5C605.4 227.7 610.9 234.7 612.3 245.6C613.2 245.6 614.2 245.5 615.1 245.5ZM611.2 246H611.1C611.1 246 611.1 246 611.2 246Z" fill="#E2BEAA"/>
<path d="M679.9 179.3C679.4 179.3 678.8 179.2 678.3 178.9C657.1 165.9 634.8 154.6 611.9 145.4C608.8 144.2 606.2 142 604.4 139.3C602.5 136.3 600.2 132.8 597.5 129.6C593.9 125.5 588.4 123.2 583 123.4C577.6 123.7 572.2 126.5 569.1 130.9C567.6 132.9 566.7 135.9 567.8 137.5C568.4 138.4 570 139.1 571.3 139.7C574.1 140.9 576.9 142.2 579.8 143.5C582.6 144.8 585.5 146 588.3 147.3C589.8 148 590.5 149.7 589.8 151.3C589.1 152.8 587.4 153.5 585.8 152.8C582.9 151.5 580.1 150.3 577.2 149C574.4 147.7 571.5 146.5 568.7 145.2C566.7 144.3 564.3 143.2 562.8 141C559.6 136.6 561.5 130.9 564.1 127.4C568.3 121.6 575.4 117.8 582.6 117.5C589.9 117.2 597.1 120.2 601.9 125.7C604.9 129.2 607.4 132.9 609.4 136.1C610.5 137.8 612.1 139.1 614.1 139.9C637.3 149.2 660 160.6 681.5 173.8C682.9 174.7 683.4 176.5 682.5 177.9C681.9 178.8 680.9 179.3 679.9 179.3Z" fill="#2D2D2B"/>
<path d="M636.2 154C634.5 154 633.2 152.6 633.2 150.9C633.5 140.9 625.4 132.2 617.3 128.2C610.4 124.7 599.8 124.3 590.5 123.9C587.7 123.8 585 123.7 582.6 123.5C580.9 123.4 579.7 121.9 579.8 120.3C579.9 118.6 581.4 117.4 583 117.5C585.4 117.7 588 117.8 590.7 117.9C600.6 118.3 611.9 118.7 620 122.8C631.9 128.8 639.5 139.9 639.1 151.1C639.2 152.7 637.8 154 636.2 154Z" fill="#2D2D2B"/>
<path d="M679.5 179.1C679.1 179.1 678.7 179 678.4 178.9C676.9 178.3 676.1 176.5 676.7 175C685.5 153.3 682.5 136.2 668.1 125.5C647.4 110.3 629.7 110.2 614.2 125.2C613 126.4 611.1 126.3 610 125.1C608.8 123.9 608.9 122 610.1 120.9C627.9 103.7 648.6 103.6 671.8 120.6C688.4 132.9 692.2 152.9 682.4 177.1C681.8 178.4 680.7 179.1 679.5 179.1Z" fill="#2D2D2B"/>
<path d="M681 178.1C683.2 181.6 683.5 188 683.7 191.7C683.8 193.5 683.6 195.7 682 196.7C680.8 197.4 679.3 197.1 677.9 197.3C675.5 197.7 673.7 199.8 672.5 202C671.3 204.2 670.4 206.6 668.7 208.3C667 210.1 664.1 211.1 662 209.7C661.8 209.2 661.6 208.7 661.4 208.3C660.6 206.5 660.5 203.7 661.7 202.2C663 200.5 664.8 200.1 666.7 199.2C668.5 198.3 669.8 197.3 671.2 195.7C674.2 192.3 676.1 187.9 676.4 183.4C676.6 179.9 675 177.2 672 175.5C671.2 175 665.4 172.9 662.5 174.5C662.5 174.5 664.5 170.9 665.8 169.1C668.3 170.5 670.9 171.9 673.4 173.4C675.4 174.5 678.6 175.6 680.2 177.3C680.6 177.5 680.8 177.8 681 178.1Z" fill="#2D2D2B"/>
<path d="M664.3 213.4C663 213.4 661.6 213 660.4 212.2C659.9 211.9 659.5 211.4 659.3 210.8C659.1 210.4 659 210 658.8 209.6C658.8 209.6 658.8 209.5 658.7 209.5C657.5 206.8 657.4 202.8 659.4 200.3C660.8 198.4 662.7 197.6 664.3 197C664.7 196.8 665.1 196.7 665.5 196.5C666.9 195.8 667.9 195 669 193.7C671.6 190.8 673.2 186.9 673.5 183.2C673.6 181 672.7 179.3 670.6 178.1C670.6 178.1 670.5 178.1 670.5 178C669.4 177.4 665.3 176.4 664 177.1C662.8 177.7 661.4 177.5 660.4 176.6C659.5 175.7 659.3 174.2 659.9 173C660 172.8 662 169.2 663.4 167.3C664.3 166.1 666 165.7 667.3 166.4C668 166.8 668.6 167.1 669.3 167.5C671.2 168.5 673.1 169.6 674.9 170.7C675.4 171 676 171.3 676.7 171.6C678.5 172.5 680.6 173.4 682.1 174.9C682.9 175.4 683.3 176 683.5 176.4C683.5 176.4 683.5 176.4 683.5 176.5C686.1 180.6 686.4 187.3 686.6 191.3V191.5C686.8 195.2 685.8 197.8 683.5 199.2C682 200.1 680.4 200.1 679.3 200.2C678.9 200.2 678.5 200.2 678.2 200.3C677.2 200.5 676 201.6 675 203.5C674.7 204 674.4 204.6 674.2 205.1C673.3 206.9 672.3 208.8 670.7 210.5C669.2 212.1 666.7 213.4 664.3 213.4ZM664.1 207C664.2 207.1 664.2 207.2 664.3 207.3C665 207.3 665.9 206.9 666.5 206.2C667.5 205.2 668.2 203.8 668.9 202.4C669.1 201.9 669.4 201.5 669.6 201C669.1 201.3 668.6 201.6 668 201.9C667.5 202.2 667 202.4 666.5 202.6C665.2 203.1 664.5 203.4 664 204.1C663.7 204.4 663.7 206 664.1 207ZM679.4 181.8C679.4 182.4 679.5 183 679.4 183.6C679.1 187.6 677.8 191.5 675.6 194.9C676.2 194.7 676.8 194.5 677.4 194.4C678.1 194.3 678.7 194.3 679.2 194.3C679.6 194.3 680.1 194.3 680.4 194.2C680.5 194.1 680.8 193.5 680.7 191.9V191.7C680.6 189.1 680.3 184.8 679.4 181.8Z" fill="#2D2D2B"/>
<path d="M606.9 201.6C603.8 201.6 600.7 200.7 598.3 198.8C597 197.8 596.7 195.9 597.7 194.6C598.7 193.3 600.6 193 601.9 194C605.4 196.6 611.3 195.8 614.1 192.4C615.1 191.1 617 190.9 618.3 192C619.6 193 619.8 194.9 618.7 196.2C615.9 199.7 611.4 201.6 606.9 201.6Z" fill="#2D2D2B"/>
<path d="M613.8 273.6H613.7C612.8 273.6 612 273.1 611.5 272.5C608.6 268.8 605.2 264.5 601.8 260C600.2 257.9 599.8 255.4 600.9 252.9C602.2 249.7 605.8 247 609.3 246.5C611.4 246.1 613.4 246.6 615.1 247.1C621.2 248.7 625.7 250.6 629 253.1C629.6 253.6 630.1 254.3 630.1 255.1C630.1 255.9 630 256.7 629.5 257.3C626 261.6 621.4 267.2 616.1 272.7C615.4 273.3 614.6 273.6 613.8 273.6ZM610.8 252.3C610.6 252.3 610.5 252.3 610.3 252.3C610.2 252.3 610.2 252.3 610.1 252.3C608.7 252.5 606.8 253.8 606.3 255C606.1 255.5 606.1 255.8 606.5 256.2C609.1 259.6 611.7 262.9 614 265.9C617.2 262.4 620.1 259 622.5 256C620.1 254.7 617.1 253.6 613.4 252.7C612.5 252.5 611.5 252.3 610.8 252.3Z" fill="#2D2D2B"/>
<path d="M646.1 273.4C645.8 273.4 645.5 273.4 645.3 273.3C644 272.9 643.1 271.7 643.1 270.4C643.2 263.7 640.3 257.1 635.3 252.7C634.6 252.1 634.2 251.1 634.3 250.2C634.4 249.3 634.9 248.4 635.7 247.9C640.6 244.9 645.7 241.9 651.5 240.4C658.4 238.6 665.2 239.4 670 242.7C670.9 243.3 671.4 244.3 671.3 245.3C671.2 246.3 670.7 247.3 669.8 247.8C663.4 251.5 656.2 259.7 648.5 272.1C648.1 272.9 647.1 273.4 646.1 273.4ZM642.1 251C644.8 254.2 646.8 258 648 262C653 254.8 657.7 249.4 662.3 245.7C659.5 245.1 656.4 245.2 653.1 246.1C649.2 247.1 645.7 248.9 642.1 251Z" fill="#2D2D2B"/>
<path d="M632.5 267.9C631.7 267.9 630.9 267.6 630.3 267C628 264.6 625.1 259.3 624.1 256.4C623.6 254.8 624.4 253.1 626 252.6C627.6 252.1 629.3 252.9 629.8 254.5C630.2 255.6 630.9 257.1 631.7 258.6C632.7 255.9 633.7 252.7 634.3 249.9C634.6 248.3 636.2 247.2 637.8 247.5C639.4 247.8 640.5 249.4 640.2 251C639.2 256.3 636.9 262.1 635.2 266.1C634.8 267 634 267.7 633 267.9C632.9 267.9 632.7 267.9 632.5 267.9Z" fill="#2D2D2B"/>
<path d="M632.8 300.6C631.2 300.6 629.9 299.4 629.8 297.8C629.2 286.1 629 274.6 629.3 263.7C629.3 262.1 630.7 260.8 632.3 260.8H632.4C634.1 260.8 635.4 262.2 635.3 263.9C635 274.6 635.2 286 635.8 297.6C635.9 299.3 634.6 300.7 633 300.8C632.9 300.6 632.9 300.6 632.8 300.6Z" fill="#2D2D2B"/>
<path d="M670 303.4C669.1 303.4 668.2 303 667.6 302.2C667 301.4 666.8 300.2 667.2 299.3C667.2 299.2 667.2 299.2 667.3 299.1C666.1 300 665 301 664 302.2C662.9 303.4 661 303.6 659.8 302.5C658.6 301.4 658.4 299.5 659.5 298.3C662.8 294.5 667.3 291.6 672.1 290C673.2 289.6 674.4 290 675.2 290.8C676 291.6 676.2 292.9 675.8 294C675.4 295 675 295.9 674.7 296.9C675.8 296.8 676.8 296.6 677.9 296.5C679.5 296.3 681 297.5 681.2 299.2C681.4 300.8 680.2 302.3 678.5 302.5C677 302.7 675.6 302.8 674.2 303C672.9 303.2 671.6 303.3 670.3 303.5C670.2 303.4 670.1 303.4 670 303.4Z" fill="#2D2D2B"/>
<path d="M721.1 296.8C720.8 296.8 720.6 296.8 720.3 296.7C718.7 296.3 717.8 294.6 718.2 293C721 282.4 726.6 268 736.8 259.9C738.1 258.9 740 259.1 741 260.4C742 261.7 741.8 263.6 740.5 264.6C731.1 272.1 726.1 286.6 723.9 294.5C723.6 295.9 722.4 296.8 721.1 296.8Z" fill="#2D2D2B"/>
<path d="M799.7 288.5C797.4 283.8 792.7 280.8 788.1 278.4C775.9 272 762.6 267.5 749 265.2L731.3 291.2C734.5 292.2 737.2 292.9 740.4 293.9C739.2 293.5 734.3 296.9 733.1 297.5C730.5 298.8 727.8 300.2 725.3 301.6C722.6 303.1 714.4 310 706.7 315.9C698.7 322 697.4 328.3 697.1 333.4C696.9 338.4 697 342.4 697.9 347.5C698.6 351.6 699.7 355.8 702.6 358.8C706.8 363.1 713.6 363.5 719.6 363.6C722.7 363.7 726.6 363.2 727.7 360.2C728 359.2 728 358.2 727.9 357.2C727.9 357.2 728.1 351.9 727.7 345.9C735.2 346.3 742.6 341 745.9 334.3C755.3 330.7 764.6 326.9 774.1 323.4C794 316.1 801.5 311.3 802.7 304.5C803.7 297.4 802 293.2 799.7 288.5Z" fill="#E2BEAA"/>
<path d="M720.3 366.6C720 366.6 719.8 366.6 719.5 366.6C712.9 366.5 705.4 365.9 700.5 360.9C697 357.2 695.7 352.3 695 348C694 342.5 694 338.3 694.2 333.3C694.5 327.6 696.1 320.3 705 313.5C707.8 311.3 710.8 309 713.4 306.9C718.8 302.6 722.1 300 724 299C726.3 297.7 728.9 296.4 731.9 294.8C732 294.8 732.1 294.7 732.3 294.6C731.7 294.4 731.2 294.3 730.6 294.1C729.7 293.8 729 293.1 728.7 292.2C728.4 291.3 728.5 290.3 729.1 289.5L746.8 263.5C747.5 262.5 748.6 262 749.8 262.2C763.8 264.6 777.2 269.1 789.8 275.7C794.6 278.2 800 281.6 802.7 287.1C805.2 292.1 807.1 296.9 806 304.8V304.9C804.4 313.9 794.5 319.1 775.5 326.1C769.7 328.2 763.9 330.5 758.2 332.7C754.9 334 751.6 335.3 748.4 336.5C744.7 343.1 738.1 347.7 731.2 348.6C731.4 352.8 731.3 356.1 731.3 356.9C731.4 357.9 731.4 359.3 731 360.9C731 361 731 361 730.9 361.1C729.6 363.7 727.1 366.6 720.3 366.6ZM740.3 296.9C739.4 297.2 737.2 298.6 736.2 299.2C735.4 299.7 734.9 300 734.4 300.2C731.4 301.7 728.9 303 726.7 304.2C725.2 305 721.2 308.2 717 311.6C714.4 313.7 711.4 316.1 708.5 318.3C701.6 323.6 700.4 328.8 700.1 333.6C699.9 338.2 700 342 700.9 347C701.5 350.4 702.4 354.3 704.8 356.7C708.1 360.1 714 360.5 719.7 360.6C722.5 360.7 724.5 360.2 724.9 359.2C725 358.7 725 358.2 725 357.5C725 357.4 725 357.2 725 357.1C725 357 725.2 351.9 724.8 346.1C724.7 345.2 725.1 344.4 725.7 343.8C726.3 343.2 727.1 342.9 728 342.9C733.9 343.2 740.4 339 743.3 333C743.6 332.3 744.2 331.8 744.9 331.5C748.5 330.1 752.1 328.7 755.8 327.3C761.5 325.1 767.3 322.8 773.2 320.6C791.7 313.8 798.9 309.3 799.9 304C800.8 297.8 799.3 294.2 797.2 289.8C795.2 285.8 790.9 283.1 786.9 281C775.4 275 763.2 270.8 750.6 268.4L736.3 289.4C736.5 289.5 736.7 289.5 736.9 289.6C738.4 290 739.9 290.5 741.5 291H741.6C743.2 291.5 744 293.2 743.5 294.8C742.8 296.1 741.6 297 740.3 296.9Z" fill="#E2BEAA"/>
<path d="M731.3 299.6C730.3 299.6 729.2 299.1 728.7 298.1C727.9 296.7 728.4 294.8 729.8 294C734.7 291.2 740 289.3 745.6 288.4C747.2 288.1 748.8 289.2 749.1 290.8C749.4 292.4 748.3 294 746.7 294.3C741.9 295.1 737.2 296.8 732.9 299.3C732.3 299.5 731.8 299.6 731.3 299.6Z" fill="#2D2D2B"/>
<path d="M726.5 317.1C725.5 317.1 724.6 317 723.6 316.8C716.4 315.1 715.9 310.7 716 308.9C716.4 302.9 724.5 297.4 730.9 296.8C736 296.3 739.8 298.8 741.1 303.6C742.5 308.5 738.5 312.7 734.8 314.8C732 316.4 729.1 317.1 726.5 317.1ZM732.2 302.8C732 302.8 731.8 302.8 731.5 302.8C727 303.2 722.2 307.3 722 309.3C722 309.8 723.2 310.5 725 310.9C726.9 311.3 729.4 310.8 731.8 309.5C733.8 308.4 735.7 306.5 735.3 305.1C735 303.9 734.3 302.8 732.2 302.8Z" fill="#2D2D2B"/>
<path d="M746.6 338.7C745.2 338.7 744 337.7 743.7 336.3C742 328 737.8 320.3 731.8 314.6C730.6 313.5 730.6 311.6 731.7 310.4C732.8 309.2 734.7 309.2 735.9 310.3C742.8 316.9 747.6 325.7 749.6 335.2C749.9 336.8 748.9 338.4 747.3 338.7C747 338.7 746.8 338.7 746.6 338.7Z" fill="#2D2D2B"/>
<path d="M720 366.7C719.1 366.7 718.2 366.3 717.6 365.5C713.4 359.8 711.1 350.4 710.8 344.1C710.7 342.4 712 341 713.7 341C715.3 340.9 716.8 342.2 716.8 343.9C717.1 349.5 719.1 357.6 722.4 362.1C723.4 363.4 723.1 365.3 721.8 366.3C721.2 366.5 720.6 366.7 720 366.7Z" fill="#2D2D2B"/>
<path d="M708.7 364.7C707.7 364.7 706.8 364.2 706.2 363.3C702.2 357.2 700.2 349.9 700.5 342.8C700.6 341.1 702 339.9 703.6 339.9C705.3 340 706.5 341.4 706.5 343C706.2 348.9 707.9 354.9 711.2 359.9C712.1 361.3 711.7 363.1 710.3 364.1C709.8 364.5 709.3 364.7 708.7 364.7Z" fill="#2D2D2B"/>
<path d="M470.1 187.4C468.2 186.8 466.5 185.8 465.2 184.4C463.1 182.1 462.3 178.5 463.9 175.8C464.9 174.2 466.5 173.2 468.3 172.7C468.4 172.7 468.5 172.6 468.6 172.6" fill="#E2BEAA"/>
<path d="M470.1 190.4C469.8 190.4 469.5 190.4 469.2 190.3C466.7 189.5 464.6 188.2 463 186.5C459.8 183 459.1 178 461.3 174.3C462.7 172.1 464.7 170.6 467.4 169.9C467.7 169.8 468.1 169.7 468.6 169.7C470.3 169.7 471.6 171 471.6 172.7C471.6 174 470.7 175.2 469.5 175.6C469.4 175.7 469.2 175.7 468.9 175.8C468.1 176 467 176.6 466.4 177.6C465.6 178.9 466 181.1 467.4 182.6C468.3 183.5 469.5 184.3 471 184.8C472.6 185.3 473.5 187 473 188.6C472.6 189.6 471.4 190.4 470.1 190.4Z" fill="#E2BEAA"/>
<path d="M469.5 192.3C466.6 192.5 463.6 193.1 461.4 194.9C459.1 196.7 457.9 200 459 202.6C459.9 204.7 462.1 205.9 464.2 206.8C466.3 207.7 470.5 209.4 470.5 209.4" fill="#E2BEAA"/>
<path d="M470.5 212.4C470.1 212.4 469.7 212.3 469.4 212.2C469.2 212.1 465.1 210.5 463 209.6C460.5 208.5 457.6 206.9 456.2 203.8C454.6 200 456 195.3 459.5 192.6C462.6 190.1 466.5 189.6 469.2 189.4C470.9 189.3 472.3 190.5 472.4 192.2C472.5 193.9 471.3 195.3 469.6 195.4C466.6 195.6 464.5 196.2 463.2 197.3C461.8 198.4 461.1 200.3 461.7 201.5C462.2 202.7 463.9 203.5 465.3 204.1C467.3 205 471.5 206.7 471.5 206.7C473 207.3 473.8 209.1 473.2 210.6C472.8 211.7 471.7 212.4 470.5 212.4Z" fill="#E2BEAA"/>
<path d="M511.1 217.6H477.6C471.4 217.6 466.3 212.5 466.3 206.3V126.6C466.3 120.4 471.4 115.3 477.6 115.3H511.1C517.3 115.3 522.4 120.4 522.4 126.6V206.3C522.4 212.5 517.3 217.6 511.1 217.6ZM477.6 121.3C474.7 121.3 472.3 123.7 472.3 126.6V206.3C472.3 209.2 474.7 211.6 477.6 211.6H511.1C514 211.6 516.4 209.2 516.4 206.3V126.6C516.4 123.7 514 121.3 511.1 121.3H477.6Z" fill="#2D2D2B"/>
<path d="M497.4 128.7H491.3C489.6 128.7 488.3 127.4 488.3 125.7C488.3 124 489.6 122.7 491.3 122.7H497.4C499.1 122.7 500.4 124 500.4 125.7C500.4 127.4 499.1 128.7 497.4 128.7Z" fill="#2D2D2B"/>
<path d="M647.6 469.3C647.5 469.3 647.5 469.3 647.4 469.3C644.8 469.1 642.3 468.8 639.7 468.6L639 468.5C637.4 468.3 636.2 466.8 636.3 465.2C636.5 463.6 638 462.4 639.6 462.5L640.3 462.6C642.8 462.9 645.3 463.1 647.8 463.3C649.5 463.4 650.7 464.9 650.6 466.5C650.5 468.1 649.2 469.3 647.6 469.3Z" fill="#2D2D2B"/>
<path d="M580.5 450.5C580.1 450.5 579.8 450.4 579.4 450.3C577.9 449.7 577.1 448 577.7 446.4C581.4 436.9 584.2 427 586 417C586.3 415.4 587.9 414.3 589.5 414.6C591.1 414.9 592.2 416.5 591.9 418.1C590 428.5 587.1 438.7 583.2 448.5C582.8 449.8 581.7 450.5 580.5 450.5Z" fill="#2D2D2B"/>
<path d="M708.6 450.6C707.5 450.6 706.5 450 706 449.1C700.6 439.3 697.6 428.2 697.5 417C697.5 415.3 698.8 414 700.5 414C702.1 414 703.5 415.3 703.5 417C703.6 427.3 706.3 437.4 711.2 446.3C712 447.7 711.5 449.6 710 450.4C709.6 450.5 709.1 450.6 708.6 450.6Z" fill="#2D2D2B"/>
<path d="M633.8 765.3H581.9C580.2 765.3 578.9 764 578.9 762.3C578.9 760.6 580.2 759.3 581.9 759.3H633.8C635.5 759.3 636.8 760.6 636.8 762.3C636.8 764 635.5 765.3 633.8 765.3Z" fill="#2D2D2B"/>
<path d="M608.6 758.6C601.1 758.6 593.5 758.3 585.5 757.8C585.4 757.8 585.4 757.8 585.3 757.8C584.4 757.7 582.9 757.5 581.7 756.3C581.5 756.1 581.4 755.9 581.2 755.7C580.7 754.8 580.4 753.7 580.4 752.5C580.3 744.3 582.9 736.7 587.8 731.2C588.6 730.3 589.4 729.5 590.3 728.7C590 728.2 589.8 727.7 589.7 727.1C589.6 725.6 588.9 724.1 588.1 722.5L587.9 722C586.7 719.7 585.6 716.9 586 713.9C586.5 709.9 589.8 706.8 593.4 706.8C602.7 706.8 612.3 707 620.9 707.2C624.6 707.3 628.7 707.4 632.2 709.7C634.5 711.2 636.3 713.8 636.8 716.5C637.1 718.4 636.9 720.2 636.1 721.7C636 727 635.4 732.4 634.9 737.7C634.3 743.4 633.7 749.3 633.7 755C633.7 756.6 632.5 757.9 630.9 758C623.4 758.3 616.1 758.6 608.6 758.6ZM586.4 751.8C600.8 752.7 614.3 752.8 627.5 752C627.7 747 628.2 741.9 628.7 736.9C629.3 731.5 629.8 725.9 629.9 720.6C629.9 720 630.1 719.4 630.5 718.9C630.8 718.5 630.8 718.1 630.7 717.5C630.5 716.4 629.7 715.3 628.8 714.6C626.7 713.3 623.8 713.2 620.7 713.1C611.8 712.9 602.6 712.7 593.4 712.7C592.9 712.7 592.1 713.6 592 714.6C591.8 716 592.6 717.8 593.3 719.3L593.5 719.8C594.3 721.4 595.2 723.2 595.6 725.2C599.9 723.1 604.6 722.3 609.2 723C617.6 724.3 624.5 731.1 625.7 739C625.9 740.6 624.8 742.2 623.2 742.4C621.6 742.6 620 741.5 619.8 739.9C619 734.5 614.2 729.9 608.3 728.9C602.7 728 596.6 730.4 592.4 735.1C588.5 739.3 586.4 745.3 586.4 751.8Z" fill="#2D2D2B"/>
<path d="M614.9 727.9C614.7 727.9 614.5 727.9 614.3 727.8C612.7 727.4 611.7 725.8 612 724.2C613 719.7 615 715.3 617.9 711.2C616.7 711.1 615.4 711.1 614.2 711C610.6 710.8 606.8 710.6 603.7 710.6C603.8 714.8 604 718.9 604.1 723.3V724C604.2 725.7 602.9 727.1 601.2 727.1C599.5 727.2 598.1 725.9 598.1 724.2V723.5C597.9 718.7 597.7 714.2 597.6 709.5C597.6 708.7 597.6 706.6 599.5 705.3L599.6 705.2C600.8 704.5 602.1 704.5 602.9 704.5C606.3 704.4 610.4 704.7 614.3 704.9C617.8 705.1 621.1 705.2 623.9 705.2C625.1 705.2 626.2 705.9 626.6 707C627.1 708.1 626.9 709.4 626.1 710.2C621.7 715 618.9 720.1 617.7 725.3C617.5 726.9 616.3 727.9 614.9 727.9Z" fill="#2D2D2B"/>
<path d="M600.2 723.4C599 723.4 597.9 722.7 597.4 721.5C596.8 720 597.6 718.2 599.1 717.6C605.7 715.1 613.3 714.9 620 717.3C621.6 717.8 622.4 719.6 621.8 721.1C621.3 722.7 619.5 723.5 618 722.9C612.7 721 606.6 721.1 601.3 723.2C600.9 723.3 600.6 723.4 600.2 723.4Z" fill="#2D2D2B"/>
<path d="M505 707.9C503.9 707.9 502.8 707.3 502.3 706.1L495.7 691.7C495 690.2 495.7 688.4 497.2 687.7C498.7 687 500.5 687.7 501.2 689.2L507.8 703.6C508.5 705.1 507.8 706.9 506.3 707.6C505.8 707.8 505.4 707.9 505 707.9Z" fill="#2D2D2B"/>
<path d="M546.1 760.9C545.5 760.9 545 760.7 544.5 760.4C529.1 750.2 516.5 735.3 509 718.4C508.3 716.9 509 715.1 510.5 714.4C512 713.7 513.8 714.4 514.5 715.9C521.5 731.8 533.4 745.8 547.8 755.3C549.2 756.2 549.6 758.1 548.7 759.5C548 760.4 547.1 760.9 546.1 760.9Z" fill="#2D2D2B"/>
<path d="M550.5 756.3C549.8 756.3 549.2 756.1 548.6 755.6C526.2 737.6 509.7 712.3 502.1 684.3C501.8 683.3 502.1 682.3 502.7 681.5C507.6 676 515.6 668.2 525.7 662.8C527.8 661.7 530.5 660.6 533.3 661.4C536 662.2 537.7 664.3 538.9 666C542.4 670.7 545.5 676 548.2 681.8C549.1 681.6 550.1 681.5 551.1 681.6C553.8 681.8 556.5 683.1 558.2 685.2C560.8 688.3 561.6 693 560.3 697.7C559.4 701.2 557.4 704.1 555.5 706.9V714.1C555.5 714.6 555.4 715 555.2 715.4C561.1 719.4 564.6 727.1 563.8 735C563.2 741.5 559.5 748.2 552.6 755.4C552.1 756 551.3 756.3 550.5 756.3ZM528 725.1C534.4 734 541.8 742.1 550.2 749.1C554.9 743.7 557.4 738.9 557.9 734.3C558.5 728.1 555.4 721.8 550.6 719.5C547.4 718 543.3 717.9 539 719.3C535.3 720.5 531.8 722.7 528 725.1ZM508.3 684.4C511.9 697.1 517.5 709.2 524.6 720.2C528.8 717.4 532.7 715 537.1 713.6C541.4 712.3 545.7 712 549.5 712.9V705.9C549.5 705.3 549.7 704.7 550 704.2C551.9 701.4 553.7 698.8 554.5 696C555.1 693.8 555.2 690.8 553.6 688.9C552.9 688.1 551.8 687.5 550.7 687.5C550.1 687.5 549.3 687.5 548.7 688.1C548 688.7 547 689 546.1 688.8C545.2 688.6 544.4 688 544 687.1C541.2 680.7 537.8 674.8 534 669.6L533.9 669.5C533 668.2 532.3 667.5 531.6 667.3C530.7 667.1 529.1 667.9 528.5 668.3C520 672.8 513 679.3 508.3 684.4Z" fill="#2D2D2B"/>
<path d="M538.9 713.4C537.5 713.4 536.3 712.5 536 711.1C533.6 701.4 536 690.3 542.1 682.3C543.1 681 545 680.7 546.3 681.7C547.6 682.7 547.9 684.6 546.9 685.9C541.8 692.5 539.9 701.6 541.8 709.7C542.2 711.3 541.2 712.9 539.6 713.3C539.4 713.4 539.1 713.4 538.9 713.4Z" fill="#2D2D2B"/>
<path d="M518.6 695.6C518 695.6 517.3 695.4 516.8 695C515.5 694 515.2 692.1 516.3 690.8C520.2 685.8 521.9 679 520.8 672.7C520.5 671.1 521.6 669.5 523.3 669.2C524.9 668.9 526.5 670 526.8 671.7C528.1 679.6 526 688.1 521.1 694.4C520.4 695.2 519.5 695.6 518.6 695.6Z" fill="#2D2D2B"/>
<path d="M551.1 712.3C550.1 712.3 549.1 711.8 548.6 710.9C546.9 708.3 545.2 705.8 542.9 704.1C542.5 703.8 542 703.5 541.5 703.1C540.5 702.5 539.4 701.8 538.5 700.8C536.2 698.5 535.4 695.5 536.3 693C537.3 690.3 540.2 688.5 543.3 688.7C545.9 688.9 548 690.1 549.4 691.2C553.5 694.1 556.5 698.6 557.6 703.5C558 705.1 557 706.7 555.4 707.1C554.5 707.3 553.6 707.1 553 706.6C553.2 706.9 553.5 707.3 553.7 707.6C554.6 709 554.2 710.8 552.8 711.7C552.2 712.1 551.7 712.3 551.1 712.3ZM542.8 694.7C542.4 694.7 542 694.9 541.9 695.2C541.9 695.3 542.1 696 542.7 696.6C543.2 697.1 544 697.6 544.8 698.1C545.4 698.5 546 698.9 546.5 699.3C548.6 700.9 550.3 702.8 551.8 704.9C551 701.4 548.8 698.1 545.9 696C545.9 696 545.8 696 545.8 695.9C544.8 695.2 543.7 694.7 542.8 694.7C542.9 694.7 542.9 694.7 542.8 694.7Z" fill="#2D2D2B"/>
<path d="M537.4 668.1C536.5 668.1 535.6 667.7 535 666.9C534 665.6 534.2 663.7 535.6 662.7L536.2 662.2C539.8 659.4 543.4 656.7 546.9 654C548.2 653 550.1 653.3 551.1 654.6C552.1 655.9 551.8 657.8 550.5 658.8C547 661.5 543.4 664.2 539.8 666.9L539.2 667.4C538.7 667.9 538 668.1 537.4 668.1Z" fill="#2D2D2B"/>
<path d="M575.8 684.3C575 684.3 574.2 684 573.6 683.3C565.3 674.2 556.8 664.7 548.4 655.3C546.7 653.4 543.4 649.8 544.1 645.4C544.6 641.8 547.4 639.3 549.3 637.7C554.3 633.5 559.2 629.4 564.1 625.3C569 621.1 574 617 578.9 612.8C580.2 611.7 582.1 611.9 583.1 613.2C584.2 614.5 584 616.4 582.7 617.4C577.8 621.5 572.8 625.7 567.9 629.8C563 634 558 638.1 553.1 642.3C551.6 643.6 550.1 644.9 549.9 646.2C549.7 647.7 551.2 649.6 552.7 651.3C561.1 660.7 569.6 670.2 577.9 679.3C579 680.5 578.9 682.4 577.7 683.5C577.2 684 576.5 684.3 575.8 684.3Z" fill="#2D2D2B"/>
<path d="M556.9 687.5C556.3 687.5 555.7 687.3 555.2 687C553.8 686.1 553.5 684.2 554.5 682.8C556.6 679.8 559.8 677.6 563.2 676.9C564.8 676.6 566.4 677.6 566.8 679.2C567.1 680.8 566.1 682.4 564.5 682.8C562.6 683.2 560.7 684.5 559.4 686.3C558.8 687.1 557.8 687.5 556.9 687.5Z" fill="#2D2D2B"/>
<path d="M651.8 548.8C650.3 548.8 649 547.7 648.8 546.1C646.1 521.7 641.7 468.1 641.7 467.5C641.6 465.8 642.8 464.4 644.4 464.3C646.1 464.2 647.5 465.4 647.6 467C647.6 467.5 652 521.1 654.7 545.4C654.9 547 653.7 548.5 652 548.7C652 548.8 651.9 548.8 651.8 548.8Z" fill="#2D2D2B"/>
<path d="M652.2 560.2C651.1 560.2 650 559.5 649.5 558.4C648.1 555.2 647.5 551.7 647.9 548.2C648.1 546.7 649.3 545.5 650.8 545.5C652.8 545.5 654.9 545.4 656.9 545.3C659 545.2 661 545.1 663.1 545.1C664.8 545 666.1 546.4 666.2 548C666.3 549.6 664.9 551 663.3 551.1C661.3 551.1 659.2 551.2 657.2 551.3C656.1 551.3 655 551.4 653.9 551.4C654 553 654.4 554.5 655.1 556C655.8 557.5 655.1 559.3 653.6 560C653 560.1 652.6 560.2 652.2 560.2Z" fill="#2D2D2B"/>
<path d="M642.1 557.1C641.4 557.1 640.6 556.8 640 556.3C638.8 555.2 638.8 553.3 639.9 552.1C641.3 550.7 643.1 549.3 644.8 547.9C646.6 546.5 648.4 545.1 649.5 543.8C650.6 542.6 652.5 542.5 653.7 543.6C654.9 544.7 655 546.6 653.9 547.8C652.4 549.5 650.4 551.1 648.4 552.6C646.8 553.9 645.2 555.1 644.1 556.2C643.7 556.8 642.9 557.1 642.1 557.1Z" fill="#2D2D2B"/>
<path d="M637.6 642.2C636.8 642.2 636 641.9 635.4 641.2C634.3 640 634.3 638.1 635.6 637C643 630.1 650.9 622.9 658.6 615.9C671.8 603.9 685.4 591.4 697.8 579.5C705.7 572 713 564.5 716.1 555.2C718.6 547.4 718.1 538.8 717.6 530.4C715.9 502.3 713.2 473.7 710.6 446C709.5 434.5 708.4 422.6 707.4 410.9C707.3 409.2 708.5 407.8 710.1 407.6C711.8 407.5 713.2 408.7 713.4 410.3C714.4 422 715.5 433.9 716.6 445.4C719.2 473.1 721.9 501.8 723.6 530C724.1 538.9 724.6 548.1 721.8 557C718.3 567.6 710.4 575.7 701.9 583.7C689.4 595.7 675.8 608.2 662.6 620.2C655 627.2 647.1 634.4 639.7 641.3C639.1 641.9 638.3 642.2 637.6 642.2Z" fill="#2D2D2B"/>
<path d="M764 768.7C741.9 768.7 723.9 750.7 723.9 728.6C723.9 706.5 741.9 688.5 764 688.5C786.1 688.5 804.1 706.5 804.1 728.6C804.1 750.7 786.1 768.7 764 768.7ZM764 694.5C745.2 694.5 729.9 709.8 729.9 728.6C729.9 747.4 745.2 762.7 764 762.7C782.8 762.7 798.1 747.4 798.1 728.6C798.1 709.8 782.8 694.5 764 694.5Z" fill="#2D2D2B"/>
<path d="M764.1 737.2C759.4 737.2 755.5 733.3 755.5 728.6C755.5 723.9 759.4 720 764.1 720C768.8 720 772.7 723.9 772.7 728.6C772.7 733.3 768.8 737.2 764.1 737.2ZM764.1 726C762.7 726 761.5 727.2 761.5 728.6C761.5 730 762.7 731.2 764.1 731.2C765.5 731.2 766.7 730 766.7 728.6C766.7 727.2 765.5 726 764.1 726Z" fill="#2D2D2B"/>
<path d="M754 721.2C753.6 721.2 753.2 721.1 752.7 720.9C749.6 719.5 746 719.2 742.9 720.1C741.3 720.6 739.6 719.7 739.2 718.1C738.7 716.5 739.6 714.8 741.2 714.4C745.7 713 750.8 713.4 755.2 715.4C756.7 716.1 757.4 717.9 756.7 719.4C756.2 720.6 755.1 721.2 754 721.2Z" fill="#2D2D2B"/>
<path d="M767.5 718.1C765.8 718.1 764.5 716.8 764.5 715.1C764.5 711.3 762.9 707.4 760.1 704.6C758.9 703.4 758.9 701.5 760.1 700.4C761.3 699.2 763.2 699.2 764.3 700.4C768.2 704.3 770.5 709.7 770.5 715.1C770.5 716.8 769.2 718.1 767.5 718.1Z" fill="#2D2D2B"/>
<path d="M778.4 725.6C777.5 725.6 776.7 725.2 776.1 724.5C775.1 723.2 775.3 721.3 776.6 720.3C779.1 718.3 780.8 715.2 781.3 712C781.5 710.4 783.1 709.2 784.7 709.5C786.3 709.7 787.5 711.3 787.2 712.9C786.5 717.6 784 722 780.3 725C779.7 725.4 779.1 725.6 778.4 725.6Z" fill="#2D2D2B"/>
<path d="M779.2 742.1C777.4 742.1 775.6 741.9 773.9 741.5C772.3 741.1 771.3 739.5 771.7 737.9C772.1 736.3 773.7 735.3 775.3 735.7C779.6 736.7 784.1 736 787.9 733.8C789.3 733 791.2 733.4 792 734.9C792.8 736.3 792.4 738.2 790.9 739C787.4 741.1 783.3 742.1 779.2 742.1Z" fill="#2D2D2B"/>
<path d="M769.6 757.3C769.2 757.3 768.9 757.2 768.5 757.1C762.3 754.6 758.2 748.3 758.4 741.6C758.5 739.9 759.8 738.7 761.5 738.7C763.2 738.8 764.4 740.2 764.4 741.8C764.2 745.9 766.9 750 770.7 751.5C772.2 752.1 773 753.9 772.4 755.4C771.9 756.6 770.8 757.3 769.6 757.3Z" fill="#2D2D2B"/>
<path d="M745.3 746.4C743.6 746.4 742.3 745 742.3 743.3C742.4 738.3 745 733.4 749.1 730.6C750.5 729.7 752.3 730 753.3 731.3C754.2 732.7 753.9 734.5 752.6 735.5C750.1 737.2 748.5 740.3 748.4 743.4C748.3 745.1 746.9 746.4 745.3 746.4Z" fill="#2D2D2B"/>
<path d="M914.3 653C913.3 653 912.3 652.8 911.4 652.3C910.6 651.9 910 651.4 909.4 650.9C909 650.6 908.6 650.2 908.3 650.1C907.6 649.8 906.5 650.2 905.3 650.5L904.7 650.7C900 652 895 652.2 890.2 651C889.7 650.9 889.3 650.8 888.8 650.7C887.8 650.5 886.9 650.3 886.1 650.3C885.2 650.4 884.7 650.7 884.6 650.8C883.9 652.1 882.4 652.8 881 652.3C878.9 651.6 877.5 650.3 876.2 649.2L876 649C875.4 648.4 875 647.6 875 646.7C875.2 637.2 875.3 627.5 875.4 618.1V617.5C875.4 616.7 875.7 615.9 876.3 615.4C876.9 614.8 877.7 614.5 878.5 614.6L917.3 616.2C918.9 616.3 920.1 617.5 920.2 619.1V620.3C920.6 629.8 921 639.6 919.2 649.2V649.3C918.9 650.7 917.9 651.8 916.5 652.4C915.8 652.8 915 653 914.3 653ZM907.8 644C908.7 644 909.6 644.1 910.5 644.5C911.7 644.9 912.5 645.6 913.2 646.2C913.3 646.3 913.5 646.4 913.6 646.5C914.9 638.5 914.6 630.5 914.3 622L881.4 620.6C881.3 628.8 881.2 637.1 881.1 645.4C881.2 645.5 881.3 645.6 881.4 645.7C882.6 644.9 884.2 644.3 885.9 644.2C887.4 644.1 888.9 644.5 890.2 644.8C890.6 644.9 891 645 891.5 645.1H891.6C895.4 646 899.5 645.9 903.2 644.8L903.8 644.6C904.9 644.4 906.3 644 907.8 644Z" fill="#2D2D2B"/>
<path d="M280.6 766.8C240.7 766.8 208.2 734.3 208.2 694.4C208.2 654.5 240.7 622 280.6 622C320.5 622 353 654.5 353 694.4C353 734.3 320.5 766.8 280.6 766.8ZM280.6 628C244 628 214.2 657.8 214.2 694.4C214.2 731 244 760.8 280.6 760.8C317.2 760.8 347 731 347 694.4C347 657.8 317.2 628 280.6 628Z" fill="#EBEAEE"/>
<path d="M280.6 734.1C258.7 734.1 240.9 716.3 240.9 694.4C240.9 672.5 258.7 654.7 280.6 654.7C302.5 654.7 320.3 672.5 320.3 694.4C320.3 716.3 302.5 734.1 280.6 734.1ZM280.6 660.7C262 660.7 246.9 675.8 246.9 694.4C246.9 713 262 728.1 280.6 728.1C299.2 728.1 314.3 713 314.3 694.4C314.3 675.8 299.2 660.7 280.6 660.7Z" fill="#EBEAEE"/>
<path d="M363.1 712.2C362.9 712.2 362.7 712.2 362.5 712.1C360.9 711.8 359.8 710.2 360.1 708.6C360.9 704.1 361.3 699.5 361.3 694.4C361.3 649.8 325.1 613.6 280.5 613.6C235.9 613.6 199.7 649.8 199.7 694.4C199.7 699.4 200.1 704.2 200.9 708.6C201.2 710.2 200.1 711.8 198.5 712.1C196.9 712.4 195.3 711.3 195 709.7C194.1 704.9 193.6 699.7 193.6 694.3C193.6 646.4 232.5 607.5 280.4 607.5C328.3 607.5 367.2 646.4 367.2 694.3C367.2 699.8 366.8 704.8 365.8 709.7C365.8 711.2 364.5 712.2 363.1 712.2Z" fill="#EBEAEE"/>
<path d="M203.8 595.4C202.9 595.4 202 595 201.4 594.2C200.4 592.9 200.7 591 202 590C217.2 578.5 235.2 570.3 253.8 566.5C255.4 566.2 257 567.2 257.3 568.8C257.6 570.4 256.6 572 255 572.3C237.2 576 220.1 583.8 205.6 594.8C205.1 595.2 204.4 595.4 203.8 595.4Z" fill="#EBEAEE"/>
<path d="M407.6 683.1C406.1 683.1 404.8 682 404.6 680.4C401.2 649.4 386.2 620.9 362.5 600.2C351.5 590.7 339 583.2 325.6 577.9C318.6 575.2 311.6 573.2 304.8 571.9C303.2 571.6 302.1 570 302.4 568.4C302.7 566.8 304.3 565.7 305.9 566C313 567.4 320.3 569.5 327.7 572.2C341.8 577.7 354.8 585.5 366.4 595.5C391.3 617.2 406.9 647 410.5 679.5C410.7 681.1 409.5 682.6 407.8 682.8C407.8 683.1 407.7 683.1 407.6 683.1Z" fill="#EBEAEE"/>
<path d="M719.9 712.2H646.7C645 712.2 643.7 710.9 643.7 709.2C643.7 707.5 645 706.2 646.7 706.2H719.9C721.6 706.2 722.9 707.5 722.9 709.2C722.9 710.9 721.6 712.2 719.9 712.2Z" fill="#EBEAEE"/>
<path d="M152.4 713.2C131.1 713.2 119.9 709.8 112.2 690.2C108.4 680.6 108.2 669.8 108.5 660.6C108.9 646.4 110.5 631.8 113.1 617.1C114.5 609.7 117.4 599.6 126.2 596.6C134.4 593.9 142.7 599.3 147.2 602.2C167.9 615.7 189.3 629.8 210.5 643.7C211.9 644.6 212.3 646.5 211.4 647.9C210.5 649.3 208.6 649.7 207.2 648.8C186 634.9 164.6 620.9 143.9 607.3C138.9 604 133.1 600.7 128.1 602.3C122.3 604.3 120.1 612.3 119 618.2C116.4 632.6 114.8 646.9 114.5 660.8C114.2 669.9 114.4 679.4 117.8 688C125.8 708.3 136.7 707.9 169.1 706.8C177.5 706.5 187 706.2 198.2 706.2C199.9 706.2 201.2 707.5 201.2 709.2C201.2 710.9 199.9 712.2 198.2 712.2C187.2 712.2 177.7 712.5 169.3 712.8C163.1 713 157.4 713.2 152.4 713.2Z" fill="#EBEAEE"/>
<path d="M485.5 712.2H363.1C361.4 712.2 360.1 710.9 360.1 709.2C360.1 707.5 361.4 706.2 363.1 706.2H485.5C487.2 706.2 488.5 707.5 488.5 709.2C488.5 710.9 487.2 712.2 485.5 712.2Z" fill="#EBEAEE"/>
<path d="M340.3 495.6C340.2 495.6 340.1 495.6 340 495.6C334.3 495.4 327.6 494.8 322.3 494.4L319.1 494.2H319C314.6 493.8 311 490.3 310.6 485.9C309.9 478.5 308.6 464.6 308.5 456.3C308.3 446.8 308.9 432.9 315.8 421.3C321.8 411.2 332.3 404.6 342.6 404.5C346.6 404.5 350 407.5 350.5 411.4C353.3 436.6 352.9 462.2 349.4 487.5C348.9 492.2 345 495.6 340.3 495.6ZM319.6 488.2L322.8 488.4C328.1 488.8 334.8 489.3 340.3 489.6C342 489.6 343.4 488.5 343.6 486.8C347.1 462 347.5 436.9 344.7 412.2C344.6 411.3 343.7 410.6 342.8 410.6C334.7 410.7 325.9 416.2 321.1 424.4C316.4 432.2 314.4 442.3 314.6 456.2C314.7 464.3 316 478.5 316.7 485.3C316.7 486.8 318 488 319.6 488.2Z" fill="#EBEAEE"/>
<path d="M300 405.1C299.5 405.1 299 405 298.6 404.7C297.1 403.9 296.6 402.1 297.4 400.6C311.9 373.9 355.4 312.6 376.3 289.5C401.7 261.3 427.9 245.9 454.3 243.6C456 243.5 457.4 244.7 457.5 246.3C457.6 248 456.4 249.4 454.8 249.5C430 251.6 405.1 266.4 380.8 293.4C360.5 315.8 316.7 377.4 302.7 403.3C302.1 404.5 301.1 405.1 300 405.1Z" fill="#EBEAEE"/>
<path d="M128.4 599.5C127 599.5 125.7 598.5 125.5 597.1C119.9 567.7 128.8 535.7 148.7 513.5C158 503.1 170.1 494 186.8 484.6C196.9 478.9 207.3 473.1 217.3 467.5C235.2 457.6 253.7 447.3 271.5 436.7C272.9 435.9 274.8 436.3 275.6 437.7C276.4 439.1 276 441 274.6 441.8C256.7 452.5 238.2 462.7 220.2 472.7C210.2 478.3 199.8 484 189.7 489.7C173.6 498.7 162 507.5 153.2 517.4C134.5 538.2 126.2 568.2 131.4 595.8C131.7 597.4 130.6 599 129 599.3C128.8 599.5 128.6 599.5 128.4 599.5Z" fill="#EBEAEE"/>
<path d="M136.1 565.7C135.7 565.7 135.3 565.7 134.9 565.6C130.9 565.2 126.6 562.4 125.9 557.8C125.7 556.2 126.8 554.6 128.5 554.4C130.1 554.2 131.7 555.3 131.9 557C132.1 558.4 133.9 559.5 135.5 559.6C137.8 559.8 140.2 558.7 142.2 557.6C155 550.7 164.2 540.1 173.9 528.9C179.2 522.8 184.6 516.5 191 510.4C193.4 508.2 194 504.6 192.4 501.8C190 497.4 186.2 494.3 181.7 492.9C180.1 492.4 179.2 490.8 179.7 489.2C180.2 487.6 181.8 486.7 183.4 487.2C189.4 489 194.5 493.1 197.7 498.9C200.5 504 199.4 510.7 195.1 514.7C189 520.5 183.6 526.7 178.4 532.7C168.3 544.3 158.8 555.3 145 562.7C142.6 564.3 139.5 565.7 136.1 565.7Z" fill="#EBEAEE"/>
<path d="M410.6 473.4C390.6 473.4 370.6 472.7 350.7 471.2C349 471.1 347.8 469.6 347.9 468C348 466.3 349.4 465.1 351.1 465.2C401.3 468.9 452.2 467.9 502.1 462.2C509.7 461.4 518.1 460 522.7 454.4C526.2 450.2 527 444 527.4 438C528.9 420.6 529 402.7 527.8 384.7C527.7 383 528.9 381.6 530.6 381.5C532.3 381.4 533.7 382.6 533.8 384.3C535 402.5 534.9 420.8 533.4 438.5C532.9 445.5 531.9 452.7 527.3 458.3C521.3 465.7 511.5 467.3 502.7 468.3C472.3 471.6 441.4 473.4 410.6 473.4Z" fill="#EBEAEE"/>
<path d="M365.4 365.8C364.7 365.8 364 365.6 363.4 365C362.2 363.9 362 362 363.1 360.8C372.1 350.6 380.9 342.1 389.3 335.6C416.7 314.3 448.7 304.3 477 308.2C478.6 308.4 479.8 309.9 479.6 311.6C479.4 313.2 477.9 314.4 476.2 314.2C449.5 310.5 419.1 320.1 393 340.4C384.9 346.7 376.4 354.9 367.6 364.8C367.1 365.5 366.2 365.8 365.4 365.8Z" fill="#EBEAEE"/>
<path d="M418.8 298.8C417.7 298.8 416.7 298.2 416.2 297.3C415.4 295.9 415.9 294 417.4 293.2C434.8 283.6 455.2 279.6 474.9 281.9C476.5 282.1 477.7 283.6 477.5 285.2C477.3 286.8 475.8 288 474.2 287.8C455.8 285.6 436.6 289.3 420.3 298.3C419.8 298.7 419.3 298.8 418.8 298.8Z" fill="#EBEAEE"/>
<path d="M584.3 239.6H526.2C524.5 239.6 523.2 238.3 523.2 236.6C523.2 234.9 524.5 233.6 526.2 233.6H584.3C586 233.6 587.3 234.9 587.3 236.6C587.3 238.3 586 239.6 584.3 239.6Z" fill="#EBEAEE"/>
<path d="M1074.8 640.8C1073.1 640.8 1071.8 639.4 1071.8 637.7L1071.9 634C1073.7 546 1075.6 455 1070.5 365.8C1068.6 331.7 1064.4 293.3 1039.6 268.8C1015.2 244.7 975.9 239.7 947.3 239.7H682.8C681.1 239.7 679.8 238.4 679.8 236.7C679.8 235 681.1 233.7 682.8 233.7H947.3C977.1 233.7 1018 239.1 1043.8 264.6C1070.2 290.7 1074.5 330.4 1076.5 365.6C1081.6 455.1 1079.7 546.2 1077.9 634.3L1077.8 638C1077.8 639.5 1076.4 640.8 1074.8 640.8Z" fill="#EBEAEE"/>
<path d="M984.4 718.6C982.9 718.6 981.6 717.5 981.4 716C981.2 714.4 982.3 712.8 984 712.6C984.3 712.6 1014.5 708.5 1029.5 705.5C1042.3 703 1058.6 698.8 1070.7 688.4C1083.8 677.2 1087.2 662.4 1084.8 651.9C1056 649.5 1024.3 648.7 985.2 649.5C985.2 649.5 985.2 649.5 985.1 649.5C983.5 649.5 982.1 648.2 982.1 646.6C982.1 644.9 983.4 643.6 985 643.5C1025.2 642.7 1057.7 643.5 1087.3 646.1C1088.5 646.2 1089.5 647 1089.9 648.2C1095.2 665.4 1086 683.1 1074.5 693C1061.3 704.3 1044.1 708.8 1030.5 711.5C1015.3 714.5 984.9 718.6 984.6 718.6C984.7 718.6 984.5 718.6 984.4 718.6Z" fill="#EBEAEE"/>
<path d="M514.1 665.1H474.3C464.2 665.1 443.2 665.1 428.3 657.5C415.3 650.7 404.7 637.4 401.3 623.6C401.1 622.7 401.3 621.8 401.8 621C402.4 620.3 403.2 619.8 404.2 619.8H543.9C545.6 619.8 546.9 621.1 546.9 622.8C546.9 624.5 545.6 625.8 543.9 625.8H408.2C412.1 636.7 420.7 646.8 431.1 652.1C444.6 659.1 464.7 659.1 474.3 659.1H514.1C515.8 659.1 517.1 660.4 517.1 662.1C517.1 663.8 515.8 665.1 514.1 665.1Z" fill="#EBEAEE"/>
<path d="M794.7 625.8H667.7C666 625.8 664.7 624.5 664.7 622.8C664.7 621.1 666 619.8 667.7 619.8H794.7C796.4 619.8 797.7 621.1 797.7 622.8C797.7 624.5 796.4 625.8 794.7 625.8Z" fill="#EBEAEE"/>
<path d="M790.3 667.7H646.7C645 667.7 643.7 666.4 643.7 664.7C643.7 663 645 661.7 646.7 661.7H790.3C792 661.7 793.3 663 793.3 664.7C793.3 666.4 792 667.7 790.3 667.7Z" fill="#EBEAEE"/>
<path d="M1010.5 329.9H818.7C817 329.9 815.7 328.6 815.7 326.9C815.7 325.2 817 323.9 818.7 323.9H1010.5C1012.2 323.9 1013.5 325.2 1013.5 326.9C1013.5 328.6 1012.2 329.9 1010.5 329.9Z" fill="#EBEAEE"/>
<path d="M975.7 290.1H808.7C807 290.1 805.7 288.8 805.7 287.1C805.7 285.4 807 284.1 808.7 284.1H975.7C977.4 284.1 978.7 285.4 978.7 287.1C978.7 288.8 977.4 290.1 975.7 290.1Z" fill="#EBEAEE"/>
<path d="M782.6 455.6H749.4C747.7 455.6 746.4 454.3 746.4 452.6C746.4 450.9 747.7 449.6 749.4 449.6H782.6C784.3 449.6 785.6 450.9 785.6 452.6C785.6 454.3 784.3 455.6 782.6 455.6Z" fill="#EBEAEE"/>
<path d="M315.9 547.1C314.2 547.1 312.9 545.8 312.9 544.1V513.2C312.9 511.5 314.2 510.2 315.9 510.2C317.6 510.2 318.9 511.5 318.9 513.2V544.1C318.9 545.8 317.6 547.1 315.9 547.1Z" fill="#EBEAEE"/>
<path d="M408.7 580.1C408.2 580.1 407.7 580 407.3 579.7C405.8 578.9 405.3 577.1 406.1 575.6C416.8 555.5 432.1 537.8 450.4 524.4C451.6 523.5 453.2 523.6 454.2 524.6C455.2 525.6 455.5 527.2 454.7 528.4C449.1 537.3 445.4 547.3 443.7 557.6C451.3 557 462.8 556.6 476.1 556.6C477.8 556.6 479.1 557.9 479.1 559.6C479.1 561.3 477.8 562.6 476.1 562.6C460.6 562.6 447.6 563.1 440.5 563.9C439.6 564 438.7 563.7 438 563C437.4 562.4 437 561.5 437.1 560.5C437.9 552.8 439.9 545.2 442.8 538C430.1 549.4 419.3 563.1 411.2 578.3C410.8 579.5 409.8 580.1 408.7 580.1Z" fill="#EBEAEE"/>
<path d="M465.4 552.3C464.2 552.3 463 551.5 462.6 550.3C461.2 546.3 458.8 542.8 455.6 540.3C454.3 539.3 454.1 537.4 455.1 536.1C456.1 534.8 458 534.6 459.3 535.6C463.3 538.8 466.3 543.2 468.1 548.2C468.7 549.8 467.8 551.5 466.3 552C466.1 552.2 465.7 552.3 465.4 552.3Z" fill="#EBEAEE"/>
<path d="M413.2 554.3C413 554.3 412.7 554.3 412.4 554.2C410.8 553.8 409.8 552.1 410.2 550.5C412.6 541 419.7 533.6 429 530.5C430.6 530 432.3 530.8 432.8 532.4C433.3 534 432.5 535.7 430.9 536.2C423.5 538.6 418 544.5 416.1 552C415.8 553.4 414.5 554.3 413.2 554.3Z" fill="#EBEAEE"/>
<path d="M441.1 585.5C433.5 585.5 426.3 582.6 420.9 577.2C419.7 576 419.7 574.1 420.9 573C422.1 571.8 424 571.8 425.1 573C429.4 577.2 435.1 579.5 441.1 579.5C449 579.5 456.4 575.3 460.5 568.5C461.4 567.1 463.2 566.6 464.6 567.5C466 568.4 466.5 570.2 465.6 571.6C460.5 580.2 451.1 585.5 441.1 585.5Z" fill="#EBEAEE"/>
<path d="M520.9 503.5H482.6C480.9 503.5 479.6 502.2 479.6 500.5C479.6 498.8 480.9 497.5 482.6 497.5H520.9C522.6 497.5 523.9 498.8 523.9 500.5C523.9 502.2 522.6 503.5 520.9 503.5Z" fill="#EBEAEE"/>
<path d="M347.7 437H338.4C336.7 437 335.4 435.7 335.4 434C335.4 432.3 336.7 431 338.4 431H347.7C349.4 431 350.7 432.3 350.7 434C350.7 435.7 349.4 437 347.7 437Z" fill="#EBEAEE"/>
<path d="M260.3 526.4H252.6C250.9 526.4 249.6 525.1 249.6 523.4C249.6 521.7 250.9 520.4 252.6 520.4H260.3C262 520.4 263.3 521.7 263.3 523.4C263.3 525.1 262 526.4 260.3 526.4Z" fill="#EBEAEE"/>
<path d="M609.2 141.1C607.6 138.7 606.1 136.3 604.5 134L601.6 132.1C594.2 135.1 586.9 139.4 582.8 146.2C580.5 150 579.6 155.3 582.6 158.6C585 161.2 589 161.5 592.5 161.3C600.1 160.9 607.6 159.1 614.6 156C614.5 158.5 616.3 160.8 618.6 161.9C620.9 163 623.5 162.9 626 162.3C631.8 160.8 637.7 156.1 643.1 158.7C646.6 160.4 648.1 164.7 648.7 168.6C649.3 172.5 649.2 176.6 651 180.1C656 179 660.7 176 663.7 171.9L627.5 148.6C621.4 146.1 615.4 143.5 609.2 141.1Z" fill="#2D2D2B"/>
<path d="M651 183.1C649.9 183.1 648.9 182.5 648.3 181.5C646.7 178.4 646.4 175.2 646.1 172.1C646 171 645.9 170.1 645.7 169.1C645.3 166.8 644.4 162.7 641.8 161.4C639.3 160.2 636.2 161.5 632.6 163.1C630.7 163.9 628.8 164.7 626.8 165.2C623.2 166.1 620 165.9 617.4 164.6C615.3 163.6 613.6 162 612.7 160.1C606.3 162.5 599.6 164 592.8 164.3C590.7 164.4 584.4 164.8 580.5 160.6C576.4 156.1 577.5 149.3 580.3 144.6C584.1 138.3 590.7 133.2 600.5 129.3C601.4 128.9 602.4 129 603.3 129.6L606.2 131.5C606.5 131.7 606.8 132 607 132.3C608 133.8 609 135.3 610 136.8C610.4 137.4 610.8 138.1 611.2 138.7C615.1 140.2 618.9 141.8 622.6 143.4C624.6 144.2 626.6 145.1 628.7 145.9C628.9 146 629 146.1 629.2 146.2L665.4 169.5C666.1 169.9 666.6 170.7 666.7 171.5C666.9 172.3 666.7 173.2 666.2 173.8C662.8 178.5 657.5 181.9 651.7 183.2C651.4 183.1 651.2 183.1 651 183.1ZM651.6 167.7C651.6 167.9 651.7 168 651.7 168.2C651.9 169.3 652 170.4 652.1 171.5C652.3 173.3 652.5 174.9 652.9 176.5C655.2 175.6 657.4 174.3 659.2 172.6L651.6 167.7ZM614.6 153C615.2 153 615.8 153.2 616.3 153.5C617.2 154.1 617.7 155.1 617.6 156.1C617.6 157.2 618.5 158.5 619.9 159.2C621.3 159.9 623.1 159.9 625.3 159.4C626.8 159 628.5 158.3 630.2 157.6C631.3 157.1 632.5 156.6 633.7 156.2L626.1 151.3C624.1 150.5 622.2 149.7 620.3 148.9C616.3 147.2 612.2 145.5 608.1 143.9C607.5 143.7 607 143.3 606.7 142.8C606.1 141.9 605.5 141 604.9 140C604 138.7 603.2 137.4 602.4 136.2L601.3 135.5C593.5 138.8 588.3 142.9 585.4 147.8C583.7 150.5 582.9 154.5 584.9 156.6C586.2 158 588.6 158.5 592.4 158.3C599.7 157.9 606.8 156.2 613.5 153.3C613.8 153.1 614.2 153 614.6 153Z" fill="#2D2D2B"/>
<path d="M641 133C640.8 133 640.5 133 640.3 132.9C639.3 132.7 638.2 132.4 637.2 131.7C635.7 130.7 634.9 129 635 127.3C633.5 127.5 631.9 127.7 630.3 127.9C628.7 128.1 627.2 126.9 627 125.2C626.8 123.5 628 122.1 629.7 121.9C633.8 121.5 637.9 120.7 640.9 120C642.1 119.7 643.4 120.3 644.1 121.4C644.8 122.5 644.7 123.9 643.9 124.9C643.4 125.5 642.9 126 642.4 126.6C642.2 126.8 642.1 126.9 641.9 127.1C643.4 127.6 644.3 129.1 643.9 130.7C643.6 132.1 642.3 133 641 133Z" fill="#2D2D2B"/>
<path d="M538 303.8C534.5 308.7 531.4 311.2 526.7 314.9C524.5 297.6 518.2 231 516 212.9C515 204.7 508.4 197.7 501.9 192.5C500.9 191.7 499.9 191 498.7 190.6C497.5 190.2 496.1 190.3 495.2 191.1C493.8 192.2 493.7 194.3 493.9 196.1C494.7 202.7 497.6 208.8 500.5 214.8L483.8 214C480.4 211.9 476.2 211.5 472.2 212.1C468.3 212.8 464.6 214.5 461.2 216.7C460.2 217.3 459.3 218 458.6 219C457.6 220.6 457.6 222.6 458.1 224.4C459 227.8 461.4 230.8 464.4 232.7C462.5 235.4 463.4 239.3 465.7 241.6C468 243.9 471.3 244.7 474.5 245.2C475.5 249.6 478.4 253.8 482.8 254.9C483.5 280.5 483.9 329 488.1 351.4C489.4 358 495.9 366 502.2 369.1C508.1 372.1 519.8 370 525.6 367.4C537.6 361.9 545.3 355 555.2 343.2C548.5 330.8 541.9 317.5 538 303.8Z" fill="#E2BEAA"/>
<path d="M510 373.6C506.5 373.6 503.3 373.1 500.8 371.8C493.6 368.3 486.6 359.4 485.1 352C481.5 332.8 480.7 295.6 480.1 268.5C480 264.4 479.9 260.5 479.8 257C476.3 255.4 473.5 252 472.1 247.8C469.1 247.2 466 246.1 463.6 243.7C460.8 240.9 459.8 237 460.7 233.7C458 231.4 456.1 228.4 455.2 225.2C454.4 222.4 454.7 219.6 456.1 217.4L456.2 217.3C457.3 215.7 458.7 214.8 459.7 214.2C463.7 211.6 467.8 209.9 471.8 209.2C476.8 208.5 481.2 209.1 484.8 211.1L495.8 211.6C493.7 207 491.7 201.9 491.1 196.5C490.7 193 491.5 190.4 493.5 188.8C495.1 187.4 497.6 187 499.9 187.8C501.6 188.4 502.9 189.3 504 190.2C513.2 197.5 518.3 205.1 519.2 212.6C520.3 221.2 522.2 240.5 524.2 260.9C526.1 279.3 528 298.3 529.2 309.2C531.7 307.1 533.6 305.1 535.7 302.1C536.4 301.2 537.5 300.7 538.7 300.9C539.8 301.1 540.8 301.9 541.1 303C545 316.8 551.9 330.4 558.1 341.8C558.7 342.9 558.5 344.2 557.8 345.2C548.3 356.5 540.3 364.2 527.2 370.2C522.7 372 516.1 373.6 510 373.6ZM461.1 220.7C460.7 221.4 460.7 222.5 461 223.6C461.7 226.2 463.6 228.6 466 230.2C466.7 230.6 467.2 231.3 467.3 232.1C467.5 232.9 467.3 233.7 466.8 234.4C465.8 235.8 466.5 238.2 467.8 239.5C469.5 241.2 472.2 241.8 474.9 242.3C476.1 242.5 477.1 243.4 477.4 244.6C478.1 247.5 480.1 251.2 483.5 252.1C484.8 252.4 485.7 253.6 485.8 254.9C485.9 258.9 486 263.5 486.1 268.4C486.7 295.3 487.5 332.3 491 350.9C492.1 356.4 497.9 363.7 503.5 366.5C508.4 369 519.1 367.1 524.3 364.8C535.8 359.5 543.2 352.7 551.5 343C546.2 333.2 540.6 321.9 536.7 310.2C534.3 312.8 531.8 314.8 528.5 317.4C527.7 318.1 526.5 318.2 525.5 317.8C524.5 317.4 523.8 316.5 523.7 315.4C522.5 306.3 520.2 283.5 518 261.6C515.9 241.2 514 222 513 213.4C512.3 207.5 507.9 201.3 500 195C499.2 194.3 498.5 193.9 497.7 193.6C497.4 193.5 497.1 193.5 497.1 193.6C497 193.7 496.7 194.1 496.9 196C497.7 202.2 500.6 208.3 503.2 213.7C503.7 214.7 503.6 215.8 503 216.7C502.4 217.6 501.4 218.1 500.4 218L483.7 217.2C483.2 217.2 482.7 217 482.3 216.8C479.2 214.9 475.4 214.9 472.7 215.3C469.6 215.9 466.3 217.3 462.9 219.5C462.9 219.5 462.8 219.5 462.8 219.6C462 219.7 461.5 220.2 461.1 220.7Z" fill="#E2BEAA"/>
<path d="M497.9 250.4H497.2C495.5 250.4 494.2 249.1 494.2 247.4C494.2 245.7 495.5 244.4 497.2 244.4H497.9C499.6 244.4 500.9 245.7 500.9 247.4C500.9 249.1 499.6 250.4 497.9 250.4Z" fill="#2D2D2B"/>
<path d="M476 246.4C474.5 246.4 473.2 245.3 473 243.7C472.8 242.1 474 240.6 475.7 240.4C478.6 240.1 480.7 239.4 482 238.3C483.2 237.3 483.7 235.5 483.1 234.6C482.6 233.9 481.4 233.4 480.5 233C475.5 231.3 469.7 232 465.3 234.9C463.9 235.8 462.1 235.4 461.1 234C460.1 232.6 460.6 230.8 462 229.8C468 225.9 475.6 224.9 482.5 227.3C484.4 228 486.7 229.1 488.2 231.3C490.6 235.2 489 240.2 485.9 242.8C483.7 244.7 480.6 245.9 476.4 246.3C476.2 246.4 476.1 246.4 476 246.4Z" fill="#2D2D2B"/>
<path d="M483.3 233.6C482.8 233.6 482.4 233.5 481.9 233.3C480.4 232.5 479.9 230.7 480.6 229.3C481.7 227.1 482.8 225 482.5 223.1C482.2 221.1 480.4 219.1 477.9 218.3C475.1 217.4 471.9 217.4 468.7 217.5C467 217.5 465.7 216.2 465.6 214.6C465.6 212.9 466.9 211.6 468.5 211.5C472.1 211.4 476 211.4 479.7 212.7C484.3 214.2 487.7 218 488.3 222.3C488.9 226.2 487 229.8 485.8 232.1C485.4 233 484.4 233.6 483.3 233.6Z" fill="#2D2D2B"/>
<path d="M492.7 238C491.1 238 489.8 236.8 489.7 235.2C489.3 227.8 492.1 220.1 497.3 214.6C498.4 213.4 500.3 213.4 501.5 214.5C502.7 215.6 502.7 217.5 501.6 218.7C497.5 223 495.3 229 495.6 234.7C495.7 236.4 494.4 237.8 492.8 237.9C492.8 238 492.8 238 492.7 238Z" fill="#2D2D2B"/>
<path d="M556.5 344.1C555.4 344.1 554.3 343.5 553.8 342.5C547.7 330.5 541 313.7 537 300.7C536.5 299.1 537.4 297.4 539 297C540.6 296.5 542.3 297.4 542.7 299C546.6 311.7 553.2 328.1 559.1 339.8C559.8 341.3 559.3 343.1 557.8 343.8C557.4 344 557 344.1 556.5 344.1Z" fill="#2D2D2B"/>
<path d="M563.9 335.3C562.8 335.3 561.8 334.7 561.3 333.7C554.6 321.4 548.9 308.4 544.4 294.9C543.9 293.3 544.7 291.6 546.3 291.1C547.9 290.6 549.6 291.4 550.1 293C554.5 306.2 560 318.9 566.6 330.8C567.4 332.3 566.9 334.1 565.4 334.9C564.9 335.2 564.4 335.3 563.9 335.3Z" fill="#2D2D2B"/>
<path d="M728.6 296.7C728.3 296.7 728.1 296.7 727.8 296.6C726.2 296.1 725.3 294.5 725.7 292.9C728.6 282.7 737.4 270.3 744.2 261.6C745.2 260.3 747.1 260.1 748.4 261.1C749.7 262.1 749.9 264 748.9 265.3C739.7 276.9 733.5 287.2 731.4 294.4C731.1 295.8 729.9 296.7 728.6 296.7Z" fill="#2D2D2B"/>
<path d="M764 758.5C747.5 758.5 734.1 745.1 734.1 728.6C734.1 712.1 747.5 698.7 764 698.7C780.5 698.7 793.9 712.1 793.9 728.6C793.9 745.1 780.5 758.5 764 758.5ZM764 704.7C750.8 704.7 740.1 715.4 740.1 728.6C740.1 741.8 750.8 752.5 764 752.5C777.2 752.5 787.9 741.8 787.9 728.6C787.9 715.4 777.2 704.7 764 704.7Z" fill="#2D2D2B"/>
<path d="M1067.4 770.3H134.3C132.6 770.3 131.3 769 131.3 767.3C131.3 765.6 132.6 764.3 134.3 764.3H1067.4C1069.1 764.3 1070.4 765.6 1070.4 767.3C1070.4 769 1069.1 770.3 1067.4 770.3Z" fill="#2D2D2B"/>
<path d="M229.9 100.3C229.7 100.3 229.4 100.3 229.2 100.2C227.6 99.7998 226.6 98.1998 227 96.5998C227.9 92.8998 230.6 89.5998 234.4 87.6998C237.4 86.1998 240.6 85.6998 243.6 86.2998C251.1 75.9998 265.7 71.6998 277.6 76.1998C278.8 72.6998 281.2 69.3998 284.4 66.9998C288.8 63.6998 294.1 62.3998 299.1 63.2998C308.1 64.9998 313.5 70.6998 317.5 76.3998C318.4 76.1998 319.4 75.8998 320.8 75.5998C323 75.0998 326 74.4998 326.7 74.3998H326.8C331.5 74.0998 336.3 74.7998 340.9 76.4998C350.7 80.1998 356 87.4998 354.9 95.9998C354.7 97.5998 353.2 98.7998 351.6 98.5998C350 98.3998 348.8 96.8999 349 95.2999C350 87.2999 342.2 83.3998 338.8 82.1998C335.1 80.7998 331.1 80.1998 327.3 80.4998C326.3 80.6998 319.8 81.9998 318 82.5998C316.7 83.4998 314.9 83.1998 313.9 81.8998C313.9 81.7998 313.8 81.7998 313.8 81.6998C308.8 73.9998 304.3 70.3998 298 69.1998C294.7 68.5998 291.1 69.4998 288.1 71.7998C285 74.0998 283.1 77.3998 282.8 80.7998C282.7 81.7998 282.1 82.6998 281.2 83.1998C280.3 83.6998 279.2 83.6998 278.3 83.1998C268.1 77.4998 253.5 81.3998 247.5 91.3998C246.7 92.6998 245.2 93.1998 243.8 92.5998C241.9 91.7998 239.4 91.9998 237.2 93.0998C235 94.1998 233.5 95.9998 233 98.0998C232.5 99.3998 231.3 100.3 229.9 100.3Z" fill="#EBEAEE"/>
<path d="M935.6 116C934.9 116 934.3 115.8 933.7 115.3C932.8 114.6 932 113.8 931.2 113.1C929.4 111.4 927.9 110.1 925.6 109.4C923.7 108.8 918.5 108.6 917.1 109.2C916.3 110.4 914.8 111 913.4 110.4C911.9 109.8 911.1 108 911.8 106.5C912.8 104.2 910.7 101.1 908.2 99.7997C904.7 98.0997 898.9 97.6997 891.7 98.7997C890.5 98.9997 889.4 98.3997 888.7 97.3997C888.1 96.3997 888.1 95.0997 888.8 94.0997C890.4 91.7997 888.9 87.8997 886.6 86.2997C884.1 84.4997 880.3 83.9997 876 84.9997C866 87.3997 858.7 95.6997 850.9 105.5C850 106.6 848.5 106.9 847.3 106.3C844.4 104.9 840.8 104.9 837.5 106.2C834.2 107.5 831.6 110 830.4 113C829.8 114.5 828.1 115.3 826.5 114.7C825 114.1 824.2 112.4 824.8 110.8C826.6 106.3 830.4 102.5 835.3 100.6C839.4 98.9997 843.7 98.7997 847.6 99.8997C854.3 91.4997 862.7 81.8997 874.7 79.0997C880.6 77.7997 886.3 78.5997 890.1 81.3997C893.3 83.6997 895.6 88.0997 895.4 92.2997C900.6 91.8997 906.4 92.1997 910.9 94.3997C914.2 95.9997 916.9 99.2997 917.8 102.9C922.2 102.4 927.3 103.6 927.4 103.6C931 104.7 933.2 106.7 935.4 108.6C936.1 109.2 936.8 109.9 937.6 110.5C938.9 111.5 939.1 113.4 938.1 114.7C937.3 115.6 936.5 116 935.6 116Z" fill="#EBEAEE"/>
<path d="M1029.5 181.7C1029 181.7 1028.5 181.6 1028.1 181.3C1026.6 180.5 1026.1 178.7 1026.9 177.2C1031 169.6 1037.2 169 1042.7 168.5C1043.9 168.4 1045.1 168.3 1046.3 168.1C1047.4 167.9 1047.4 167.9 1048 166.7C1048.4 165.9 1048.8 165 1049.6 163.8C1052.6 159.3 1056.8 156.7 1061.8 156.3C1069.2 155.8 1076.5 160.3 1081.3 164.9C1084 163.7 1087.2 163.3 1090.4 164C1093.6 164.6 1096.5 166.2 1098.5 168.5C1107.5 164.8 1118.3 165.9 1126.2 171.5C1127.6 172.5 1127.9 174.3 1126.9 175.7C1125.9 177.1 1124.1 177.4 1122.7 176.4C1115.9 171.6 1106.3 171 1098.9 174.9C1097.5 175.6 1095.8 175.1 1094.9 173.8C1093.7 171.9 1091.6 170.4 1089.1 169.9C1086.6 169.4 1084.2 169.9 1082.5 171.1C1081.3 172 1079.5 171.8 1078.5 170.7C1074.5 166.2 1067.9 161.9 1062.2 162.3C1059.1 162.5 1056.6 164.1 1054.6 167.1C1054.1 167.9 1053.7 168.6 1053.4 169.2C1052.3 171.5 1051.1 173.3 1047.1 174C1045.7 174.2 1044.4 174.3 1043.1 174.4C1037.8 174.9 1034.6 175.2 1032.1 179.9C1031.6 181.1 1030.6 181.7 1029.5 181.7Z" fill="#EBEAEE"/>
</g>
<defs>
<clipPath id="clip0_2113_10136">
<rect width="1200" height="800" fill="white"/>
</clipPath>
</defs>
</svg>
